<?xml version="1.0" encoding="UTF-8"?><svg id="Layer_1" xmlns="http://www.w3.org/2000/svg" viewBox="0 0 150 150"><g><path d="M141.56,73.67H8.44c-.73-.06-1.27-.71-1.21-1.44,.06-.64,.57-1.15,1.21-1.21H141.56c.73,.06,1.27,.71,1.21,1.44-.06,.64-.57,1.15-1.21,1.21Z"/><path d="M111.36,90.39H38.64c-.73-.06-1.27-.71-1.21-1.44,.06-.64,.57-1.15,1.21-1.21H111.36c.73,.06,1.27,.71,1.21,1.44-.06,.64-.57,1.15-1.21,1.21Z"/><path d="M108.11,51.38h-12.4c-.73-.06-1.27-.71-1.21-1.44,.06-.64,.57-1.15,1.21-1.21h12.4c.73,.06,1.27,.71,1.21,1.44-.06,.64-.57,1.15-1.21,1.21Z"/><path d="M104.71,73.67h-5.51c-1.78-.07-3.35-1.18-4-2.84-.37-.79-.63-1.63-.77-2.49v-20.91c-.03-1.49,.66-2.9,1.86-3.79,.25-.22,.47-.47,.68-.73,.36-.47,.55-1.04,.54-1.63v-10.37c-.03-.85,.3-1.68,.9-2.28,.65-.59,1.51-.91,2.39-.9h2.17c.88-.01,1.74,.31,2.39,.9,.6,.6,.93,1.43,.9,2.28v10.33c0,.59,.18,1.16,.54,1.63,.23,.28,.48,.54,.76,.77,1.2,.89,1.89,2.3,1.86,3.79v20.73c0,4.15-3.06,5.42-4.68,5.5h-.03Zm-7.68-5.61c.09,.46,.63,3,2.17,3h5.43c.52,0,2.15-.41,2.15-2.86v-20.76c0-.94-.3-1.21-1-1.82-.41-.35-.78-.73-1.11-1.15-.73-.98-1.11-2.18-1.07-3.4v-10.15c0-.2,0-.53-.59-.54h-2.25c-.58,0-.58,.35-.58,.54v10.15c.04,1.22-.34,2.42-1.07,3.4-.33,.42-.7,.8-1.11,1.15-.68,.61-1,.88-1,1.82l.03,20.62Z"/><path d="M108.11,65.8h-12.4c-.73-.06-1.27-.71-1.21-1.44,.06-.64,.57-1.15,1.21-1.21h12.4c.73,.06,1.27,.71,1.21,1.44-.06,.64-.57,1.15-1.21,1.21Z"/><path d="M49.97,107.12H26.24c-.73,.06-1.38-.48-1.44-1.21-.06-.73,.48-1.38,1.21-1.44,.08,0,.15,0,.23,0h23.73c.73-.06,1.38,.48,1.44,1.21,.06,.73-.48,1.38-1.21,1.44-.08,0-.15,0-.23,0Z"/><path d="M86.88,107.12h-23.76c-.73,.06-1.38-.48-1.44-1.21-.06-.73,.48-1.38,1.21-1.44,.08,0,.15,0,.23,0h23.76c.73-.06,1.38,.48,1.44,1.21,.06,.73-.48,1.38-1.21,1.44-.08,0-.15,0-.23,0Z"/><path d="M122.41,107.12h-23.76c-.73-.06-1.27-.71-1.21-1.44,.06-.64,.57-1.15,1.21-1.21h23.76c.73-.06,1.38,.48,1.44,1.21,.06,.73-.48,1.38-1.21,1.44-.08,0-.15,0-.23,0Z"/><path d="M120.06,115.06h-18.45c-.73-.06-1.27-.71-1.21-1.44,.06-.64,.57-1.15,1.21-1.21h18.45c.73-.06,1.38,.48,1.44,1.21,.06,.73-.48,1.38-1.21,1.44-.08,0-.15,0-.23,0Z"/><path d="M84.23,115.06h-18.46c-.73-.06-1.27-.71-1.21-1.44,.06-.64,.57-1.15,1.21-1.21h18.46c.73,.06,1.27,.71,1.21,1.44-.06,.64-.57,1.15-1.21,1.21Z"/><path d="M47.87,115.06H29.42c-.73,.06-1.38-.48-1.44-1.21-.06-.73,.48-1.38,1.21-1.44,.08,0,.15,0,.23,0h18.45c.73,.06,1.27,.71,1.21,1.44-.06,.64-.57,1.15-1.21,1.21Z"/><path d="M79.41,72.6c-.73,0-1.32-.59-1.33-1.32v-6.81c.06-.73,.71-1.27,1.44-1.21,.64,.06,1.15,.57,1.21,1.21v6.81c0,.73-.59,1.32-1.32,1.32Z"/><path d="M79.41,65.8c-4.53,0-6-3-6.12-4.62v-6.42c0-.73,.59-1.32,1.32-1.32h9.59c.73,0,1.32,.59,1.33,1.32v6.28s0,.07,0,.11c-.14,1.61-1.56,4.65-6.12,4.65Zm-3.44-4.81c.06,.46,.52,2.16,3.47,2.16s3.4-1.73,3.47-2.19v-4.87h-6.94v4.9Z"/><path d="M58.72,72.6c-.73,0-1.32-.59-1.32-1.32v-6.81c.06-.73,.71-1.27,1.44-1.21,.64,.06,1.15,.57,1.21,1.21v6.81c0,.73-.6,1.32-1.33,1.32Z"/><path d="M58.72,65.8c-4.53,0-6-3-6.11-4.62,0-.04,0-.07,0-.11v-6.31c0-.73,.59-1.32,1.32-1.32,.01,0,.03,0,.04,0h9.59c.73,0,1.32,.59,1.32,1.32v6.39c-.18,1.61-1.63,4.65-6.16,4.65Zm-3.47-4.81c.07,.46,.53,2.16,3.47,2.16s3.4-1.73,3.47-2.19v-4.87h-6.94v4.9Z"/><path d="M38.12,72.6c-.73,0-1.32-.59-1.32-1.32v-6.81c.06-.73,.71-1.27,1.44-1.21,.64,.06,1.15,.57,1.21,1.21v6.81c0,.73-.6,1.32-1.33,1.32Z"/><path d="M38.12,65.8c-4.53,0-6-3-6.11-4.62,0-.04,0-.07,0-.11v-6.31c0-.73,.59-1.32,1.32-1.32,0,0,0,0,.01,0h9.63c.73,0,1.32,.59,1.32,1.32v6.39c-.19,1.61-1.64,4.65-6.17,4.65Zm-3.47-4.81c.07,.46,.53,2.16,3.47,2.16s3.4-1.73,3.47-2.19v-4.87h-6.94v4.9Z"/><path d="M135.22,132.52H14.78v-60.18c.06-.73,.71-1.27,1.44-1.21,.64,.06,1.15,.57,1.21,1.21v57.57h115.14v-57.57c.06-.73,.71-1.27,1.44-1.21,.64,.06,1.15,.57,1.21,1.21v60.18Z"/></g><rect y="-.22" width="150" height="150" style="fill:none;"/></svg>