<?xml version="1.0" encoding="UTF-8"?>
<svg xmlns="http://www.w3.org/2000/svg" id="Layer_1" viewBox="0 0 141.73 141.73">
  <path d="m127.56,77.62c-1.79,1.7-3.57,3.41-5.46,5.21.18-1.27-.65-1.11-1.43-1.1-2.6.02-5.21-.1-7.8.03-3.27.17-4.82-2.09-5.24-4.47-.15-.82-.22-1.68-.16-2.5.06-.78-.11-1.01-.92-1-3.88.04-7.76.04-11.65,0-.71,0-1.09.14-.94.91.44,2.22-.56,3.76-2.23,5.11-1.06.86-1.93,1.96-3.11,3.18,0-3.75-.1-7.13.04-10.5.08-1.87,2.1-3.37,4.57-3.48,3-.13,6-.04,9-.08.53,0,.79.32,1.09.62,1.33,1.37,2.65,2.74,4.08,4.22.29-.88.44-1.52.71-2.11.73-1.61,1.96-2.63,3.78-2.67,2.64-.06,5.28,0,7.92-.03.6,0,.84.12.81.78-.05,1.24-.04,2.48,0,3.71.02.6-.2.73-.76.73-1.72-.02-3.44.02-5.16.02-.72,0-1.47.03-1.49.96-.01.89.67,1.03,1.43,1.02,2.2-.02,4.4-.03,6.6,0,.62.01.91-.15.79-.79-.18-.9.29-1.48.9-2.06,1.3-1.24,2.54-2.55,3.85-3.79.17-.17.29-.79.78-.33v8.4Z" style="fill:#363638;"></path>
  <path d="m67.06,58.75c1.99,2.03,3.76,3.81,5.5,5.61.58.6.25,1.37.27,2.06.04,2.5.02,2.5,2.49,2.5,2.04,0,4.09.09,6.13-.02,3.31-.18,5.49,1.76,5.9,4.97.24,1.9.07,3.75-.84,5.47-.83,1.57-2.15,2.45-3.95,2.46-3,.02-6.01,0-9.01.01-.42,0-.76-.06-1.08-.38-1.68-1.7-3.38-3.38-5.27-5.25,2.02,0,3.8,0,5.57,0,2.36,0,4.72,0,7.09,0,.79,0,1.71.02,1.69-1.01-.02-1.04-.97-.95-1.74-.97-2.64-.07-5.28.18-7.92-.16-3.29-.42-4.83-2.14-4.84-5.39,0-3.16,0-6.32,0-9.9Z" style="fill:#363638;"></path>
  <path d="m64.08,58.9c-1.75,1.73-3.3,3.26-4.84,4.81-.58.58-1.29.36-1.93.32-.89-.05-1.13.21-1.13,1.12.05,5.79.02,11.59.02,17.68-.99-.99-1.76-1.94-2.7-2.65-2.23-1.69-3.05-3.78-2.79-6.6.27-2.85.03-5.75.08-8.63.01-.81-.25-1-1.02-.99-2.76.04-5.52.02-8.28.02,1.6-1.66,3.19-3.31,4.78-4.95.22-.23.53-.13.8-.13,5.32,0,10.65,0,15.97,0,.24,0,.48,0,1.03,0Z" style="fill:#363638;"></path>
  <path d="m14.85,58.92h22.62c.1.36-.25.46-.42.64-3.34,3.33-6.71,6.64-10.04,9.99-.61.62-.96.77-1.66.04-3.44-3.57-6.95-7.07-10.51-10.67Z" style="fill:#363638;"></path>
  <path d="m14.17,59.34c2.01,2.04,3.8,3.89,5.62,5.72,1.75,1.76,3.52,3.49,5.28,5.24.3.29.69.5.16,1.02-3.64,3.63-7.24,7.29-11.06,11.16v-23.13Z" style="fill:#363638;"></path>
  <path d="m32.63,75.96c0-3.54,0-7.09,0-10.63,0-.18.07-.41.19-.54,1.74-1.79,3.5-3.56,5.49-5.58,0,3.88,0,7.38.01,10.88,0,.47-.26.72-.54,1.01-1.62,1.66-3.24,3.32-4.86,4.98-.1-.04-.2-.08-.3-.13Z" style="fill:#363638;"></path>
  <path d="m38.32,71.9c0,3.35-.01,6.74.01,10.13,0,.63-.1.92-.83.91-3.43-.04-6.86-.02-10.15-.02,3.63-3.65,7.31-7.34,10.96-11.02Z" style="fill:#363638;"></path>
  <path d="m31.77,77.02c-.14.16-.26.32-.4.46-1.53,1.52-3.08,3.02-4.58,4.57-.43.44-.66.34-1.04-.04-1.48-1.51-2.98-3.01-4.51-4.47-.49-.47-.49-.82-.02-1.28,1.43-1.4,2.84-2.81,4.26-4.22.37-.37.74-.62,1.22-.14,1.58,1.58,3.17,3.15,4.76,4.73.11.11.2.24.32.39Z" style="fill:#828282;"></path>
  <path d="m60.75,82.96c0-3.06,0-5.76,0-8.45,0-1.72-.47-3.64.15-5.1.64-1.5,2.34-2.55,3.57-3.8.24-.24.47-.5.92-.98,0,1.62,0,2.92,0,4.22,0,2.8-.02,5.59.01,8.39,0,.69-.17,1.19-.68,1.68-1.28,1.23-2.5,2.53-3.99,4.04Z" style="fill:#363638;"></path>
  <path d="m25.59,82.87h-10.89c1.71-1.73,3.36-3.38,4.97-5.07.43-.45.65-.2.94.09,1.6,1.61,3.21,3.22,4.97,4.98Z" style="fill:#363638;"></path>
  <path d="m31.87,76.13c-1.7-1.72-3.22-3.28-4.77-4.82-.33-.33-.35-.53,0-.87,1.55-1.54,3.06-3.1,4.78-4.84v10.52Z" style="fill:#363638;"></path>
  <path d="m65.36,61.38c.18,1.13-.2,1.81-.84,2.41-.96.9-1.87,1.84-2.81,2.76-.2.19-.39.41-.72.29-.37-.14-.22-.46-.25-.71-.14-1.19.03-2.23,1.12-3.03.79-.58,1.42-1.38,2.14-2.07.33-.32.61-.9,1.14-.69.55.22.15.84.22,1.04Z" style="fill:#828282;"></path>
</svg>
