<?xml version="1.0" encoding="UTF-8"?>
<svg xmlns="http://www.w3.org/2000/svg" id="Layer_1" viewBox="0 0 141.73 141.73">
  <path d="m82.42,103.5c.13.31.26.65.4,1-.51.37-.35.76,0,1.17-.23.09-.34.2-.3.45.03.19,0,.34.24.39.08.02.12.17.18.27-.08.05-.15.09-.2.13v.74s-.07.02-.1.03c.15.18.3.35.48.56-.2.34-.01.67.12,1.07.09.27.41.69-.04.99-.03.02,0,.14,0,.21,0,.07.03.15.01.22-.11.49-.06.61.33.78.16.5.31.95.49,1.52-.06.18-.24.41-.68.52.17.07.23.09.29.11-.18.22-.23.72-.07.93.05.07.16.1.24.14.14.06.29.12.47.19-.14.07-.23.11-.35.17.16.12.28.21.4.31q-.17.52-.46.59c.1.07.16.11.25.17-.05.08-.11.16-.18.27.22.25.43.49.66.74-.13.29-.29.61-.45.95.12.09.22.17.35.26-.32.13-.48.38-.56.7-.02.08-.04.16-.09.22-.58.72-1.29,1.25-2.24,1.33-.49.04-.97-.02-1.45-.13-1.14-.27-1.77-.99-2.11-2.07-.38-1.25-.45-2.51-.39-3.8.06-1.18.07-2.37.1-3.56.03-1.1.06-2.21.09-3.31.03-.97.06-1.94.09-2.91.03-.97.12-1.95.06-2.92-.03-.53.17-1.02.09-1.55-.07-.51,0-1.04,0-1.56,0-.78-.03-1.56-.03-2.33,0-.97,0-1.95,0-2.92,0-.93-.02-1.85,0-2.78,0-.78.04-1.55.06-2.33,0-.11-.02-.22-.03-.4-.27.13-.51.21-.72.35-.98.61-1.92,1.28-2.8,2.02-.81.67-1.67,1.29-2.5,1.93-1.11.86-2.21,1.71-3.31,2.58-1.17.93-2.32,1.89-3.48,2.83-.37.3-.75.57-1.12.86-1.51,1.21-3.02,2.43-4.53,3.63-.63.5-1.24,1.04-1.82,1.6-.41.39-.78.82-1.2,1.21-.3.27-.67.46-.96.74-.62.59-1.21,1.21-1.82,1.81-.14.14-.29.25-.44.38-.07.06-.18.11-.22.19-.23.59-.78.9-1.19,1.33-.9.94-1.85,1.82-2.77,2.74-.35.35-.65.77-.99,1.13-.45.49-.91.96-1.37,1.43-.1.11-.2.21-.31.32-.26.26-.53.53-.79.79-.25.25-.48.53-.76.76-.38.32-.76.65-1.2.89-.23.13-.57.07-.86.1-.97.11-1.8-.23-2.5-.86-.41-.37-.63-.9-.72-1.46-.04-.25-.06-.52-.04-.77.03-.42.21-.77.45-1.11,1.04-1.41,2.24-2.66,3.55-3.82.79-.7,1.57-1.42,2.34-2.15,1.51-1.43,3.05-2.83,4.68-4.13.88-.7,1.77-1.38,2.64-2.09.82-.67,1.63-1.34,2.42-2.04,1.24-1.1,2.58-2.08,3.85-3.14.81-.68,1.62-1.36,2.44-2.02.43-.35.89-.66,1.33-.99.26-.2.49-.42.76-.61.58-.42,1.17-.82,1.75-1.24,1.09-.79,2.17-1.6,3.26-2.39.76-.55,1.55-1.07,2.31-1.63,1.44-1.08,2.86-2.2,4.31-3.28.74-.55,1.52-1.06,2.29-1.59.14-.96.13-1.93.07-2.99-.18.04-.32.04-.42.1-.36.23-.71.49-1.07.73-.36.24-.71.49-1.18.53-.21.01-.42.15-.61.26-.53.29-1.13.28-1.69.37-.57.1-1.17.12-1.75.08-1.04-.08-1.94-.52-2.63-1.31-.4-.46-.56-1.05-.73-1.63-.3-1.05-.19-2.13-.19-3.2,0-.59.01-1.17,0-1.76,0-.27-.08-.54-.1-.81-.02-.33,0-.65.15-.95.05-.1.06-.22.06-.33,0-1.14.2-2.26.35-3.39.14-1.06.43-2.07.73-3.08.24-.84.7-1.58,1.16-2.3.45-.71.93-1.42,1.48-2.05.4-.46.95-.78,1.43-1.16.09-.07.2-.1.29-.18.71-.61,1.6-.78,2.48-.92.3-.05.66.05.94.18.34.16.4.55.4.89,0,.28-.1.57-.16.85-.11.53-.42.97-.68,1.43-.05.09-.15.17-.24.24-.3.25-.63.47-.72.89,0,.04-.05.08-.09.12-.53.65-.98,1.34-1.15,2.18-.01.06-.02.14-.06.18-.5.53-.48,1.26-.71,1.9-.14.39-.2.81-.26,1.22-.03.22.01.45.09.66.08.25.11.47-.01.7-.05.1-.09.21-.1.32-.05.6-.08,1.2-.12,1.8,0,.05.02.11,0,.15-.26.54-.02,1.11-.08,1.67-.08.63.13,1.23.41,1.78.2.38.55.59,1,.6,1.53.04,3.21-1.18,3.49-2.73.11-.62.23-1.25.32-1.87.19-1.43.38-2.86.55-4.3.05-.4,0-.8.02-1.2,0-.15.1-.29.12-.44.06-.45.12-.9.16-1.36.11-1.26.22-2.53.32-3.79.07-.81.11-1.62.2-2.43.1-.97.64-1.64,1.51-2.06.83-.4,1.68-.49,2.55-.16.51.19.99.88,1,1.42,0,.48.05.97.03,1.45,0,.29-.09.58-.13.87-.02.13-.03.26-.02.39.02.43.06.85.08,1.28,0,.08,0,.16-.04.24-.37.95-.33,1.96-.43,2.94-.1,1.02-.19,2.04-.28,3.06-.07.84-.13,1.69-.19,2.53-.07.89-.15,1.77-.19,2.66-.02.37.06.74.08,1.11.01.25.03.49-.03.76-.08.37-.04.76-.06,1.15,0,.11.02.23-.01.33-.26.88-.07,1.78-.15,2.66,0,.06.04.12.07.23.14-.06.28-.1.4-.17.73-.46,1.45-.93,2.18-1.39.91-.57,1.83-1.12,2.75-1.68,1.12-.69,2.21-1.43,3.37-2.06.84-.46,1.55-1.15,2.49-1.42.13-.04.27-.13.36-.24.37-.42.96-.44,1.39-.77.44-.33.94-.57,1.42-.85.52-.31,1.02-.62,1.55-.91,1.12-.62,2.25-1.23,3.37-1.85.7-.38,1.38-.79,2.08-1.17,1.76-.97,3.53-1.94,5.3-2.91.33-.18.66-.36.98-.55.13-.08.24-.19.41-.32-.14-.11-.22-.18-.31-.24-.36-.23-.65-.49-.88-.88-.32-.56-.3-1.15-.34-1.74-.02-.32-.02-.65,0-.97.05-.74.12-1.47.18-2.21.01-.14.02-.3-.02-.44-.15-.46-.08-.89.06-1.33.01-.05.05-.1.04-.14-.18-.53-.03-1.06.03-1.59.06-.55.09-1.1.1-1.66.01-.8,0-1.6,0-2.39,0-.31-.12-.57-.31-.8-.09-.11-.22-.24-.34-.26-.53-.1-1.07-.25-1.6.06-.65.38-1.3.74-1.68,1.45-.14.25-.45.41-.69.61-.05.04-.15.08-.14.11.08.4-.29.46-.5.64-.06.33,0,.69-.3.95-.06.05-.04.21-.04.32-.02.25.03.52-.13.75-.03.04.04.15.08.27-.06,0-.13.02-.2.03-.2.02-.25.25-.2.29.25.19.06.43.14.62-.35.19-.39.2-.26.6.13.41.25.74-.18,1.09-.29.23-.21.39.01.7.06.08.09.19.1.3.02.19.02.38.03.61-.11-.01-.2-.03-.35-.05-.01.28-.02.56-.04.84-.02.32-.07.64-.09.96-.02.3,0,.61,0,.92h.26c-.44.27-.07.67-.25.97.09.07.18.13.27.2,0,.06,0,.11-.02.15-.18.44-.47.86-.17,1.37.05.08-.03.29-.11.38-.33.34-.43.77-.55,1.2-.02.08-.09.16-.15.22-.59.61-1.34.97-2.08,1.32-.51.24-1.06.27-1.62.16-.6-.12-1.03-.65-1.09-1.22-.05-.46-.04-.94-.02-1.41.04-.94.08-1.88.14-2.82.08-1.23.18-2.46.26-3.69.06-.93.07-1.85.12-2.78.05-.98.1-1.95.16-2.92,0-.18.04-.36.04-.54-.03-1.2.46-2.22,1.24-3.05.85-.9,1.94-1.42,3.24-1.28.19.02.34,0,.5-.1.25-.17.49-.14.77-.02.4.18.85.25,1.28.11.75-.25,1.41-.65,1.86-1.34.07-.11.16-.2.26-.29.29-.28.63-.52.88-.84.31-.39.71-.62,1.12-.85.61-.34,1.22-.67,1.93-.79.69-.12,1.37-.12,2.01.19.62.3,1.03.8,1.19,1.49.04.19.16.36.25.56-.02.13-.08.32-.04.48.04.16.22.29.26.45.04.14-.02.31-.04.5-.61.27-.15.81-.28,1.24.09,0,.16.01.24.02.07.57-.33,1.15.02,1.71-.45.24-.46.32-.15.73-.25.12-.3.31-.14.54-.29.16-.12.44-.17.66-.05.22,0,.45-.01.68,0,.24-.02.49,0,.73.02.21.07.43.12.69-.17.23-.14.64,0,.96.08.19.03.45.03.67,0,.16-.03.32-.06.47-.02.1-.06.2-.11.29-.11.19-.12.33.13.4-.06.13-.15.26-.16.4,0,.08.13.17.19.25-.28.21-.2.52-.14.77.06.25.23.47.38.75-.02.03-.09.1-.12.18-.02.07-.02.22,0,.22.29.05.16.36.3.49.24.22.46.46.73.64.23.15.51.11.75,0,.91-.39,1.82-.77,2.73-1.18.59-.27,1.16-.59,1.74-.88.45-.23.9-.45,1.34-.69.76-.4,1.59-.35,2.39-.24.39.05.79.04,1.19.18.24.09.41.22.52.39.22.33.39.71.58,1.06.11.21.1.4-.06.61.27.31.22.61,0,.94-.25.36-.44.77-.65,1.16-.3.56-.72.99-1.25,1.33-.27.18-.53.38-.8.55-.99.59-2.1.87-3.18,1.22-1.19.39-2.39.75-3.56,1.2-1.37.52-2.71,1.08-4.06,1.66-.73.32-1.43.7-2.14,1.06-1.11.58-2.21,1.17-3.32,1.75-1.18.62-2.36,1.23-3.54,1.86-1.87.99-3.73,1.97-5.59,2.98-1.28.7-2.55,1.44-3.81,2.17-1.14.66-2.27,1.33-3.41,2-.96.57-1.93,1.13-2.88,1.73-1.34.84-2.66,1.71-4,2.56-.29.18-.58.36-.85.56-.15.11-.26.27-.4.4-.08.08-.16.16-.25.22-.15.1-.3.18-.45.27-.41.23-.33.66-.37,1.02-.04.44-.18.89,0,1.33.02.04-.03.12-.07.17-.11.14-.13.24-.04.43.07.14-.03.37-.06.62.2.17.21.42.1.73-.09.25-.18.53-.05.8.02.04.05.12.04.13-.31.22-.11.45-.01.67,0,.01.02.03.02.04-.15.35,0,.73-.06,1.07-.11.62-.06,1.24-.06,1.86,0,.21-.06.44.11.63.03.04.01.19-.03.23-.26.22-.16.44-.05.67.03.07.04.16.04.24-.03.93-.06,1.86-.09,2.79,0,.07.02.15.04.22.12.48.01.96.02,1.45,0,.3.04.6.07.92q-.22.18-.33.96c.11.06.23.13.4.23-.15.1-.26.17-.34.22.09.32.24.63.22.92-.02.31-.21.6-.34.96Z" style="fill:#363638;"></path>
  <path d="m27.59,97.51c.18-.39.17-.43-.28-.89.23-.57.12-1.15.01-1.75-.22-1.23-.39-2.47-.58-3.7-.26-1.62-.53-3.23-.78-4.85-.19-1.24-.34-2.48-.51-3.72-.1-.74-.16-1.5-.35-2.21-.32-1.18-.31-2.4-.56-3.59-.16-.76-.28-1.53-.38-2.3-.05-.37-.1-.72-.41-1-.1-.09-.05-.33-.08-.5-.07-.44-.06-1,.05-1.33h-.4c.04-.49-.07-.69-.45-.83-.27-.1-.32-.08-.44.19-.07.16-.14.33-.22.49-.09.18-.13.37-.37.46-.14.06-.21.31-.35.53.21.45-.14.85-.33,1.29-.21.46-.46.89-.54,1.4-.03.17-.01.44-.28.53-.04.01-.05.15-.06.23-.05.3-.07.59-.2.87-.12.26-.18.56-.24.85-.05.25-.25.5-.33.78-.08.27-.27.51-.38.77-.22.5-.46.99-.63,1.51-.1.3-.33.47-.52.64-.32.29-.72.5-1.17.55-.32.03-.65.09-.96.04-1.07-.15-1.97-1.37-1.56-2.58.15-.43.3-.86.43-1.3.26-.83.49-1.67.76-2.5.14-.42.34-.81.5-1.22.13-.33.22-.68.34-1.02.13-.36.16-.74.43-1.06.14-.17.15-.45.21-.69.04-.17.02-.38.11-.52.41-.61.55-1.31.76-1.99.22-.71.51-1.4.74-2.11.16-.49.26-1,.43-1.49.62-1.79,1.25-3.58,1.88-5.37.17-.48.33-.95.51-1.42.38-1.03,1.14-1.72,2.19-1.89,1.16-.18,2.3.13,2.88,1.4.26.57.42,1.16.52,1.77.17.99.37,1.98.54,2.97.13.77.22,1.54.35,2.31.08.5.27,1,.28,1.5,0,.47.38.87.21,1.35-.01.04.01.09.03.14.19.4.18.63.16,1.12-.02.38.11.76.16,1.14.07.53.13,1.05.21,1.58.08.52.19,1.04.21,1.57,0,.06.08.13.13.19.04.05.12.1.11.14-.09.49.2.85.4,1.25.1.2.13.44.15.66.02.31,0,.62.24.77-.02.26-.06.45-.04.62.04.26.12.5.18.76.03.14.1.29.09.43-.05.76.17,1.45.49,2.11.1.22.09.39-.02.6-.2.38-.25.82-.18,1.22.06.36.11.76.41,1.06.28.27.17.65.13.97-.05.41-.06.79.03,1.2.07.31.04.65.05.97,0,.1-.01.26.03.28.4.19.28.59.27.85-.01.35.03.58.33.75.04.02.06.07.14.18.11-.3.24-.55.28-.81.25-1.71.47-3.42.71-5.12.08-.55.22-1.08.31-1.63.31-1.76.64-3.52.9-5.29.19-1.26.43-2.5.69-3.74.43-2.07.82-4.14,1.35-6.19.52-1.99,1.03-4,1.54-5.99.08-.3.21-.58.29-.88.16-.64.26-1.3.43-1.94.39-1.41.8-2.81,1.21-4.22.06-.22.11-.44.17-.66.04-.14.1-.27.14-.41.05-.15.11-.3.11-.45.01-.31.05-.61.22-.89.08-.13.1-.31.14-.46.3-1.06.51-2.15,1.01-3.15.23-.46.31-.99.46-1.48.09-.28.19-.55.3-.82.09-.23.21-.44.29-.67.6-1.65,1.2-3.3,1.8-4.95.63-1.73,1.26-3.45,1.91-5.17.72-1.88,1.45-3.76,2.2-5.64.45-1.12.88-2.24,1.41-3.32.6-1.24,1.45-2.31,2.62-3.08,1.05-.69,2.16-.81,3.36-.44.55.17,1.05.42,1.53.74.88.6,1.26,1.49,1.48,2.49.09.42-.01.87.19,1.28.06.11-.03.32-.08.47-.21.61-.63,1.09-1.01,1.6-.08.11-.14.24-.19.36-.12.28-.19.56-.54.68-.17.06-.46.11-.45.43,0,.02-.23.02-.24.06-.1.31-.42.39-.6.6-1,1.17-1.9,2.41-2.73,3.71-.69,1.08-1.16,2.24-1.72,3.37-.56,1.13-1.03,2.32-1.55,3.47-.16.36-.34.7-.28,1.11.01.09-.03.19-.07.28-.39.8-.79,1.59-1.17,2.39-.13.28-.19.59-.29.88-.11.32-.24.63-.36.94-.09.23-.18.45-.25.68-.18.58-.33,1.17-.52,1.76-.1.31-.23.6-.33.91-.16.52-.37,1.03-.45,1.56-.07.49-.28.91-.44,1.35-.03.07-.06.18-.03.23.28.44-.14.71-.25,1.05-.07.23-.2.44-.27.66-.2.65-.37,1.3-.67,1.92-.19.39-.22.87-.28,1.31-.07.53-.12,1.06-.14,1.59-.02.53-.16.97-.62,1.29-.1.07-.17.2-.21.32-.12.37-.21.75-.34,1.11-.11.3-.27.58-.39.87-.19.42-.41.84-.55,1.28-.17.52-.28,1.07-.41,1.6-.27,1.15-.51,2.31-.78,3.46-.19.82-.44,1.63-.61,2.45-.11.52-.2,1.04-.18,1.58,0,.1-.05.23-.12.3-.4.37-.44.82-.36,1.32.09.52.12,1.03-.28,1.47-.09.1-.18.27-.16.39.1.5-.14.91-.26,1.35-.03.09-.06.19-.06.28-.02.42-.03.84-.05,1.26,0,.08,0,.2-.04.23-.32.26-.25.63-.3.98-.1.65-.25,1.3-.35,1.95-.05.3-.06.61-.07.92,0,.08.01.17.05.24.33.58.3.83.16,1.46-.08.36-.21.66-.42.95-.3.42-.22.94-.33,1.41-.07.28-.11.57-.12.86,0,.27-.12.56.2.79.2.14.13.39-.13.48-.18.06-.17.14-.19.27-.02.17-.01.37-.09.52-.29.53-.33,1.11-.4,1.69-.13,1.13-.29,2.26-.44,3.38-.18,1.35-.34,2.71-.52,4.06-.16,1.22-.34,2.44-.51,3.66-.09.66-.15,1.32-.26,1.98-.16.93-.34,1.85-.53,2.77-.05.25-.16.5-.26.73-.4.9-1.1,1.3-2.08,1.45-.98.15-2.1-.7-2.29-1.6-.38-1.76-.83-3.5-1.09-5.29-.1-.71-.24-1.41-.37-2.11-.04-.2-.13-.39-.19-.59-.02-.08-.04-.17-.04-.26,0-.18.01-.36-.02-.53-.11-.64-.23-1.27-.37-1.9-.03-.14-.15-.27-.26-.46Z" style="fill:#363638;"></path>
  <path d="m54.26,84.17c-.03-.52-.06-1.03-.08-1.55,0-.08,0-.16.02-.24.18-.75.19-1.49.03-2.25-.05-.26,0-.56.08-.82.07-.25.06-.47.03-.71-.03-.28.03-.57.03-.86,0-.21-.02-.42-.02-.63,0-.06-.02-.13,0-.19.4-.98.36-2.03.44-3.06.11-1.43.16-2.86.29-4.28.07-.78.31-1.53.69-2.22.38-.7,1-1.14,1.7-1.49.74-.37,1.55-.45,2.35-.59.44-.08.88-.23,1.29-.4.82-.34,1.61-.74,2.44-1.07.29-.12.64-.14.96-.14.59,0,.87.45,1.12.89.11.2.2.41.29.62.08.21.16.42-.03.64-.07.08-.11.22-.09.32.11.56-.28.91-.55,1.3-.12.18-.32.31-.5.45-.73.59-1.5,1.14-2.2,1.76-.64.56-1.12,1.27-1.52,2.01-.19.36-.2.81-.3,1.23-.02.08,0,.17-.05.22-.25.28,0,.68-.15.91-.19.27-.27.53-.28.84-.02.44,0,.87-.03,1.31-.06.89-.13,1.78-.19,2.67-.04.57-.06,1.13-.07,1.7-.01.8-.02,1.61-.16,2.4-.2,1.12-.81,2-1.8,2.59-.51.31-1.06.57-1.64.73-1.09.31-1.59.04-2.02-1.14-.11-.3-.11-.64-.15-.96.02,0,.05,0,.07,0Z" style="fill:#363638;"></path>
  <path d="m50.6,72.17c-.3.25-.37.47-.19.85.26.55.23,1.08.02,1.64-.13.37-.13.79-.17,1.19-.04.48-.07.97-.28,1.42-.04.08-.03.19-.04.29,0,.45-.03.91,0,1.36.04.48-.14.92-.23,1.38-.02.09-.09.18-.08.27.03.56-.09,1.09-.19,1.64-.15.75-.23,1.51-.31,2.26-.06.62-.16,1.26-.09,1.87.07.57-.05,1.09-.13,1.63-.07.48-.05.97-.29,1.42-.09.18-.01.25.34.37-.02.08-.05.25-.06.25-.3-.02-.43.33-.71.35-.08,0-.17.08-.24.14-.58.53-1.21.98-1.92,1.33-.62.3-1.21.21-1.77-.1-.36-.2-.4-.62-.47-.98-.19-.88-.12-1.78-.07-2.67.04-.68.07-1.36.11-2.04.05-.74,0-1.49.19-2.22.05-.2,0-.42,0-.63.06-.81.15-1.63.21-2.44.05-.66.05-1.33.09-2,.03-.55.07-1.09.11-1.64.02-.29.07-.58.07-.88.03-1.2.32-2.34.83-3.43.33-.7.86-1.23,1.46-1.67.55-.41,1.13-.76,1.82-.92.51-.12,1-.11,1.4.3.27.27.38.65.37.98-.01.28.12.45.2.67Z" style="fill:#363638;"></path>
  <path d="m93.93,62.59c-.15-.03-.24-.05-.46-.1.31.31.06.5.02.72-.07.42-.08.84-.1,1.26-.03.57-.05,1.14-.06,1.71,0,.14.04.28.07.42.02.16.07.31.07.47-.02.87-.44,1.53-1.08,2.1-.74.66-1.58,1.12-2.5,1.47-.39.15-.78.08-1.15-.04-.46-.15-.81-.73-.77-1.29.05-.89.13-1.78.2-2.67.11-1.33.23-2.66.35-3.98.14-1.49.3-2.97.44-4.46.12-1.26.2-2.52.35-3.78.15-1.23.58-2.38,1.64-3.09.66-.45,1.42-.84,2.3-.8.59.03.86.25.92.84.02.19.06.39.15.55.2.36.17.69.06,1.07-.09.32-.22.66-.07,1.02.04.1-.04.26-.08.4-.06.23-.23.5-.16.67.1.26-.03.45-.05.67-.03.24-.1.47-.12.71-.02.19,0,.39.02.58.05.32.18.63,0,.94.12.7-.11,1.41.02,2.12.07.37.08.8-.25,1.15-.13.13-.09.42-.13.64-.05.27.11.42.3.56.02.02.02.06.06.17Z" style="fill:#363638;"></path>
  <path d="m47.34,61.96c.11-.37.18-.76.33-1.11.47-1.13,1.89-2.49,3.06-2.9.36-.13.76-.17,1.14-.2.35-.02.63.13.74.5.05.15.13.3.2.44.32.68.29,1.33-.12,1.97-.22.33-.41.68-.67.97-.24.27-.55.5-.86.7-.58.38-1.17.75-1.78,1.08-.51.27-1.27.04-1.61-.43-.27-.37-.39-.71-.43-1.03Z" style="fill:#363638;"></path>
  <path d="m96.12,40.67c.11.29.35.48.42.81.15.76-.12,1.36-.56,1.92-.28.36-.56.72-.86,1.06-.44.49-.98.9-1.6,1.05-.63.15-1.31.07-1.89-.33-.09-.06-.2-.15-.23-.24-.15-.45-.36-.89-.21-1.4.47-1.65,1.51-2.68,3.2-3.03.41-.08.84-.09,1.25.07.13.05.28.06.47.09Z" style="fill:#363638;"></path>
</svg>
