<?xml version="1.0" encoding="UTF-8"?>
<svg xmlns="http://www.w3.org/2000/svg" id="Layer_1" viewBox="0 0 141.73 141.73">
  <path d="m75.35,60.76l-6,.21-.11-.33.23-.26.39-.05-.11-.35.74-.36-1.21-.18v-.22l3.87-.66.94.36-.07.12.31.24-.06.05-.94.07.68.44-.08.23,1.42.7m1.67,4.35h-.21l-2.36,1.53h-.17l-.33.16-.53,1.13.11.22,1.5.29.06.22.54.05.9-.39.82-3.08-.04-.09-.18.08-.09-.11h-.02Zm-7.69,2.17l-1.76-2.14-.5.13-.33,1.28.3.81,2.75,1.55.09-.05-.15-1.53s-.4-.05-.4-.05Zm2.37,2.19l.21,7.28.21-.05.35-7.66-.06-.09-.44,1.06-.08.05-.12-.63-.07.03h0Zm7.8-2.8l-.17-.02-1.19,3.28.05.1h.11l1.74-3.06-.04-.36-.19-.17-.28.38-.05-.16h.02Zm-15.01.48l-.15.02-.3.67,1.12,1.69.37.07.08-.08v-.13l-1.13-2.23h.01Zm9.36,17.03l8.89-4.89-19.84,2.04,10.95,2.85Zm26.4-36.24l-1.08,7.34-4.68,3.32-.03.22h-.06l-.51,5.08-4.15,6.1-.37.06.16-2.92-5.21,10.08-.74.14-3.87,1.41-14.09.44-3.83-.28-7.65-12.64.48,4-.17.31-5.09-5.46-.02-4.79-.03-1.59h-.68l-3.52-1.17-3.65-8.49.89-1.4v-.15l.83-.62,5.26.61.09-.11h.09s.13.01.19.02c.06,0,.16.02.15.02.05,0,.1.02.16.03l-.02-1.23,2.3-3.26-2.31,1.14-.37-.28,2.68-6.45,6.91-3.31-.04-.05-2.66-.16-.16-.39,4.27-2.75,8.71-.11v-.05l-1.32-.85.34.02.11-.07,3.14.7-.37-1.93-.1-.06v-.46l.13-.19.39.1.67,2.39,2.71-1.23.38.09-1.3,1.06,13.5,2.13.1.68-.21-.09-1.39.58,7.28,3.38,2.59,5.91-.2.1-2.23-.12,1.53,2.44.04,2.6.05.07,2.23-1.04,3.73,1.1.02.03Zm-53.68,1.82l-.07-.31-.28-.16.05-.13-.04-.14-1.19-.48-.49.16-.54,1.16.65,1.99,1.9-2.09h.01Zm.18,6.39l-.15-.1h-.06v.07l.19.06.02-.04h0Zm.89.27l-.48-5.94-1.95,2.44.14,1.77,2.29,1.73Zm14.15-18.15l4.98,1.02,3.24,3.16-.09.18-5.25-1.27-1.15.5-.05.08,7.63,3.71,7.99-4.46-5.55-.6-.19-.34,7.48-2.75-3.9-.69-4.63,1.89-.21-.52,4.17-3.3-3.68.47-.21-.38,2.43-2.24-3.88,1.62-3.28-1.4-.96.24-.07.1,2.98,1.91-.02.49.27.19v.07l-.04.04-3.31-.52,3.59,3.33-.11.13-6.26-1.33s-1.92.67-1.92.67Zm14.57,23.94l6.36.94,3.35-2.88-.4-5-1.47-1.8-2.93,2.48s-.08-.02-.12-.03l.74-.88-.77-1.05.07.32-1.24,1.51-.2-.04-.07.06-.44.02-.72-1.17-.12.13-.02,1.67.31.25,1.16.05c-.02.11-.02.23,0,.35l-1.02.86-1.29-.17-1.04-.82-.09-.94,2.12-2.87-4.52,4.11-4.03.31-3.96-3.76h-.03l1.58,2.4-.14.73-.22.26v.04l.11.03-.65.74-3.36-.44c0-.14,0-.28-.05-.42l1.4.34.94-1.55-.17-.71-.05-.03-1.19,1.18-.82-.16-.59-1.19.14-.69-.95.52.56,1.41-.05.13c-.08-.02-.17-.03-.27-.03-.32,0-.57.11-.75.28l-1.05-1.17-.42-1.86-1.55.64-.78,1.87,1.97,5.72,3.32,1.87,4.83-1.46-.04.44-8.42,8.93.27,1.84,3.26,3.79,19.21-1.76,2.84-2.16-2.1-6.84-6.42-4.38v.04Zm-12.56-6.77l.49.3.24-1.58-.76.39-.16.27.2.62h-.01Zm15.49-.2l.49.3.24-1.58-.76.39-.16.27.2.62h-.01Zm8.38-3.76l-2.78-4.87-4.72-1.25-6.7,3.63-13.68-5.41-5.66,10.41,6.38-5.94,10.31,5.83.41-.92.11.08.5.9,11.61-4.05,4.23,1.59h-.01Zm9.45-4.13h.08l-.02-.04h-.05v.04h-.01Zm.14,6.71l-.08-.08-.21-.03-1.62-2.06-.54,5.12,1.82-1.38s.63-1.57.63-1.57Zm1.11-4.59l-1.25-1.22-.36.07-.1.14-1.3,1.06,2.42,3.03.1.04.49-3.13h0Z" style="fill:#2e2d2c;"></path>
  <path d="m31.99,90.1h.63v23.9h-1.15v-22.73h-.69l-5.76,19.81-5.81-19.81h-.69v22.73h-1.15v-23.9h2.73l4.9,16.83,4.87-16.83h2.12Zm-12.67,4.25l5.69,19.52,5.66-19.52v19.65h-1.15v-11.45l-3.36,11.45h-2.34l-3.36-11.45v11.45h-1.15v-19.65h0Z" style="fill:#2e2d2c;"></path>
  <path d="m36.92,91.24h-.69v22.73h-1.15v-23.9h2.6l5.93,14.46v-14.46h1.19v20.4l-7.87-19.23h-.01Zm8.62-1.17h1.19v23.9h-2.63l-5.93-14.46v14.46h-1.15v-20.4l7.87,19.23h.66v-22.73h-.01Z" style="fill:#2e2d2c;"></path>
  <path d="m50.26,114h-1.15v-8.66h-.03l.03-.06v-15.18h1.15s0,23.9,0,23.9Zm.79-23.9h1.15v10.44l6.22-10.44h1.35l-8.72,14.3v-14.3Zm2.37,11.87l6.25,12.03h-1.32l-4.97-9.79-1.19,1.98v7.82h-1.15v-8.17l2.37-3.86h.01Zm7.28-11.87h1.45l-6.88,11.19,6.65,12.71h-1.32l-6.72-12.78,6.81-11.12h0Z" style="fill:#2e2d2c;"></path>
  <path d="m69.87,114.04h-1.12v-11.54l-5.93-12.36h1.32l5.73,12.06v11.84Zm.39-12.74l-5.23-11.16h1.35l3.92,8.79,3.95-8.79h1.25l-5.23,11.16h-.01Zm6.12-11.16h1.42l-5.96,12.36v11.54h-1.22v-11.84s5.76-12.06,5.76-12.06Z" style="fill:#2e2d2c;"></path>
  <path d="m88.93,102.46v11.54h-1.15v-23.9h1.15v12.36Zm.79-12.36h1.15v10.44h4.67v-10.44h1.19v11.58h-7.01v-11.58Zm7.01,23.9h-1.19v-10.41h-4.67v10.41h-1.15v-11.54h7.01s0,11.54,0,11.54Zm.76-23.9h1.18v23.9h-1.18v-23.9Z" style="fill:#2e2d2c;"></path>
  <path d="m101.25,96.98c0-4.05,2.34-6.84,5.79-6.84,2.37,0,3.69,1.01,4.38,1.88.95,1.2,1.41,2.85,1.41,4.96v1.52h-1.18v-1.52c0-1.91-.39-3.31-1.15-4.22-.76-.97-1.91-1.46-3.46-1.46s-2.67.55-3.49,1.69c-.76,1-1.15,2.33-1.15,3.99,0,3.76,2.96,4.99,4.21,5.51l.56.26c1.12.42,3.72,1.46,3.72,4.67,0,2.98-1.45,4.7-3.85,4.7-1.28,0-2.24-.39-2.86-1.13-.66-.81-.99-2.04-.99-3.73v-1.52h1.15v1.52c0,1.39.26,2.4.76,3.02.23.29.72.71,1.94.71,2.37,0,2.67-2.24,2.67-3.57,0-2.24-1.55-2.98-2.96-3.6l-.59-.26c-1.08-.41-2.08-1.01-2.93-1.78-.65-.62-1.16-1.37-1.5-2.19-.34-.83-.5-1.71-.47-2.61h-.01Zm11.59,10.44c0,1.85-.46,3.37-1.38,4.57-1.09,1.36-2.53,2.04-4.41,2.04s-3.39-.62-4.38-1.85c-.95-1.13-1.42-2.79-1.42-4.93v-1.52h1.15v1.52c0,1.85.39,3.28,1.15,4.22.79.94,1.94,1.43,3.49,1.43,1.45,0,2.67-.55,3.46-1.62.76-.94,1.15-2.3,1.15-3.86,0-3.73-3.03-4.96-4.18-5.38l-.53-.23c-1.22-.52-3.75-1.65-3.75-4.83,0-2.24,1.02-4.93,3.85-4.93,1.28,0,2.24.39,2.86,1.17.66.81.99,2.08.99,3.76v1.52h-1.18v-1.52c0-3.76-1.75-3.76-2.67-3.76-2.5,0-2.7,2.85-2.7,3.76,0,2.2,1.51,3.18,3.06,3.76l.53.23c1.06.37,2.03.94,2.86,1.69.67.6,1.2,1.34,1.55,2.16.35.82.52,1.71.49,2.6h0Z" style="fill:#2e2d2c;"></path>
  <path d="m115.47,112.9h8.89v1.13h-10.04v-23.9h10.04v1.17h-8.89v21.6h0Zm8.89-19.68h-6.95v7.33h6.95v1.17h-8.1v-9.66h8.1v1.17h0Zm0,10.41h-6.95v7.36h6.95v1.13h-8.1v-9.66h8.1v1.17Z" style="fill:#2e2d2c;"></path>
</svg>
