<?xml version="1.0" encoding="UTF-8"?>
<svg xmlns="http://www.w3.org/2000/svg" id="Layer_1" viewBox="0 0 141.73 141.73">
  <path d="m28.56,61.68c-.04.09-.07.18-.11.26-.78,1.63-1.46,3.3-1.96,5.04-.52,1.83-.85,3.69-.79,5.61.05,1.68.38,3.29,1.14,4.79.97,1.92,2.45,3.33,4.34,4.31,1.34.7,2.77,1.11,4.27,1.32,2.42.33,4.8.12,7.14-.52,3.4-.92,6.79-1.84,10.19-2.76,4.12-1.12,8.24-2.23,12.36-3.35,3.91-1.06,7.81-2.12,11.72-3.18,1.33-.36,2.66-.72,3.98-1.08.06-.02.12-.04.18-.1h-10.22c-.11-4.24-.22-8.46-.33-12.68-.02,0-.04,0-.06-.01-1.6,4.23-3.21,8.46-4.82,12.69h-7.27c3.81-10.26,7.62-20.49,11.42-30.73h7.35c-.36,1.02-.75,2-1.13,2.99-.38,1.01-.77,2.01-1.15,3.02-.38.99-.76,1.99-1.13,2.98.02.01.04.02.06.03.07-.08.14-.16.21-.24,2.36-2.86,4.71-5.71,7.06-8.57.14-.17.29-.23.5-.23,7.17,0,14.33,0,21.5,0,.11,0,.21,0,.37,0-.66,1.73-1.3,3.42-1.95,5.12h-7.36c-.8,2.16-1.59,4.29-2.39,6.47.81.03,1.58.01,2.34.01.76,0,1.52,0,2.28,0h2.3c-.01.24-1.87,5.27-2.11,5.72h-6.96c-.93,2.48-1.85,4.95-2.79,7.46h8.44c-.03.3-.17.53-.24.78-.08.27-.19.53-.28.79-.09.25-.18.5-.29.81.2-.05.33-.07.46-.11,2.02-.55,4.04-1.1,6.06-1.65,4.88-1.32,9.76-2.64,14.64-3.97,3.67-.99,7.33-1.99,11-2.98.15-.04.31-.08.47-.1.11-.02.22-.02.33,0,.24.05.29.22.11.38-.14.13-.3.23-.47.31-.4.19-.8.36-1.2.53-4.41,1.91-8.82,3.83-13.23,5.74-5.76,2.5-11.53,5-17.3,7.5-5.87,2.54-11.73,5.09-17.6,7.63-4.43,1.92-8.86,3.83-13.3,5.74-5.3,2.28-10.61,4.57-15.92,6.84-2.89,1.24-5.78,2.47-8.72,3.58-2.03.76-4.08,1.45-6.2,1.92-2.01.45-4.05.71-6.11.64-3.95-.14-7.4-1.51-10.31-4.19-1.48-1.36-2.36-3.07-2.73-5.04-.3-1.6-.24-3.2.03-4.8.42-2.56,1.31-4.97,2.39-7.31,1.4-3.03,3.12-5.89,4.99-8.65,2.04-3,4.25-5.86,6.59-8.64.05-.06.09-.12.14-.18l.06.04Zm59.92-19.64s-.04-.02-.05-.03c-.27.29-.54.58-.81.88-3.3,3.62-6.59,7.25-9.89,10.87-.13.15-.18.29-.18.48.06,1.94.12,3.89.18,5.83.06,1.98.12,3.97.17,5.95.04,1.22.07,2.43.11,3.65,0,.05.01.1.02.15.02,0,.03,0,.05,0,3.47-9.26,6.93-18.52,10.4-27.78Z" style="fill:#363638;"></path>
  <path d="m36.81,72.03h-7.19s-.02-.03-.02-.04c0,0-.01-.02,0-.03,3.81-10.17,7.61-20.34,11.42-30.51.02-.05.05-.11.08-.16h7.72c-.29,4.54-.58,9.05-.88,13.57.02,0,.03,0,.04,0,0,0,.02,0,.02-.02.01-.02.02-.03.03-.05,1.68-4.49,3.37-8.98,5.06-13.49h7.27c-3.84,10.25-7.68,20.48-11.52,30.73h-7.83c.28-4.46.58-8.9.83-13.36-1.7,4.45-3.36,8.91-5.03,13.36Z" style="fill:#363638;"></path>
  <path d="m57.04,72.03h-7.19s-.02-.03-.03-.04c0,0,0-.02,0-.03,0-.03,0-.06.02-.09,3.82-10.19,7.63-20.37,11.46-30.58h7.27c-3.84,10.25-7.68,20.48-11.52,30.73Z" style="fill:#363638;"></path>
</svg>
