<?xml version="1.0" encoding="UTF-8"?>
<svg xmlns="http://www.w3.org/2000/svg" id="Layer_1" viewBox="0 0 141.73 141.73">
  <g id="hilton-logo">
    <g id="Menu-2">
      <g id="white-framed-hilton">
        <path d="m135.71,48.16v45.41H6.02v-45.41h129.69Zm2.29-2.29H3.74v50h134.26v-50h0Z" style="fill:#363638;"></path>
        <g>
          <polygon points="38.99 58.7 38.99 82.11 40.82 82.34 40.82 83.69 31.75 83.69 31.75 82.34 33.66 82.11 33.66 71.46 21.99 71.46 21.99 82.11 23.82 82.34 23.82 83.69 14.82 83.69 14.82 82.34 16.65 82.11 16.65 58.7 14.82 58.47 14.82 57.12 23.82 57.12 23.82 58.47 21.99 58.7 21.99 68.68 33.66 68.68 33.66 58.7 31.75 58.47 31.75 57.12 40.82 57.12 40.82 58.47 38.99 58.7" style="fill:#363638;"></polygon>
          <path d="m52.11,58.85c0,1.8-1.22,3.08-2.9,3.08s-2.9-1.2-2.9-3,1.22-3,2.9-3,2.9,1.35,2.9,2.93h0Zm-.61,23.41l1.75.23v1.2h-8.39v-1.2l1.75-.23v-15.98l-1.75-.23v-1.2h6.71v17.41h-.08Z" style="fill:#363638;"></path>
          <polygon points="56.84 82.49 58.51 82.26 58.51 57.8 56.84 57.5 56.84 56.3 63.55 56.3 63.55 82.26 65.22 82.49 65.22 83.69 56.84 83.69 56.84 82.49" style="fill:#363638;"></polygon>
          <path d="m75.44,64.78h4.5v1.8h-4.5v11.26c0,2.93.61,3.83,3.28,3.83.99,0,1.83,0,2.67-.23v1.28c-2.44.83-4.5,1.2-6.18,1.2-3.89,0-4.73-1.73-4.73-5.03v-12.31h-3.51v-1.8h3.66v-3.9l4.88-1.43v5.33h-.08Z" style="fill:#363638;"></path>
          <path d="m97.02,74.31c0-6-1.83-8.56-4.73-8.56s-4.65,2.48-4.65,8.56,1.83,8.48,4.65,8.48c3.05,0,4.73-2.33,4.73-8.48h0Zm5.49.15c0,5.85-4.04,9.83-10.29,9.83s-9.99-2.55-9.99-9.83c0-6.08,4.04-10.13,10.29-10.13,6.25-.08,9.99,3.6,9.99,10.13h0Z" style="fill:#363638;"></path>
          <path d="m126.22,82.49v1.2h-8.39v-1.2l1.68-.23v-10.81c0-3-1.14-4.35-3.43-4.35-1.07,0-2.75.75-3.97,1.58v13.51l1.75.23v1.2h-8.46v-1.2l1.75-.23v-15.83l-1.75-.23v-1.35h6.71v2.63c2.06-1.65,4.12-3,6.94-3,3.74,0,5.41,2.18,5.41,6.45v11.41l1.75.23h0Z" style="fill:#363638;"></path>
        </g>
      </g>
    </g>
  </g>
</svg>
