<?xml version="1.0" encoding="UTF-8"?>
<svg xmlns="http://www.w3.org/2000/svg" id="Layer_1" viewBox="0 0 141.73 141.73">
  <polygon points="41.69 99.39 43.16 99.39 45.67 103.55 48.16 99.39 49.63 99.39 50.02 108.2 48.5 108.2 48.21 102.1 46.02 105.69 45.25 105.69 43.04 102.17 42.77 108.2 41.29 108.2 41.69 99.39" style="fill:#363638;"></polygon>
  <path d="m58.29,104.58l-1.11-3.42-1.13,3.42h2.24Zm-1.89-5.19h1.62l3.17,8.8h-1.77l-.74-2.24h-3.12l-.74,2.24h-1.65l3.22-8.8Z" style="fill:#363638;"></path>
  <path d="m67.73,103.35c.39,0,.71-.12.93-.37.22-.25.34-.54.34-.91s-.12-.69-.34-.93c-.25-.25-.54-.34-.91-.34h-1.67v2.56h1.65Zm-3.2-3.96h3.17c.52,0,.98.07,1.35.25s.66.37.89.64c.22.27.39.54.49.86s.15.61.15.89c0,.54-.12,1.06-.34,1.48s-.59.76-1.06,1.03l1.94,3.69h-1.8l-1.7-3.47h-1.6v3.47h-1.52v-8.83h.02Z" style="fill:#363638;"></path>
  <path d="m77.89,103.35c.39,0,.71-.12.93-.37.22-.25.34-.54.34-.91s-.12-.69-.34-.93c-.25-.25-.54-.34-.91-.34h-1.67v2.56h1.65Zm-3.17-3.96h3.17c.52,0,.98.07,1.35.25s.66.37.89.64c.22.27.39.54.49.86s.15.61.15.89c0,.54-.12,1.06-.34,1.48s-.59.76-1.06,1.03l1.94,3.69h-1.8l-1.7-3.47h-1.57v3.47h-1.52v-8.83h0Z" style="fill:#363638;"></path>
  <rect x="85.26" y="99.39" width="1.57" height="8.8" style="fill:#363638;"></rect>
  <path d="m95.03,106.87c.42,0,.79-.07,1.13-.25s.61-.39.86-.69c.25-.3.42-.61.54-1.01.12-.37.2-.76.2-1.18s-.07-.81-.2-1.2c-.12-.37-.3-.71-.54-.98-.25-.3-.52-.52-.86-.66-.34-.17-.71-.25-1.13-.25s-.79.07-1.13.25c-.32.17-.61.39-.84.66-.25.27-.42.61-.54.98s-.2.76-.2,1.2c0,.42.07.81.2,1.18s.3.71.54,1.01.52.52.84.69c.34.15.71.25,1.13.25m0,1.55c-.61,0-1.18-.12-1.72-.37-.52-.25-.98-.57-1.38-.98s-.71-.91-.93-1.48-.34-1.16-.34-1.82.12-1.25.34-1.82.54-1.06.93-1.48c.39-.42.84-.74,1.38-.98s1.11-.37,1.72-.37,1.18.12,1.72.37c.52.25.98.57,1.38.98s.71.91.93,1.48.34,1.16.34,1.82-.12,1.25-.34,1.82-.54,1.06-.93,1.48c-.39.42-.86.76-1.38.98-.54.25-1.11.37-1.72.37" style="fill:#363638;"></path>
  <polygon points="104.3 100.84 101.47 100.84 101.47 99.39 108.72 99.39 108.72 100.84 105.9 100.84 105.9 108.2 104.3 108.2 104.3 100.84" style="fill:#363638;"></polygon>
  <polygon points="114.26 100.84 111.41 100.84 111.41 99.39 118.68 99.39 118.68 100.84 115.83 100.84 115.83 108.2 114.26 108.2 114.26 100.84" style="fill:#363638;"></polygon>
  <path d="m84.13,90.59h14.14l-23.66-56.36-11.88,5.75,8.26,19.62-3.84,9.12-14.8-35.41-12,5.48,9.64,22.62-.05.1c-5.95,14.29-13.23,18.2-13.94,18.47-1.7.69-3.52,1.08-5.43,1.08-.59,0-1.16-.02-1.72-.1l-5.8,12.44c1.92,1.11,4.08,1.75,6.37,1.75,2.9,0,5.56-1.01,7.77-2.68l-.02.05s5.48-2.78,11.36-18c0-.02,2.16-4.87,3.32-7.97l.12-.34,10.33,24.39h14.12l-7.28-17.16,3.86-9.12,11.14,26.26Z" style="fill:#646468;"></path>
</svg>
