<?xml version="1.0" encoding="UTF-8"?>
<svg xmlns="http://www.w3.org/2000/svg" id="Layer_1" viewBox="0 0 141.73 141.73">
  <path d="m30.42,81c-.17-1.13-.32-2.22-.49-3.34h-2.82c-.15,1.12-.31,2.22-.46,3.34h-4.39c1.27-6.76,2.56-13.5,3.84-20.27h4.96c1.2,6.49,2.39,12.98,3.58,19.46.09-1.6.09-3.2.09-4.81,0-1.64,0-3.27,0-4.91v-9.75h4.73v15.96c1.53,0,3.01,0,4.53,0v4.31h-13.57Zm-1.82-15.62s-.07,0-.1-.01c-.31,2.61-.61,5.22-.92,7.85h1.89c-.29-2.64-.58-5.24-.87-7.84Z" style="fill:#363638;"></path>
  <path d="m118.31,80.21v-19.42c.36-.1,3.93-.14,4.7-.04,0,.64,0,1.29,0,1.94,0,.67,0,1.35,0,2.02v11.97h4.54v4.32h-13.56c-.16-1.1-.32-2.2-.49-3.33h-2.82c-.15,1.11-.31,2.21-.46,3.33h-4.4c1.28-6.76,2.56-13.5,3.84-20.26h4.96c1.2,6.49,2.39,12.99,3.59,19.48.03,0,.06,0,.09-.01Zm-5.26-6.98c-.3-2.67-.59-5.3-.88-7.92-.03,0-.06,0-.08,0-.31,2.63-.62,5.26-.93,7.92h1.9Z" style="fill:#363638;"></path>
  <path d="m94.68,80.99v-20.24c.09-.02.16-.04.23-.04,2.11,0,4.22,0,6.33.04.62.01,1.25.13,1.85.3,1.45.4,2.37,1.35,2.7,2.83.26,1.16.29,2.34.02,3.5-.34,1.45-1.18,2.46-2.67,2.85-.06.01-.11.05-.24.11.16.03.24.05.33.07,1.47.33,2.42,1.24,2.9,2.65.36,1.07.34,2.17.22,3.27-.06.53-.17,1.06-.32,1.57-.41,1.31-1.28,2.2-2.57,2.68-.71.27-1.45.43-2.19.44-2.12.03-4.25.02-6.38.02-.06,0-.11-.02-.2-.04Zm4.57-3.45c.31,0,.57.02.83,0,.19-.02.39-.08.56-.18.34-.19.51-.52.61-.88.27-1.02.27-2.06.04-3.08-.22-.98-1.05-1.4-2.04-1.07v5.21Zm0-8.89c.24,0,.43,0,.63,0,.77-.01,1.14-.33,1.27-1.1.11-.64.13-1.28.02-1.91-.05-.27-.11-.54-.21-.79-.12-.32-.37-.55-.71-.59-.32-.04-.66,0-1,0v4.4Z" style="fill:#363638;"></path>
  <path d="m94.16,70.92c-.08,1.56-.15,3.11-.26,4.67-.06.9-.25,1.78-.53,2.64-.54,1.64-1.66,2.6-3.37,2.85-1.22.18-2.44.18-3.65-.06-1.4-.28-2.36-1.08-2.89-2.41-.38-.96-.56-1.97-.65-2.99-.27-2.85-.24-5.71-.08-8.57.07-1.2.21-2.41.62-3.56.15-.41.34-.82.57-1.19.58-.94,1.49-1.43,2.55-1.62,1.3-.23,2.62-.24,3.92.05,1.24.27,2.14.99,2.69,2.14.4.84.6,1.73.73,2.64.26,1.79.29,3.59.34,5.4Zm-4.74-.01c-.03-1.59-.05-3.18-.1-4.76-.01-.41-.08-.82-.18-1.22-.12-.47-.39-.66-.82-.65-.42,0-.67.21-.8.68-.07.26-.12.54-.13.81-.04,1.18-.08,2.35-.08,3.53,0,1.92,0,3.85.02,5.77,0,.59.09,1.19.21,1.77.09.46.36.61.79.61.43,0,.68-.16.8-.61.1-.4.18-.81.19-1.22.05-1.57.07-3.15.1-4.72Z" style="fill:#363638;"></path>
  <path d="m48.87,81h-4.4v-20.23c.36-.09,3.84-.11,4.38-.02v6.08c.3-.34.37-.75.51-1.14.15-.42.28-.84.42-1.26.14-.41.27-.81.41-1.22.14-.42.28-.84.42-1.26.14-.4.27-.81.42-1.23h4.92c-.08.2-.14.35-.21.5-1.14,2.54-2.28,5.08-3.43,7.61-.14.3-.16.55-.04.87,1.31,3.6,2.6,7.21,3.9,10.82.05.14.09.29.15.47h-5.01c-.6-2.22-1.21-4.45-1.84-6.77-.35.69-.65,1.26-.62,1.98.05,1.42.02,2.84.02,4.27v.53Z" style="fill:#363638;"></path>
  <path d="m72.5,67.77h-4.21c-.01-.18-.02-.36-.03-.54-.04-.76-.08-1.52-.14-2.28-.01-.16-.08-.33-.15-.48-.23-.45-.77-.46-1.02-.01-.11.21-.19.46-.21.7-.08.97-.16,1.95-.17,2.93-.02,1.94,0,3.88.02,5.83.01.76.08,1.53.16,2.29.03.28.12.57.21.84.08.25.27.4.55.42.31.01.56-.09.68-.37.13-.31.23-.64.27-.96.07-.6.08-1.21.12-1.87-.38-.02-.71-.04-1.06-.05v-4.01h5.08v10.84c-.87,0-1.74,0-2.67,0v-1.22c-.08.03-.12.03-.13.05-.55.89-1.41,1.22-2.4,1.32-.81.08-1.62.05-2.41-.17-1.03-.28-1.79-.89-2.28-1.85-.44-.86-.62-1.78-.73-2.73-.24-2.09-.19-4.18-.18-6.28,0-1.15.04-2.29.1-3.44.05-.93.17-1.86.44-2.75.1-.32.22-.64.35-.94.55-1.21,1.49-1.96,2.77-2.27,1.19-.29,2.4-.3,3.59-.06,1.74.35,2.79,1.43,3.19,3.15.29,1.28.28,2.58.26,3.94Z" style="fill:#363638;"></path>
  <path d="m73.39,60.73h4.66c0,.77,0,1.53,0,2.28,0,.75,0,1.5,0,2.25v9.08c0,.76,0,1.52,0,2.34h4.54v4.32h-9.17c-.09-.34-.12-19.41-.03-20.27Z" style="fill:#363638;"></path>
  <path d="m21.27,81.01h-4.17c-.07-.51-.02-1.03-.03-1.54,0-.52,0-1.04,0-1.56v-10.92c0-.52,0-1.03,0-1.6h-2.89c0-1.57,0-3.09,0-4.6.35-.12,9.19-.16,9.91-.06.09.33.12,3.71.04,4.63-.93.05-1.87,0-2.85.04v15.61Z" style="fill:#363638;"></path>
  <path d="m56.8,80.99v-5.44h4.49v5.4c-.3.09-3.71.13-4.49.04Z" style="fill:#363638;"></path>
</svg>
