<?xml version="1.0" encoding="UTF-8"?>
<svg xmlns="http://www.w3.org/2000/svg" id="Layer_1" viewBox="0 0 141.73 141.73">
  <path d="m35.96,53.2c.41-1.02.97-1.97,1.54-2.91,5.58-9.1,13.51-15.1,23.79-17.97,4.07-1.14,8.23-1.55,12.45-1.32,9.07.49,17.03,3.77,23.96,9.61.29.24.32.36.03.65-3.66,3.64-7.32,7.29-10.96,10.96-.26.26-.4.28-.7.05-3.35-2.65-7.15-4.25-11.39-4.8-10.95-1.43-21.5,5.07-25.18,15.49-.06.16-.13.32-.2.48-3.94-.82-9.88-2.24-9.88-2.24,0,0-2.37-5.28-3.49-8Z" style="fill:#4f4f4f;"></path>
  <path d="m49.33,78.26c-1.67,2.94-5,8.55-5,8.55,0,0-8.25,1.6-8.38,1.69-.57-.98-.98-2.03-1.39-3.08-1.49-3.84-2.37-7.81-2.62-11.92-.44-6.99.81-13.65,3.83-19.97.05-.11.08-.25.2-.33,4.46,3.41,8.91,6.82,13.37,10.23-.39,1.38-.74,2.76-.94,4.19-.48,3.5-.18,6.93.84,10.3.03.11.06.22.1.33Z" style="fill:#646468;"></path>
  <path d="m49.33,78.26c.99,2.91,2.44,5.57,4.45,7.9,3.74,4.33,8.42,7.02,14.07,7.96,4.51.75,8.92.29,13.23-1.22,1.4-.49,2.71-1.17,3.97-1.93.05.05,9.83,2.77,9.83,2.77,0,0,1.47,3.56,2.85,7.11-1.38,1.36-2.92,2.52-4.52,3.59-4.71,3.13-9.87,5.07-15.46,5.9-6.67.99-13.2.42-19.53-1.89-9.92-3.62-17.28-10.19-22.13-19.57-.06-.11-.09-.24-.14-.36.13-.09.26-.19.38-.28,4.33-3.32,8.66-6.64,13-9.96Z" style="fill:#363638;"></path>
  <path d="m97.73,100.83c-1.73-1.34-3.45-2.69-5.18-4.03-2.45-1.9-4.9-3.8-7.34-5.7-.06-.04-.1-.1-.15-.15,1.08-.76,2.14-1.54,3.08-2.47,2.54-2.53,4.12-5.59,4.93-9.07.1-.42-.15-.37-.4-.37-6.79,0-13.58,0-20.37.01-.47,0-.56-.14-.56-.57.02-4.79.02-9.58,0-14.36,0-.42.07-.56.53-.56,12.06.02,24.11.01,36.17,0,.35,0,.52.06.61.46.54,2.53.87,5.08.81,7.67-.13,5.9-1.16,11.61-3.54,17.04-1.98,4.52-4.74,8.49-8.32,11.89-.08.08-.18.14-.27.2Z" style="fill:#161616;"></path>
</svg>
