<?xml version="1.0" encoding="UTF-8"?>
<svg xmlns="http://www.w3.org/2000/svg" id="Layer_1" viewBox="0 0 141.73 141.73">
  <path d="m28.32,84.35c-.85,0-1.7,0-2.55,0-.05,0-.1,0-.15,0-.26-.01-.31-.05-.33-.32-.04-.45-.08-.9-.11-1.34-.07-1.03-.12-2.05-.19-3.08-.02-.25.06-.4.27-.55.71-.49,1.13-1.17,1.24-2.04.08-.67.03-1.34.05-2.01.03-1.33.07-2.66.11-3.99.03-.99.06-1.98.09-2.97,0-.06,0-.12,0-.18,0-.32-.14-.46-.45-.47-.29-.01-.44.13-.46.46-.05.84-.1,1.68-.15,2.51-.06,1.1-.12,2.2-.09,3.3,0,.2-.02.4-.1.59-.11.25-.29.37-.56.37-.29,0-.51-.09-.64-.36-.08-.16-.09-.32-.09-.5,0-.79.03-1.58.05-2.37.04-1.18.07-2.36.17-3.53.02-.28-.16-.5-.43-.51-.25-.01-.44.16-.46.44-.08,1-.14,1.99-.2,2.99-.05.96-.06,1.92-.06,2.88,0,.17-.01.34-.07.5-.11.32-.31.45-.66.44-.31,0-.53-.18-.62-.47-.06-.2-.07-.42-.05-.62.05-.54.03-1.08.06-1.62.05-1.2.1-2.4.15-3.59,0-.1,0-.2.01-.3.06-.32-.16-.56-.43-.56-.29,0-.46.17-.48.52-.02.52-.05,1.04-.07,1.56-.05,1.45-.12,2.9-.15,4.34-.02.94-.07,1.88-.01,2.82.03.58.2,1.12.5,1.62.21.36.49.66.85.87.21.12.3.28.32.53.06,1.17.13,2.33.2,3.5.02.31.06.62.09.92.02.26-.03.32-.29.33-1.17.03-2.34.07-3.51.1-.48.01-.8-.26-.86-.74-.21-1.71-.38-3.41-.5-5.13-.13-1.94-.19-3.87-.18-5.81,0-.07,0-.14,0-.21,0-.42-.19-.63-.61-.67-.59-.05-1.17-.11-1.76-.2-.12-.02-.24-.03-.35-.06-.6-.12-.86-.68-.55-1.21.29-.5.59-1,.91-1.48,1.76-2.74,3.84-5.21,6.23-7.42,1.69-1.56,3.5-2.95,5.44-4.17.59-.37,1.19-.36,1.78,0,1.27.8,2.49,1.67,3.65,2.62.12.1.24.26.41.18.19-.08.1-.28.1-.43,0-.37,0-.74.07-1.11.06-.4.31-.62.72-.61.81.02,1.62.09,2.42.19.46.06.76.37.83.83.24,1.6.48,3.2.67,4.81.02.19.05.38.06.57.03.36.16.68.33.99.21.38.46.73.72,1.07.9,1.17,1.72,2.38,2.5,3.62.14.22.26.45.29.72.04.48-.17.76-.65.83-.35.05-.69.08-1.04.12-.39.04-.77.08-1.16.13-.35.04-.51.22-.52.58-.03.98-.04,1.96-.08,2.94-.05,1.33-.11,2.66-.2,3.98-.07.99-.14,1.97-.26,2.96-.05.38-.08.75-.17,1.12-.06.23-.14.46-.28.66-.14.2-.33.31-.59.3-.82-.02-1.64-.06-2.46-.06-.2,0-.27-.09-.25-.29.05-.71.12-1.41.17-2.12.05-.7.11-1.39.15-2.09.06-1.02.12-2.03.17-3.05.04-1.05.08-2.1.09-3.15.01-1.15.02-2.3-.02-3.45-.03-1.03-.09-2.06-.23-3.08-.02-.17-.08-.33-.17-.48-.2-.33-.56-.44-.91-.29-.23.1-.39.27-.53.47-1.56,2.23-2.58,4.68-3.03,7.36-.21,1.28-.27,2.56-.22,3.85,0,.27.05.54.11.8.05.23.18.37.38.46.2.09.42.13.64.16.36.05.71.09,1.07.14.28.04.33.08.31.36-.04.59-.09,1.18-.14,1.76-.05.59-.1,1.17-.15,1.76-.01.14-.02.28-.05.42-.05.29-.09.33-.39.33-.67,0-1.34,0-2.01,0-.23,0-.46,0-.69,0,0,0,0,0,0,0Z" style="fill:#363638;"></path>
  <path d="m112.12,67.8c.51,0,1.02-.03,1.53.03.59.07.83.26.97.84.17.72.27,1.45.41,2.18.27,1.52.54,3.05.81,4.57.27,1.51.54,3.03.8,4.54.04.24.08.49.03.74-.05.24-.18.38-.42.45-.29.09-.6.07-.89.08-.38.02-.76,0-1.14-.02-.42-.04-.58-.18-.69-.58-.12-.47-.16-.96-.24-1.45-.04-.3-.09-.59-.12-.89-.01-.13-.07-.18-.19-.17-.04,0-.08,0-.12,0-1.43,0-2.86,0-4.29,0-.21,0-.31.07-.4.26-.28.66-.58,1.32-.87,1.97-.02.05-.05.11-.07.16-.21.48-.56.71-1.1.72-.53,0-1.06,0-1.59-.02-.16,0-.32-.04-.47-.1-.21-.09-.29-.22-.25-.45.03-.19.09-.37.18-.54.49-1.04.99-2.07,1.48-3.11,1.02-2.14,2.04-4.27,3.07-6.4.29-.6.6-1.2.87-1.81.29-.67.77-1.02,1.51-1,.4,0,.8,0,1.2,0Zm.61,7.59s.01-.07,0-.1c-.14-.99-.28-1.98-.41-2.96-.06-.42-.12-.85-.18-1.27-.03-.21-.09-.24-.3-.25-.22,0-.28.14-.36.3-.51,1.14-1.03,2.27-1.54,3.41-.13.29-.28.57-.38.88h3.16Z" style="fill:#363638;"></path>
  <path d="m97.02,78.36c.12.06.23.03.34.03,1.62,0,3.24,0,4.86,0,.17,0,.34,0,.51.04.23.07.3.14.31.38.01.25-.03.5-.08.74-.06.34-.12.69-.19,1.03-.1.48-.28.62-.77.62-1.27,0-2.54,0-3.81,0-1.12,0-2.24,0-3.36,0-.2,0-.4-.02-.6-.06-.38-.07-.55-.27-.57-.65-.02-.46.07-.92.15-1.37.29-1.71.58-3.43.88-5.14.29-1.71.59-3.42.89-5.14.02-.1.05-.19.07-.29.12-.47.44-.69.91-.73.45-.04.9-.04,1.35-.04,2.04,0,4.08,0,6.12,0,.14,0,.28.01.42.03.23.04.31.13.32.36.01.21-.02.42-.06.63-.08.42-.13.85-.24,1.26-.12.44-.26.56-.72.57-.37.01-.74.01-1.11.01-1.32,0-2.64,0-3.96,0-.06,0-.12,0-.18,0-.15-.01-.21.04-.23.19-.09.6-.19,1.2-.29,1.8,0,.04-.01.08-.02.12q-.06.32.28.32c1.23,0,2.46,0,3.69,0,.25,0,.5-.01.75.06.27.07.36.17.36.44,0,.61-.1,1.21-.26,1.8-.06.22-.22.36-.45.39-.12.02-.24.02-.36.02-1.4,0-2.8,0-4.2,0-.06,0-.12,0-.18,0-.14-.01-.19.04-.21.18-.05.38-.12.75-.17,1.13-.06.41-.12.83-.18,1.24Z" style="fill:#363638;"></path>
  <path d="m54.78,76.6c.01-.88.22-1.72.36-2.58.26-1.61.54-3.21.81-4.82.05-.29.09-.57.17-.85.08-.27.24-.43.52-.47.12-.02.24-.04.36-.04.46,0,.92,0,1.38,0,.06,0,.12,0,.18,0,.48.06.6.2.59.69-.01.51-.13,1.01-.22,1.51-.29,1.73-.58,3.47-.88,5.2-.06.33-.11.67-.15,1.01-.03.33,0,.66.1.98.16.55.53.92,1.07,1.09.62.2,1.26.2,1.89.04.57-.14.97-.5,1.24-1.01.26-.49.38-1.03.47-1.57.39-2.32.77-4.65,1.16-6.98.03-.18.07-.35.12-.52.07-.22.21-.36.45-.39.12-.02.24-.05.36-.05.48,0,.96-.01,1.44,0,.65.02.84.23.78.88-.08.9-.27,1.78-.42,2.66-.27,1.61-.54,3.21-.82,4.81-.15.85-.37,1.68-.76,2.45-.64,1.29-1.66,2.13-3.06,2.49-1.13.29-2.27.35-3.42.13-2.02-.38-3.42-1.87-3.68-3.9-.03-.26-.03-.52-.05-.78Z" style="fill:#363638;"></path>
  <path d="m71.15,81.32c-1.29-.03-2.58-.1-3.85-.33-.46-.08-.57-.24-.53-.71.06-.55.15-1.09.29-1.62.11-.41.26-.53.69-.5.51.03,1.01.1,1.52.14,1.11.08,2.22.15,3.32.04.39-.04.76-.16,1.08-.4.54-.4.52-1.02-.03-1.39-.26-.17-.55-.28-.85-.37-.82-.27-1.64-.49-2.43-.84-.4-.18-.8-.37-1.16-.63-.92-.64-1.39-1.52-1.37-2.65.02-1.31.5-2.41,1.56-3.23.56-.43,1.2-.71,1.88-.89.87-.22,1.76-.25,2.65-.22.89.03,1.78.05,2.66.15.05,0,.1,0,.15.02.53.1.73.29.7.85-.02.43-.11.85-.24,1.26-.19.62-.44.8-1.08.75-.81-.06-1.62-.11-2.42-.14-.6-.02-1.2-.06-1.79.09-.26.07-.51.17-.71.37-.32.33-.33.8-.02,1.13.14.15.3.26.48.35.37.19.76.31,1.15.43.82.24,1.62.5,2.37.91.42.23.8.49,1.13.84.78.81.99,1.8.85,2.88-.22,1.79-1.31,2.83-2.96,3.36-.85.27-1.72.32-2.61.34-.15,0-.3,0-.45,0Z" style="fill:#363638;"></path>
  <path d="m120.3,70.74c-.11-.05-.23-.02-.33-.02-.88,0-1.76,0-2.64,0-.62,0-.75-.14-.66-.76.06-.46.15-.93.23-1.39.02-.12.06-.23.11-.34.07-.18.2-.29.39-.34.14-.04.28-.04.42-.04,3.03,0,6.06,0,9.09,0,.1,0,.2,0,.3.03.3.05.38.15.36.45-.02.25-.06.5-.1.74-.06.36-.13.73-.21,1.09-.11.43-.28.56-.72.57-.88,0-1.76,0-2.64,0-.09,0-.18,0-.27,0q-.25,0-.29.26c-.08.44-.15.89-.23,1.33-.23,1.34-.45,2.68-.68,4.02-.24,1.39-.47,2.78-.71,4.16,0,.05-.01.1-.03.15-.12.48-.27.61-.76.65-.55.05-1.1.04-1.65,0-.56-.04-.65-.31-.6-.76.04-.4.11-.79.18-1.18.31-1.81.62-3.62.94-5.43.17-.97.34-1.95.51-2.92.02-.09.04-.17.02-.26Z" style="fill:#363638;"></path>
  <path d="m82.2,70.75c-.12-.06-.23-.03-.34-.03-.87,0-1.74,0-2.61,0-.67,0-.8-.14-.7-.81.06-.45.14-.91.24-1.36.11-.55.3-.7.87-.71,1.17,0,2.34,0,3.51,0,1.83,0,3.66,0,5.49,0,.13,0,.26,0,.39.03.31.05.42.18.39.49-.02.24-.06.48-.1.71-.06.35-.12.71-.21,1.06-.11.45-.28.58-.74.58-.93,0-1.86,0-2.79,0-.35,0-.35,0-.41.34-.41,2.42-.82,4.84-1.24,7.27-.12.73-.25,1.46-.37,2.19-.02.1-.04.19-.07.29-.08.29-.28.45-.58.48-.63.06-1.26.07-1.89,0-.35-.04-.49-.2-.5-.55,0-.33.06-.66.11-.98.45-2.59.9-5.18,1.35-7.76.07-.41.14-.83.2-1.23Z" style="fill:#363638;"></path>
  <path d="m50.95,70.66c-.35,0-.68,0-1.01,0-.44,0-.88,0-1.32,0-.13,0-.26,0-.39-.02-.34-.05-.45-.18-.43-.53,0-.12.02-.24.04-.36.08-.43.15-.87.25-1.29.11-.47.29-.62.78-.62,1.61,0,3.22,0,4.83,0,.04,0,.08,0,.12,0,.46.05.59.19.57.66-.02.66-.17,1.31-.28,1.96-.25,1.45-.49,2.89-.75,4.34-.23,1.27-.39,2.55-.72,3.8-.33,1.22-.84,2.35-1.73,3.27-1.02,1.05-2.25,1.71-3.71,1.9-.23.03-.42-.03-.55-.23-.34-.55-.63-1.11-.72-1.76-.05-.31.03-.44.3-.58.13-.07.28-.11.42-.16.42-.13.83-.29,1.21-.5.98-.53,1.55-1.37,1.77-2.44.2-.98.36-1.96.54-2.95.26-1.46.51-2.93.77-4.4,0-.02,0-.04,0-.1Z" style="fill:#363638;"></path>
</svg>
