<?xml version="1.0" encoding="UTF-8"?>
<svg xmlns="http://www.w3.org/2000/svg" id="Layer_1" viewBox="0 0 141.73 141.73">
  <path d="m83.79,59.36c-.95,2.71-1.89,5.37-2.82,8.02-.83,2.36-1.66,4.73-2.49,7.09-.06.17-.13.25-.33.24-.43-.02-.43,0-.57-.42-2.28-6.39-4.55-12.78-6.83-19.17-.31-.87-.65-1.73-.96-2.61-.41-1.15-1.22-1.7-2.42-1.74-.11,0-.21-.02-.32-.03,0,0-.02,0-.04-.02v-.62h8.83v.63c-.27.02-.54.02-.8.05-.71.06-1.31.47-1.43,1.07-.06.31-.05.67.04.97.4,1.31.81,2.62,1.26,3.92,1.33,3.83,2.69,7.65,4.03,11.47.03.08.06.17.11.3.27-.77.52-1.48.77-2.2,1.04-2.98,2.08-5.97,3.12-8.95.06-.18.06-.34,0-.52-.41-1.11-.78-2.23-1.22-3.33-.22-.55-.48-1.1-.82-1.58-.48-.69-1.18-1.09-2.05-1.15-.13,0-.26-.02-.4-.03-.02,0-.03-.01-.06-.02v-.63h9.31v.67c-.31,0-.62-.02-.93,0-1.23.1-1.78.85-1.56,2.07.23,1.26.69,2.45,1.12,3.65,1.39,3.95,2.78,7.89,4.18,11.84.01.04.03.07.06.16.05-.13.09-.22.13-.31,1.48-4.29,2.96-8.57,4.43-12.86.28-.81.51-1.64.7-2.48.29-1.22-.37-1.84-1.49-2.01-.35-.05-.71-.07-1.08-.1v-.63h7.17v.63c-.23.03-.48.05-.72.08-.63.09-1.11.42-1.5.92-.56.7-.84,1.53-1.13,2.36-2.06,5.97-4.11,11.95-6.17,17.93-.28.82-.57,1.64-.85,2.46-.02.07-.05.14-.07.2-.03,0-.04.01-.06.01-.67.04-.67.04-.89-.59-1.72-4.82-3.44-9.65-5.15-14.47-.03-.08-.06-.15-.11-.28Z" style="fill:#363638;"></path>
  <path d="m65.52,73.51v.64c-.08,0-.14.01-.21.01-3.62,0-7.25.01-10.87,0-2.07-.01-4.11-.29-6.05-1.05-3.25-1.28-5.39-3.62-6.44-6.91-.97-3.05-.88-6.11.25-9.11.74-1.96,1.95-3.59,3.66-4.81,1.22-.88,2.61-1.38,4.07-1.68,1.74-.36,3.49-.48,5.26-.49,3.37-.02,6.73,0,10.1,0,.07,0,.13,0,.22,0v.7c-.45,0-.9-.04-1.34.01-.34.04-.68.14-.99.28-.64.28-.89.84-.96,1.49-.07.57-.13,1.15-.13,1.73,0,5.17-.01,10.35,0,15.52,0,.62.05,1.24.13,1.86.14,1.06.88,1.73,1.96,1.8.36.02.71.02,1.07.03.09,0,.18,0,.28.01Zm-6.86-1.13c0-.31,0-.59,0-.87,0-6.42,0-12.83,0-19.25,0-.25-.09-.34-.31-.37-.97-.14-1.94-.33-2.92-.41-1.45-.11-2.86.11-4.2.68-2.66,1.12-4.37,3.13-5.25,5.85-.69,2.14-.75,4.33-.41,6.53.32,2.14,1.16,4.02,2.68,5.59,1.72,1.77,3.83,2.69,6.29,2.74.87.02,1.75-.11,2.62-.21.5-.06.99-.18,1.49-.28Z" style="fill:#363638;"></path>
  <path d="m64.37,85.84c.52-1.5,1.01-2.94,1.53-4.37.12-.34.14-.64,0-.97-.19-.42-.32-.87-.5-1.3-.23-.58-.65-.93-1.31-.95,0-.04-.02-.08-.02-.12,0-.04,0-.08.01-.14h3.99c0,.08,0,.16.01.25-.15,0-.29,0-.43.03-.53.08-.76.39-.63.91.15.58.34,1.16.53,1.73.54,1.55,1.09,3.09,1.63,4.63.03.08.07.17.12.3.17-.49.33-.94.48-1.39.55-1.6,1.1-3.21,1.65-4.81.07-.21.11-.43.13-.65.03-.29-.13-.52-.41-.61-.22-.07-.45-.1-.69-.14v-.24h3.06v.23s-.03.03-.04.03c-.69.02-1.03.46-1.24,1.04-.38,1.07-.75,2.15-1.12,3.23-.66,1.91-1.31,3.82-1.97,5.72-.04.13-.04.29-.27.29-.21,0-.21-.16-.25-.28-.72-2.01-1.43-4.02-2.15-6.03-.02-.06-.05-.12-.09-.25-.06.18-.11.3-.16.43-.69,1.97-1.38,3.93-2.07,5.9-.04.11-.05.22-.21.23-.18,0-.2-.11-.24-.22-1.05-2.94-2.09-5.87-3.14-8.81-.03-.09-.07-.17-.09-.26-.18-.63-.57-1-1.27-.97v-.27h3.78v.25c-.15.02-.29.03-.42.06-.44.09-.65.39-.52.81.22.73.46,1.45.71,2.17.5,1.44,1.01,2.87,1.51,4.31.02.07.05.13.11.26Z" style="fill:#363638;"></path>
  <path d="m14.17,88.28v-.29c.15,0,.3,0,.44,0,.58-.01.91-.3.98-.87.03-.2.04-.41.04-.62,0-2.29,0-4.58,0-6.86,0-.21-.02-.41-.05-.62-.09-.5-.4-.75-.97-.77-.14,0-.28,0-.43,0v-.27c.06,0,.12-.02.17-.02,1.68,0,3.37,0,5.05.04.77.02,1.54.12,2.26.41,1.62.64,2.46,1.9,2.78,3.54.21,1.04.15,2.08-.22,3.09-.61,1.68-1.83,2.68-3.56,3.05-.56.12-1.15.19-1.72.2-1.52.03-3.05,0-4.58,0-.06,0-.11,0-.19-.01Zm2.94-5.14c0,1.38,0,2.75,0,4.13,0,.17.03.27.23.29.35.03.69.11,1.03.14,1.74.18,3.37-.79,4.03-2.42.52-1.29.55-2.63.13-3.94-.42-1.32-1.3-2.23-2.65-2.63-.83-.25-1.67-.17-2.51,0-.2.04-.26.12-.26.33.01,1.37,0,2.74,0,4.1Z" style="fill:#363638;"></path>
  <path d="m101.83,88.23c-.13-.1-.24-.18-.35-.27-.35-.28-.41-.55-.25-.97.19-.47.57-.78.93-1.12.05-.04.1-.09.13-.11-.25-.23-.54-.41-.73-.67-1.08-1.38-.39-3.4,1.33-3.87.88-.24,1.74-.18,2.55.28.08.05.19.06.28.06.47,0,.94,0,1.42,0,.33,0,.52.34.34.62-.03.05-.14.08-.21.08-.36,0-.71,0-1.05,0,.1.33.24.66.29.99.18,1.35-.61,2.43-1.95,2.69-.54.11-1.08.09-1.63-.03-.09-.02-.24.02-.3.08-.14.14-.27.31-.37.49-.15.28-.06.53.26.59.42.08.85.11,1.28.14.68.05,1.36.06,2.03.11.69.05,1.26.35,1.51,1.03.26.68.05,1.3-.4,1.85-.62.75-1.42,1.18-2.37,1.33-1.11.18-2.21.14-3.23-.41-.19-.1-.37-.22-.53-.36-.36-.32-.43-.7-.16-1.09.31-.44.68-.85,1.02-1.28.05-.06.11-.12.17-.19Zm2.51,2.51c.27-.04.7-.07,1.12-.16.56-.13,1.02-.44,1.29-.96.24-.46.08-.85-.42-.99-.21-.06-.44-.11-.66-.12-1.07-.07-2.15-.14-3.22-.2-.07,0-.19.01-.22.06-.21.31-.43.63-.6.96-.14.28-.05.56.19.76.11.1.24.18.37.25.62.32,1.3.35,2.14.4Zm.9-6.9c-.05-.67-.16-1.29-.57-1.84-.47-.62-1.26-.68-1.82-.14-.39.38-.46.87-.46,1.37-.01.7.08,1.37.54,1.94.29.36.67.53,1.14.47.49-.07.84-.37.99-.84.1-.31.13-.64.19-.97Z" style="fill:#363638;"></path>
  <path d="m123.52,88.01v.27h-3.43v-.26c.16-.02.33-.04.49-.07.24-.05.41-.19.46-.43.05-.3.1-.61.1-.91,0-1.19,0-2.39-.02-3.58,0-.14-.02-.28-.05-.42-.07-.38-.25-.51-.63-.44-.11.02-.22.05-.36.07-.04-.08-.07-.16-.13-.28.81-.29,1.56-.72,2.44-.9v1.45c.08-.07.12-.1.15-.14.37-.42.77-.8,1.28-1.05,1.21-.6,2.41.02,2.62,1.35.05.29.07.59.07.89.01,1.15.02,2.3.03,3.46,0,.12.01.23.04.34.08.39.23.53.62.6.11.02.23.02.36.04v.27h-3.41v-.27c.15-.01.31-.02.46-.05.37-.07.62-.29.62-.67,0-1.39.03-2.79-.05-4.17-.05-.99-.79-1.37-1.69-.93-.36.18-.67.47-.99.73-.07.05-.1.19-.1.29,0,1.29,0,2.59,0,3.88,0,.61.25.86.85.89.08,0,.16,0,.25.01Z" style="fill:#363638;"></path>
  <path d="m92.46,82.24c-.04-.09-.07-.18-.11-.29.82-.26,1.55-.73,2.45-.87v1.41c.31-.29.59-.57.89-.82.33-.28.72-.48,1.16-.54,1.12-.14,1.75.46,1.98,1.52.06.29.07.59.07.89.01,1.16.02,2.32.03,3.48,0,.12,0,.23.03.35.08.39.26.55.65.61.11.02.21.02.35.03,0,.08,0,.17.01.27h-3.43c0-.08,0-.16-.02-.26.16-.02.32-.02.47-.05.37-.06.62-.29.62-.66,0-1.39.03-2.79-.05-4.17-.06-1.01-.8-1.38-1.71-.92-.35.18-.66.47-.97.72-.06.05-.1.17-.1.26,0,1.32,0,2.64,0,3.95,0,.54.24.79.77.84.11.01.21.01.33.02v.28h-3.43c0-.09,0-.17-.01-.26.17-.02.33-.04.49-.07.25-.05.43-.2.47-.45.05-.3.09-.61.09-.91,0-1.19,0-2.37-.02-3.56,0-.15-.02-.3-.05-.44-.07-.36-.26-.49-.62-.43-.11.02-.23.05-.37.08Z" style="fill:#363638;"></path>
  <path d="m32.27,88.28v-.26c.16-.02.32-.04.48-.07.25-.05.43-.2.47-.45.05-.3.09-.61.09-.91,0-1.18,0-2.35-.01-3.53,0-.15-.02-.3-.05-.44-.07-.39-.26-.51-.65-.44-.1.02-.21.04-.34.07-.04-.08-.07-.17-.13-.29.83-.27,1.56-.73,2.45-.88v1.41c.31-.29.59-.57.89-.82.33-.28.72-.48,1.16-.54,1.13-.13,1.75.45,1.98,1.52.06.27.07.56.08.84.01,1.17.02,2.34.03,3.51,0,.09,0,.18.01.27.06.46.28.67.74.72.09,0,.18.01.28.02v.27h-3.41v-.26c.17-.02.32-.02.48-.05.35-.06.6-.3.6-.65,0-1.39.03-2.79-.05-4.17-.05-1-.78-1.38-1.68-.94-.37.18-.68.49-1.01.75-.06.05-.08.16-.08.24,0,1.33,0,2.65,0,3.98,0,.51.23.76.75.81.11.01.23.01.36.02v.28h-3.43Z" style="fill:#363638;"></path>
  <path d="m29.56,87.31c-.39.28-.74.54-1.1.79-.41.28-.86.37-1.35.31-.81-.1-1.35-.72-1.43-1.54-.09-1.07.53-1.69,1.36-2.13.68-.36,1.4-.62,2.11-.93.48-.21.4-.06.39-.57,0-.29-.05-.58-.12-.86-.11-.46-.44-.7-.9-.78-.43-.07-.82.02-1.1.36-.11.14-.16.34-.19.52-.03.17,0,.35,0,.52-.02.34-.24.57-.58.6-.31.03-.59-.16-.67-.47-.13-.49.05-.9.37-1.25.31-.34.69-.55,1.14-.66.63-.15,1.27-.16,1.9-.03.97.2,1.4.72,1.42,1.71.02,1.14,0,2.27.01,3.41,0,.24,0,.48.05.72.03.14.12.31.24.36.09.04.28-.04.39-.11.18-.12.32-.27.5-.43.06.27.03.48-.17.66-.23.21-.45.44-.69.63-.12.1-.29.17-.44.21-.58.17-1.05-.15-1.11-.75,0-.08,0-.16-.02-.3Zm-.01-3.16c-.28.11-.55.2-.8.32-.4.2-.81.39-1.17.65-.49.35-.72.84-.59,1.45.13.63.74,1.23,1.58.82.28-.14.54-.32.8-.49.14-.09.19-.2.19-.37,0-.72,0-1.44,0-2.16,0-.06,0-.13-.01-.22Z" style="fill:#363638;"></path>
  <path d="m112.65,84.84c.02-1.03.35-1.96,1.04-2.72,1.43-1.57,4.04-1.28,5.14.55.96,1.59.62,3.87-.78,5.09-1.28,1.11-4,1.25-5.09-1.34-.21-.51-.31-1-.31-1.57Zm5.33.5c-.04-.47-.05-.81-.1-1.14-.12-.8-.37-1.55-.97-2.13-.46-.44-1-.56-1.6-.36-.64.22-.97.74-1.08,1.35-.1.58-.13,1.18-.11,1.77.04.82.28,1.59.76,2.28.38.55.88.89,1.57.8.73-.09,1.17-.57,1.34-1.26.12-.47.15-.96.2-1.32Z" style="fill:#363638;"></path>
  <path d="m78.65,85.59c.18.05.23.16.18.36-.2.86-.65,1.56-1.34,2.09-.9.68-2.36.57-3.28-.19-.76-.64-1.14-1.47-1.21-2.44-.06-.85-.01-1.69.35-2.48.63-1.42,2.24-2.16,3.72-1.69,1.02.33,1.58,1.07,1.75,2.11.03.19.04.37.06.6h-4.79c-.11,1.63.83,3.12,2.29,3.27.71.07,1.33-.14,1.76-.75.19-.28.34-.58.51-.88Zm-4.57-2.09c.1,0,.18.01.25.01.83,0,1.66,0,2.49,0,.57,0,.46.05.41-.46-.06-.62-.39-1.04-.96-1.28-.54-.22-1.03-.1-1.47.24-.47.36-.66.87-.72,1.48Z" style="fill:#363638;"></path>
  <path d="m45.8,83.95c.03,1.16.3,2.16,1.26,2.86.91.66,2.41.63,3.06-.7.09-.18.17-.36.25-.53.21.06.26.18.2.38-.32,1.12-.88,2.05-2.05,2.42-1.32.42-2.81-.28-3.4-1.6-.59-1.33-.56-2.69.05-3.99.67-1.42,2.34-2.06,3.81-1.49.93.36,1.43,1.08,1.58,2.06.03.18.04.37.06.6h-4.82Zm.01-.44c.11,0,.18,0,.26,0,.83,0,1.66,0,2.49,0,.56,0,.46.06.41-.46-.12-1.07-1.22-1.69-2.14-1.21-.66.34-.93.93-1.01,1.68Z" style="fill:#363638;"></path>
  <path d="m55.03,88.01v.28h-3.4c0-.09,0-.17-.01-.27.14-.02.27-.02.4-.04.34-.06.55-.27.59-.61.03-.29.05-.58.05-.87,0-2.29,0-4.58,0-6.86,0-.2-.02-.4-.04-.59-.05-.46-.29-.62-.73-.5q-.28.07-.36-.21c.96-.5,2.01-.88,2.39-.84,0,.09,0,.19,0,.28,0,2.95,0,5.9,0,8.85,0,.21,0,.41.04.62.07.51.28.71.79.75.09,0,.18,0,.29.02Z" style="fill:#363638;"></path>
  <path d="m83.29,88.01v.27h-3.4v-.26c.11,0,.23-.01.34-.03.38-.05.6-.26.64-.64.03-.29.05-.58.05-.87,0-2.27,0-4.54,0-6.81,0-.2-.02-.4-.03-.59-.04-.47-.29-.65-.74-.51-.21.06-.33.04-.36-.24.78-.27,1.51-.71,2.4-.88v.35c0,2.95,0,5.9,0,8.85,0,.21.01.43.04.64.06.46.26.66.72.71.11.01.23.02.37.02Z" style="fill:#363638;"></path>
  <path d="m84.21,78.61c-.04-.09-.08-.18-.14-.29.82-.26,1.54-.75,2.43-.88,0,.17,0,.27,0,.38,0,2.93,0,5.85,0,8.78,0,.21,0,.43.03.64.07.52.29.72.81.75.08,0,.16,0,.26.01,0,.05.02.1.02.15,0,.04,0,.08-.01.13h-3.4v-.27c.13-.01.25-.02.37-.03.34-.06.55-.26.6-.6.03-.29.05-.58.05-.87,0-2.29,0-4.58,0-6.86,0-.2-.02-.4-.04-.59-.05-.45-.29-.62-.73-.51-.08.02-.16.04-.26.07Z" style="fill:#363638;"></path>
  <path d="m109.04,81.83h-1.16c.07-.13.09-.26.17-.3.95-.5,1.54-1.31,1.92-2.29.06-.16.13-.27.34-.18v2.25h1.59v.52h-1.56c-.01.06-.03.09-.03.12,0,1.56,0,3.12,0,4.68,0,.07.01.13.02.2.05.32.19.57.52.65.29.08.67-.1.84-.4.1-.16.19-.26.39-.19-.03.56-.68,1.27-1.31,1.45-.84.24-1.6-.26-1.71-1.14-.03-.19-.04-.38-.04-.57,0-1.49,0-2.98,0-4.48,0-.1,0-.2,0-.33Z" style="fill:#363638;"></path>
  <path d="m91.87,88.01v.28h-3.33v-.28c.11,0,.23-.01.34-.03.37-.05.58-.25.64-.62.03-.19.05-.38.05-.57,0-1.32-.01-2.63-.04-3.95-.01-.62-.26-.79-.86-.64-.05.01-.1.02-.16.03-.03-.09-.07-.18-.11-.29.82-.26,1.55-.72,2.44-.87,0,.16,0,.26,0,.36,0,1.73,0,3.46,0,5.19,0,.21.01.43.04.64.06.49.28.69.78.73.07,0,.15,0,.23.01Z" style="fill:#363638;"></path>
  <path d="m40.39,82.24c-.04-.1-.07-.18-.11-.29.82-.27,1.55-.72,2.43-.88v.38c0,1.72,0,3.45,0,5.17,0,.21.01.43.04.64.06.5.29.7.8.73.07,0,.13,0,.21.01v.28h-3.34v-.28c.09,0,.18,0,.27-.01.43-.03.66-.24.73-.67.03-.2.04-.4.04-.59,0-1.28-.01-2.57-.04-3.85-.01-.68-.25-.83-.9-.66-.03,0-.06.01-.12.02Z" style="fill:#363638;"></path>
  <path d="m42.86,78.25c0,.43-.32.77-.74.77-.46,0-.81-.34-.81-.79,0-.45.34-.77.8-.76.45,0,.75.33.75.78Z" style="fill:#363638;"></path>
  <path d="m90.97,78.26c0,.44-.34.77-.77.77-.44,0-.78-.35-.78-.79,0-.43.34-.76.78-.76.46,0,.77.33.77.79Z" style="fill:#363638;"></path>
</svg>
