<?xml version="1.0" encoding="UTF-8"?>
<svg xmlns="http://www.w3.org/2000/svg" id="Layer_1" viewBox="0 0 141.73 141.73">
  <path d="m44.63,44.55c-1.53-1.87-3-3.66-4.49-5.48.74-1.17,1.55-2.27,2.44-3.35.11.12.21.21.3.31,2.22,2.59,4.44,5.17,6.64,7.76.22.25.43.35.75.31.56-.07,1.13-.11,1.8-.17-2.7-3.34-5.37-6.6-8.03-9.89.19-.2.36-.4.55-.58.99-.92,1.99-1.84,2.98-2.77.26-.25.51-.26.83-.16,1.89.55,3.79,1.08,5.68,1.62.16.05.32.08.54.13.08-2.1.15-4.15.23-6.25,1.44-.69,2.92-1.25,4.46-1.78,1.55,2.61,3.07,5.19,4.64,7.84.1-.2.18-.35.25-.49,1.35-2.85,2.72-5.7,4.05-8.56.18-.39.41-.58.83-.56.15,0,.3,0,.49,0,1.97,3.76,3.94,7.52,5.93,11.32.41-.37.77-.7,1.17-1.06-1.33-3.39-2.65-6.78-4.01-10.26.76.07,1.43.12,2.1.19.28.03.55.09.82.11.28.02.43.14.55.39.48,1,.99,1.99,1.48,2.98.61,1.23,1.23,2.45,1.84,3.68.07.15.16.3.25.47.17-.09.32-.16.47-.24,2.14-1.15,4.29-2.3,6.42-3.47.29-.16.51-.17.8,0,.62.37,1.26.7,1.94,1.06-.15.14-.26.24-.37.34-2.07,1.75-4.14,3.51-6.21,5.25-.24.2-.34.44-.44.72-.26.72-.13,1.35.24,2.01.52.91.96,1.86,1.43,2.8.06.12.13.24.23.41,2.44-3.38,4.85-6.73,7.29-10.12.78.6,1.53,1.18,2.31,1.77-1.2,1.89-2.37,3.75-3.59,5.68.25,0,.41,0,.57,0,2.68,0,5.36,0,8.05,0,.33,0,.54.09.72.36.63.93,1.29,1.84,1.97,2.82-.18.03-.28.06-.37.06-2.35.16-4.7.32-7.06.47-.33.02-.52.14-.67.44-.83,1.62-1.68,3.22-2.53,4.83-.07.13-.14.27-.23.45.24.07.45,0,.64-.02,3.82-.59,7.45-1.78,10.92-3.46.19-.09.39-.18.58-.27.37.4,1.16,2.04,1.46,3.03-.16.09-.33.18-.5.27-2.99,1.55-6.13,2.71-9.38,3.59-1.89.51-3.8.92-5.73,1.22-.19.03-.34.09-.44.29-.61,1.16-1.24,2.31-1.86,3.46-.03.05-.04.11-.08.23,3.27-.83,6.49-1.65,9.71-2.47,3.22-.82,6.44-1.63,9.71-2.46.16.7.32,1.35.46,2.01.67,3.19.84,6.41.63,9.65-.38,6.13-2.22,11.8-5.45,17.02-.16.26-.35.4-.65.44-1.98.31-3.95.66-5.93.94-2.14.3-4.28.52-6.44.6-1.39.05-2.78.08-4.16.03-3.45-.14-6.9-.33-10.34-.5-2.71-.13-5.42-.29-8.13-.4-3.11-.12-6.22-.24-9.33-.29-3.58-.06-7.15.11-10.71.47-1.36.14-2.73.3-4.08.48-.37.05-.58-.04-.79-.35-2.91-4.22-4.87-8.83-5.83-13.87-.61-3.2-.79-6.42-.53-9.66.28-3.6,1.08-7.08,2.38-10.46.12-.31.29-.41.6-.43,2.37-.15,4.73-.31,7.23-.48Zm29.67,16.26c-.34,4.71-.18,9.37.88,13.98,1.33.18,2.59.37,3.86.53,2.12.27,4.25.55,6.38.77,2.16.23,4.32.43,6.49.59,2.04.15,4.09.22,6.14.34.28.02.46-.07.59-.32.61-1.09,1.27-2.15,1.83-3.26,1.79-3.58,2.84-7.37,3.18-11.36.2-2.35.16-4.71-.09-7.06-.05-.48-.14-.96-.21-1.47-1.36.34-2.65.66-3.97.99.66,1.93,1.79,3.5,2.96,5.08-.09.06-.17.11-.25.15-.62.3-1.26.59-1.87.9-.24.12-.43.11-.64-.05-.5-.38-1.03-.73-1.51-1.15-1.17-1.01-2.15-2.2-3.05-3.46-.2-.28-.18-.32-.61-.22-1.3.33-2.6.65-3.89.98-.12.03-.23.08-.35.12.23,1.1.58,2.14.78,3.26-1.01.05-1.96.09-2.92.14-.19,0-.27-.1-.36-.23-.4-.59-.79-1.17-1.19-1.76-.1-.15-.21-.29-.32-.45-3.96.98-7.89,1.96-11.87,2.95Zm-29.24-6.57c-.12.14-.22.26-.32.37-1.02,1.28-2.04,2.55-3.05,3.83-.16.2-.32.3-.58.28-.75-.03-1.51-.05-2.26-.06-.1,0-.2.01-.34.02-.03,4.22.75,8.25,2.3,12.17,8.94.24,17.74,1.53,26.6,2.79.03-.62.06-1.19.08-1.76.09-2.76.18-5.51.27-8.27.04-1.22.08-2.43.11-3.65,0-.15,0-.33-.08-.43-.53-.62-1.08-1.22-1.63-1.82-.11.04-.2.06-.29.09-1.29.5-2.59.99-3.88,1.5-.28.11-.55.17-.85.16-2.23-.1-4.47-.19-6.7-.28-.06,0-.12-.03-.25-.07,2.97-1.66,5.86-3.28,8.81-4.93-.76-.85-1.48-1.66-2.22-2.48-.16.13-.28.22-.4.32-2.72,2.29-5.45,4.58-8.16,6.88-.24.21-.48.28-.79.27-.88-.05-1.76-.07-2.63-.11-.5-.02-1-.05-1.59-.09.68-.94,1.32-1.82,1.99-2.74-1.39-.67-2.76-1.33-4.14-1.99Zm24.26-24.46c-.07.14-.11.21-.14.28-.96,2.22-1.92,4.44-2.88,6.65-.09.21-.09.4-.03.62.52,2,1.03,3.99,1.55,5.99.04.16.1.32.16.5.13-.08.24-.14.34-.21.79-.57,1.56-1.15,2.36-1.71.26-.18.39-.4.44-.71.29-1.76.6-3.52.91-5.28.05-.27.02-.51-.1-.76-.79-1.62-1.56-3.25-2.33-4.88-.07-.15-.15-.3-.26-.51Zm-11.88,19.12c-.5-.42-.95-.79-1.38-1.19-.29-.27-.59-.37-.99-.35-1.46.08-2.92.13-4.38.17-.25,0-.39.11-.53.29-.84,1.04-1.69,2.08-2.54,3.12-.07.08-.12.17-.19.28.15.06.28.12.4.17,1.35.51,2.71,1.01,4.05,1.54.32.13.53.06.78-.14,1.36-1.11,2.72-2.21,4.09-3.32.21-.17.43-.35.68-.55Zm17.55,3s.07.02.1.03c.09-.12.19-.24.28-.36.56-.78,1.11-1.55,1.67-2.33,1.23-1.71,2.45-3.43,3.69-5.14.16-.21.18-.39.08-.63-.27-.64-.51-1.29-.77-1.93-.05-.12-.11-.24-.18-.4-1.73,1.21-3.43,2.39-5.12,3.58.09,2.42.18,4.8.26,7.18Zm8.28-.94c-.66.03-1.23.08-1.8.08-.31,0-.47.12-.62.37-.86,1.39-1.73,2.77-2.6,4.15-.19.3-.37.6-.58.94.13-.02.2-.03.28-.05.67-.17,1.34-.36,2.01-.52.29-.07.47-.23.63-.48.81-1.36,1.64-2.72,2.46-4.07.07-.11.13-.23.23-.42Zm4.31-10.25c-1.13,1.79-2.27,3.59-3.45,5.46.55.03,1.01.04,1.47.09.36.04.58-.09.77-.41.97-1.62,1.96-3.23,2.94-4.85.07-.11.13-.23.24-.43-.7.05-1.32.09-1.97.14Zm-38.71-6.41c.63.78,5.27,5.3,5.57,5.44-.09-1.14-.17-2.28-.26-3.41-.03-.37-.02-.38-.41-.5-1.51-.48-3.02-.96-4.53-1.44-.1-.03-.2-.05-.38-.09Zm12.73,4.03c-1.05-.34-2.03-.67-3.1-1.01.1,1.92.2,3.77.29,5.62l.11.02c.89-1.52,1.78-3.04,2.7-4.62Zm2.71,11.26s.07-.03.1-.04c-.3-2.02-.6-4.05-.9-6.07-.03,0-.07,0-.1,0-.53,1.22-1.05,2.44-1.54,3.56.85.89,1.64,1.73,2.43,2.56Zm4.32-1.81c.2.84.38,1.64.57,2.45.56,0,1.07.09,1.63.06-.03-1.17-.06-2.27-.1-3.45-.74.33-1.39.62-2.1.93Zm-29.57.18s0,.07-.01.11c1.39.52,2.77,1.03,4.14,1.54.58-.63,1.23-1.57,1.3-1.87-1.81.07-3.62.14-5.42.21Zm-.43,7.64s.07.03.1.05c.8-1.09,1.61-2.17,2.44-3.3-.64-.3-1.22-.57-1.84-.86-.32,1.39-.55,2.74-.7,4.11Zm19.61-24.5s-.07.02-.11.02c.05.85.09,1.7.14,2.59.5.06.96.11,1.53.18-.55-.99-1.06-1.89-1.56-2.79Z" style="fill:#363638;"></path>
  <path d="m41.64,80.42c.3-.05.59-.11.9-.14,1.87-.17,3.74-.35,5.62-.49,3.11-.23,6.22-.26,9.34-.17,2.57.07,5.14.21,7.71.33,1.83.09,3.66.2,5.49.32,2.15.13,4.31.28,6.46.42,1.75.11,3.51.21,5.26.31,1.99.1,3.97.22,5.96.09,1.84-.11,3.69-.24,5.53-.44,1.91-.21,3.82-.5,5.72-.76.18-.02.36-.06.61-.1-.08.15-.13.25-.2.34-2.29,3.1-4.98,5.79-8.1,8.05-.21.15-.42.22-.68.22-2.27,0-4.53-.12-6.78-.35-2.56-.27-5.12-.53-7.67-.87-2.66-.36-5.3-.81-7.95-1.22-2.28-.36-4.56-.73-6.85-1.07-2.01-.29-4.03-.57-6.05-.8-1.97-.23-3.95-.43-5.93-.59-2-.16-4-.24-6-.36-.14,0-.32-.06-.4-.15-.67-.8-1.33-1.62-1.99-2.43-.01-.02,0-.06,0-.13Z" style="fill:#363638;"></path>
  <path d="m43.4,106.57c.34-.05.55-.28.74-.52.38-.47.85-.75,1.45-.82,1.14-.12,2.07.21,2.66,1.26.03.05.07.1.14.2.18-.11.37-.21.53-.33.15-.11.27-.25.4-.39.75-.83,2.09-.76,2.84-.07.45.41.77.92,1.02,1.47.48,1.06.73,2.18.92,3.33.32,1.95.41,3.92.4,5.89,0,.5.13.91.57,1.18.04.02.08.03.15.04,0-.26,0-.52,0-.77,0-1.12,0-2.25,0-3.37,0-3.91,0-7.83,0-11.74,0-.17,0-.34,0-.51,0-.21-.07-.39-.27-.51-.09-.06-.18-.13-.25-.2-.28-.31-.41-.82.19-1.08,1-.43,2-.88,3-1.31.14-.06.29-.1.44-.13.38-.08.61,0,.73.37.1.31.15.66.16.99.01,1.89,0,3.79,0,5.68,0,.16,0,.33,0,.59.28-.18.48-.28.65-.43.39-.32.83-.39,1.3-.31.61.1,1.13.4,1.59.8,1.02.87,1.56,2,1.87,3.27.28,1.15.3,2.32.26,3.49-.05,1.22-.1,2.44-.44,3.61-.14.48-.33.97-.56,1.41-.42.78-1.1,1.22-1.98,1.35-.69.1-1.38.09-2.07-.03-.5-.09-.92-.32-1.26-.71-.21-.24-.43-.49-.68-.69-.27-.23-.39-.19-.59.11-.17.24-.32.49-.51.71-.51.59-1.12.54-1.56-.13-.25.47-.68.52-1.15.52-1.05-.02-2.1,0-3.14,0-.31,0-.58-.06-.78-.32-.21-.28-.19-.55.1-.76.46-.32.61-.74.58-1.28-.1-2.05-.2-4.09-.54-6.12-.1-.6-.26-1.2-.47-1.78-.17-.49-.64-.55-.97-.15-.09.11-.13.28-.13.42-.01.54,0,1.08,0,1.62,0,2.06,0,4.13,0,6.19,0,.45.13.82.51,1.07.21.15.41.3.3.6-.11.3-.32.48-.64.52-.08,0-.15,0-.23,0-1.14,0-2.28,0-3.42,0-.3,0-.55-.06-.73-.3-.21-.27-.2-.57.08-.76.46-.31.58-.74.58-1.27-.01-2.39,0-4.78,0-7.16,0-.23,0-.46-.05-.69-.05-.3-.19-.56-.51-.65-.33-.1-.61.02-.84.25-.22.21-.34.47-.38.77-.02.12-.01.25-.01.37,0,2.42,0,4.84,0,7.26,0,.47.15.83.54,1.1.4.29.38.7-.04.96-.12.08-.29.13-.43.13-1.37,0-2.74,0-4.11,0-.27,0-.48-.1-.64-.31-.21-.28-.19-.56.09-.76.44-.31.57-.71.57-1.23-.01-2.53,0-5.05,0-7.58,0-.14,0-.28-.01-.42-.02-.35-.17-.62-.48-.78-.25-.13-.52-.28-.51-.6.01-.33.34-.41.59-.52.94-.39,1.88-.78,2.82-1.15.2-.08.41-.14.62-.2.49-.13.77.02.91.5.07.25.1.51.14.79Zm15.78,5.56c.05.47.09,1.2.21,1.91.08.46.21.94.41,1.36.28.58.79.6,1.15.06.2-.3.35-.65.45-1,.57-2.08.46-4.15-.14-6.2-.07-.25-.19-.49-.32-.71-.3-.48-.68-.48-.96,0-.14.25-.25.53-.33.81-.32,1.15-.43,2.33-.47,3.77Z" style="fill:#363638;"></path>
  <path d="m44.59,83.9c1.04.07,2.09.11,3.13.2,1.81.16,3.62.32,5.43.52,2,.23,4.01.48,6,.77,2.3.33,4.6.69,6.89,1.07,2.08.34,4.16.73,6.24,1.06,2.14.35,4.29.68,6.44.97,2.03.27,4.07.5,6.11.7,1.49.14,2.98.2,4.47.29.14,0,.28.02.42.03-.58.78-5.86,3.19-8.91,4.08-3.17.93-6.4,1.41-9.7,1.46-3.31.05-6.58-.35-9.79-1.2-3.19-.84-6.21-2.1-9.05-3.77-2.86-1.68-5.44-3.7-7.74-6.08.02-.03.03-.07.05-.1Z" style="fill:#363638;"></path>
  <path d="m98.02,118.55c-.4.06-.76.15-1.12.16-.65.03-1.29,0-1.94.01-.28,0-.52-.04-.7-.27-.18-.22-.38-.22-.61-.07-.42.27-.88.35-1.37.34-.99-.01-1.97-.02-2.96,0-.39,0-.68-.14-.94-.4-.61-.64-.9-1.44-.96-2.3-.17-2.46,1.1-4.21,3.17-5.2.31-.15.68-.2,1.02-.3,1.05-.31,1.24-.61,1.01-1.69-.07-.34-.19-.68-.35-1-.19-.39-.52-.6-.98-.56-.29.02-.58.04-.94.07.1.13.16.21.22.29.41.5.5,1.07.37,1.7-.09.43-.34.69-.76.78-.53.11-1.07.11-1.6-.03-.51-.13-.83-.47-.97-.96-.27-.96-.05-1.8.7-2.48.53-.48,1.16-.76,1.85-.9,1.16-.24,2.33-.23,3.49-.03.84.15,1.46.63,1.87,1.37.44.78.65,1.63.74,2.51.15,1.49.27,2.98.39,4.46.06.69.08,1.38.12,2.08.03.51.09.55.58.74.2.08.37.26.52.42.1.11.14.26.22.41.32-.18.47-.45.5-.8.01-.12,0-.25,0-.37,0-2.51,0-5.02,0-7.53,0-.17,0-.34-.02-.51-.04-.31-.17-.55-.46-.71-.12-.07-.24-.14-.35-.23-.31-.27-.29-.52.06-.74.04-.02.08-.05.12-.07,1.16-.47,2.3-.96,3.47-1.39.71-.26,1.07,0,1.16.76.01.12.02.25.03.42.11-.06.21-.09.28-.15.14-.12.28-.25.4-.38.75-.79,2.02-.75,2.81-.06.48.43.81.96,1.07,1.55.44.98.68,2.01.86,3.06.32,1.87.42,3.76.44,5.66,0,.18,0,.37,0,.55-.02.44.14.78.51,1.02.21.14.35.3.26.57-.07.23-.29.37-.58.37-1.26,0-2.53,0-3.79,0-.26,0-.48-.09-.65-.29-.24-.29-.22-.58.09-.79.44-.31.59-.72.57-1.23-.1-2.25-.21-4.49-.64-6.71-.07-.38-.18-.75-.31-1.11-.15-.42-.3-.53-.56-.5-.3.03-.64.35-.7.66-.02.12-.01.25-.01.37,0,2.43,0,4.87,0,7.3,0,.54.12.96.6,1.25.29.18.31.44.11.71-.16.23-.39.34-.67.34-1.36,0-2.71,0-4.07,0-.2,0-.41-.11-.59-.16Zm-5.2-6.45c-.9.06-1.39.55-1.66,1.31-.32.92-.32,1.87-.11,2.81.05.2.15.41.27.57.24.31.59.37.96.3.37-.07.47-.36.53-.67.03-.13.03-.27.03-.41,0-1.17,0-2.33,0-3.5,0-.12-.01-.24-.02-.41Z" style="fill:#363638;"></path>
  <path d="m32.8,117.94c.12-.09.25-.17.37-.27.26-.22.42-.49.42-.84,0-.43,0-.86,0-1.29,0-2.13,0-4.25,0-6.38,0-.2,0-.4-.01-.6-.02-.35-.16-.62-.48-.78-.13-.07-.27-.16-.37-.27-.24-.24-.22-.46.06-.65.06-.04.13-.08.2-.11,1.1-.45,2.19-.9,3.29-1.34.1-.04.2-.07.31-.09.53-.13.83.03.95.57.07.31.08.64.08.96,0,3.2.01,6.41,0,9.61,0,.6.1,1.08.65,1.42.26.16.26.38.07.64-.16.22-.37.3-.64.3-1.36,0-2.71,0-4.07,0-.34,0-.58-.17-.77-.45-.44.39-.95.45-1.48.45-1.19,0-2.37.01-3.56,0-.33,0-.68-.05-.99-.16-.54-.19-.59-.55-.17-.93.07-.06.14-.12.21-.18.35-.26.48-.61.48-1.04-.01-4.67-.01-9.33-.02-14,0-.46.02-.92,0-1.39-.03-.55-.34-.71-.79-.39-.24.18-.46.42-.6.68-.29.56-.53,1.14-.78,1.72-.12.27-.21.55-.35.8-.44.84-1.56.66-1.93.08-.1-.15-.15-.38-.12-.56.25-1.47.5-2.94.79-4.41.08-.4.26-.79.46-1.15.21-.37.44-.39.82-.18.03.02.06.03.08.05.36.4.83.4,1.32.4,2.39,0,4.78-.01,7.16,0,.31,0,.55-.08.8-.27.6-.47.95-.4,1.23.32.23.61.36,1.27.49,1.92.2,1.03.37,2.06.55,3.09.12.65-.06,1-.62,1.21-.56.21-1.11.03-1.4-.48-.16-.28-.26-.59-.39-.89-.24-.53-.45-1.08-.73-1.59-.15-.28-.37-.54-.62-.73-.43-.33-.73-.17-.78.35-.02.15-.02.31-.02.46,0,5.01,0,10.01-.01,15.02,0,.4.14.72.45.96.17.13.33.28.5.42Z" style="fill:#363638;"></path>
  <path d="m78.29,107.34c.37-.08.58-.26.76-.47.13-.15.26-.31.36-.48.71-1.23,2.62-1.42,3.57-.61.02-.14.04-.26.04-.37,0-1.05,0-2.1,0-3.14,0-.17-.02-.34-.03-.51-.02-.33-.18-.58-.48-.74-.25-.13-.52-.28-.51-.6.01-.34.34-.41.59-.52.98-.41,1.96-.81,2.95-1.2.17-.07.35-.11.53-.15.44-.11.69,0,.83.42.09.29.13.6.13.91,0,5.49,0,10.97,0,16.46,0,.14,0,.28,0,.42-.02.44.14.78.51,1.03.2.14.38.29.29.56-.09.28-.3.42-.58.46-.08,0-.15,0-.23,0-1.29,0-2.59,0-3.88,0-.33,0-.61-.06-.81-.35-.18-.27-.17-.54.11-.72.44-.3.59-.72.59-1.23,0-2.47,0-4.93,0-7.4,0-.08-.01-.17-.02-.36-.19.31-.31.54-.46.75-.34.48-.85.51-1.23.06-.16-.18-.26-.41-.37-.63-.22-.43-.42-.51-.85-.27-.24.13-.46.32-.63.53-.56.68-.88,1.48-1.12,2.31-.04.13-.04.27-.04.41,0,1.57,0,3.14,0,4.71,0,.46.11.85.52,1.11.21.13.36.29.29.57-.08.28-.27.44-.54.52-.1.03-.21.02-.32.02-1.31,0-2.62,0-3.93,0-.3,0-.54-.09-.72-.33-.2-.28-.19-.53.09-.72.46-.31.6-.73.59-1.27-.02-2.53,0-5.05,0-7.58,0-.11,0-.22,0-.32-.01-.38-.15-.68-.51-.87-.13-.07-.27-.16-.37-.27-.22-.23-.19-.44.05-.62.06-.05.13-.08.2-.11,1.11-.45,2.22-.9,3.33-1.35.07-.03.15-.04.22-.07.7-.27.94.18,1.04.66.05.24.04.49.05.74,0,.2,0,.4,0,.64Z" style="fill:#363638;"></path>
  <path d="m119.01,118.81c-.22.02-.39.05-.55.05-2.53,0-5.06,0-7.58.01-.53,0-.87-.24-1.09-.7-.82-1.8-1.23-3.67-1.09-5.65.09-1.33.34-2.62.89-3.85.35-.76.79-1.46,1.39-2.05,1.09-1.06,2.09-1.15,3.37-.31.05.03.1.06.2.11,0-.14.02-.24.02-.34,0-1.17,0-2.34,0-3.51,0-.51-.11-.95-.64-1.17-.08-.03-.15-.1-.22-.17-.27-.28-.21-.57.15-.73.07-.03.15-.06.22-.06.69-.02,1.27-.33,1.87-.62.51-.25,1.02-.51,1.54-.74.54-.24.84-.09.99.49.07.28.08.58.08.87,0,3.85,0,7.7,0,11.56,0,1.53,0,3.05,0,4.58,0,.39.03.77.33,1.07.07.07.09.19.1.29.01.27,0,.55,0,.89Zm-4.21-6.2c-.04-.54-.07-1.07-.13-1.61-.09-.69-.24-1.37-.55-1.99-.14-.27-.31-.53-.52-.75-.25-.26-.44-.23-.62.09-.17.31-.31.64-.41.97-.36,1.2-.46,2.45-.43,3.69.03.88.13,1.75.51,2.56.14.3.32.6.54.85.3.34.59.32.82-.07.21-.35.37-.75.48-1.14.23-.85.29-1.73.32-2.61Z" style="fill:#363638;"></path>
  <path d="m65.03,112.32c.05-1.41.2-2.8.71-4.12.28-.74.68-1.41,1.24-1.98,1.24-1.27,3.79-1.58,5.29.26.78.96,1.22,2.06,1.42,3.26.04.27.01.55,0,.83-.03.49-.26.81-.75,1-1.21.45-2.4.95-3.61,1.42-.61.24-.81.7-.51,1.28.15.3.34.59.55.85.55.69,1.3.83,2.12.73.23-.03.4-.17.47-.4.04-.15.07-.3.09-.45.05-.47.27-.65.73-.57.62.1,1.09.61,1.12,1.24.08,1.64-.64,3.09-2.61,3.47-.72.14-1.44.16-2.16,0-1.46-.3-2.47-1.2-3.16-2.48-.5-.94-.75-1.95-.86-3-.04-.44-.05-.89-.08-1.34Zm2.87-2.96c.06.66.1,1.16.15,1.67.05.45.17.55.62.54.8-.02,1.49-.6,1.62-1.38.05-.3.04-.62-.01-.91-.12-.76-.45-1.44-1-1.99-.35-.35-.74-.3-1,.12-.1.17-.19.36-.22.55-.08.52-.12,1.04-.16,1.41Z" style="fill:#363638;"></path>
</svg>
