<?xml version="1.0" encoding="UTF-8"?>
<svg xmlns="http://www.w3.org/2000/svg" id="Layer_1" viewBox="0 0 141.73 141.73">
  <path id="path8" d="m84.49,80.48c-6.58,4.85-16.11,7.43-24.31,7.43-11.51,0-21.87-4.26-29.7-11.33-.62-.56-.06-1.32.67-.88,8.46,4.92,18.92,7.88,29.72,7.88,7.29,0,15.3-1.51,22.67-4.64,1.11-.47,2.04.73.96,1.54" style="fill:#646468;"></path>
  <path id="path10" d="m87.22,77.36c-.84-1.07-5.56-.51-7.67-.26-.65.08-.74-.48-.16-.89,3.76-2.65,9.93-1.88,10.65-1,.72.89-.19,7.07-3.72,10.02-.54.45-1.06.21-.82-.39.79-1.98,2.57-6.42,1.73-7.5" style="fill:#646468;"></path>
  <path id="path12" d="m79.7,57.54v-2.57c0-.39.3-.65.65-.65h11.51c.37,0,.67.27.67.65v2.2c0,.37-.32.85-.87,1.62l-5.97,8.52c2.22-.05,4.56.28,6.57,1.41.45.26.58.63.61,1v2.74c0,.37-.41.81-.85.59-3.54-1.86-8.25-2.06-12.16.02-.4.22-.82-.22-.82-.59v-2.61c0-.42,0-1.13.42-1.77l6.91-9.91h-6.01c-.37,0-.67-.26-.67-.65" style="fill:#221f1f;"></path>
  <path id="path14" d="m37.7,73.58h-3.5c-.33-.02-.6-.28-.63-.6v-17.98c0-.36.3-.65.67-.65h3.27c.34.01.61.28.64.6v2.35h.06c.85-2.27,2.45-3.33,4.61-3.33s3.56,1.06,4.55,3.33c.85-2.27,2.77-3.33,4.84-3.33,1.47,0,3.07.61,4.05,1.97,1.11,1.51.88,3.71.88,5.64v11.34c0,.36-.31.65-.68.65h-3.5c-.35-.02-.63-.31-.63-.65v-9.53c0-.76.07-2.65-.1-3.37-.26-1.21-1.04-1.55-2.06-1.55-.85,0-1.73.57-2.09,1.47-.36.91-.33,2.42-.33,3.44v9.53c0,.36-.3.65-.67.65h-3.5c-.35-.02-.63-.31-.63-.65v-9.53c0-2,.33-4.96-2.16-4.96s-2.42,2.88-2.42,4.96v9.53c0,.36-.3.65-.67.65" style="fill:#221f1f;"></path>
  <path id="path16" d="m102.43,53.99c5.2,0,8.01,4.46,8.01,10.14s-3.11,9.83-8.01,9.83-7.88-4.46-7.88-10.02,2.81-9.95,7.88-9.95m.03,3.67c-2.58,0-2.74,3.52-2.74,5.71s-.03,6.89,2.71,6.89,2.84-3.78,2.84-6.09c0-1.52-.06-3.33-.52-4.77-.39-1.25-1.18-1.74-2.29-1.74" style="fill:#221f1f;"></path>
  <path id="path18" d="m117.18,73.58h-3.49c-.35-.02-.63-.31-.63-.65v-17.98c.02-.33.32-.59.67-.59h3.25c.31.01.56.22.63.5v2.75h.06c.98-2.46,2.35-3.63,4.77-3.63,1.57,0,3.1.57,4.09,2.12.92,1.44.92,3.86.92,5.6v11.32c-.04.32-.33.57-.67.57h-3.51c-.32-.02-.59-.26-.62-.57v-9.76c0-1.97.23-4.84-2.19-4.84-.85,0-1.64.57-2.02,1.44-.49,1.1-.56,2.19-.56,3.4v9.68c0,.36-.31.65-.68.65" style="fill:#221f1f;"></path>
  <g id="use28">
    <path id="path30" d="m70.52,65v-.76c-2.53,0-5.21.54-5.21,3.53,0,1.51.78,2.54,2.13,2.54.99,0,1.87-.61,2.42-1.59.69-1.21.66-2.35.66-3.71m3.53,8.54c-.23.21-.57.22-.83.08-1.16-.97-1.37-1.41-2.01-2.33-1.92,1.96-3.28,2.55-5.77,2.55-2.95,0-5.24-1.82-5.24-5.46,0-2.84,1.54-4.78,3.73-5.72,1.9-.84,4.56-.99,6.59-1.22v-.45c0-.83.06-1.82-.42-2.54-.43-.65-1.25-.91-1.97-.91-1.33,0-2.53.68-2.82,2.1-.06.32-.29.63-.61.64l-3.4-.36c-.29-.06-.6-.3-.52-.73.78-4.12,4.5-5.36,7.83-5.36,1.7,0,3.93.45,5.28,1.74,1.7,1.59,1.54,3.71,1.54,6.02v5.46c0,1.64.68,2.36,1.32,3.25.23.32.28.69,0,.93-.71.6-1.99,1.7-2.68,2.33h0" style="fill:#221f1f;"></path>
  </g>
  <path id="path30-2" d="m24.6,65v-.76c-2.53,0-5.21.54-5.21,3.53,0,1.51.78,2.54,2.13,2.54.99,0,1.87-.61,2.42-1.59.69-1.21.66-2.35.66-3.71m3.53,8.54c-.23.21-.57.22-.83.08-1.16-.97-1.37-1.41-2.01-2.33-1.92,1.96-3.28,2.55-5.77,2.55-2.95,0-5.24-1.82-5.24-5.46,0-2.84,1.54-4.78,3.73-5.72,1.9-.84,4.56-.99,6.59-1.22v-.45c0-.83.06-1.82-.42-2.54-.43-.65-1.25-.91-1.97-.91-1.33,0-2.53.68-2.82,2.1-.06.32-.29.63-.61.64l-3.4-.36c-.29-.06-.6-.3-.52-.73.78-4.12,4.5-5.36,7.83-5.36,1.7,0,3.93.45,5.28,1.74,1.7,1.59,1.54,3.71,1.54,6.02v5.46c0,1.64.68,2.36,1.32,3.25.23.32.28.69,0,.93-.71.6-1.99,1.7-2.68,2.33h0" style="fill:#221f1f;"></path>
</svg>
