<?xml version="1.0" encoding="UTF-8"?>
<svg xmlns="http://www.w3.org/2000/svg" id="Layer_1" viewBox="0 0 141.73 141.73">
  <path d="m75.85,74.68c-2.89,1.69-4.7,5.29-7.6,6.97-3.82,2.22-12.68,4.78-12.91,4.88.52-.92,2.18-13,4.79-17.49,1.47-2.52,7.27-3.63,8.87-6.08,2.24,3.84,4.48,7.68,6.72,11.53.04.07.08.13.12.19Z" style="fill:#111;"></path>
  <path d="m75.37,59.61c8.55,0,14.7-2.53,23.25-2.52.33,0,3.06,2.55,3.39,2.55,0,.05-.02.09-.06.11-1.71.77-4.94,5.82-6.56,6.75-3.81,2.18-13.37,4.67-13.56,4.66-2.1-3.64-4.21-7.29-6.3-10.93-.1-.18-.43-.33-.16-.62Z" style="fill:#111;"></path>
  <path d="m80.7,42.74c.53-1.37-.39-4.9.32-6.17,1.09-1.99,5.38-3.76,5.49-3.87,2.09,3.3,4.18,6.61,6.35,10.04h-12.16Z" style="fill:#111;"></path>
  <path d="m75.85,74.68c2.02-1.13,4.07-2.22,5.99-3.51.18,0,2.71-1.46,3.83-2.1,3.8-2.19,7.6-4.4,11.41-6.58,1.62-.93,3.17-1.97,4.88-2.73-2.19,3.81-4.37,7.63-6.57,11.44-2.84,4.93-5.69,9.85-8.52,14.78-.27.47-.54.67-1.11.67-9.92-.02-19.84-.02-29.76,0-.56,0-.84-.17-1.12-.65-4.93-8.57-9.87-17.13-14.83-25.68-.32-.56-.31-.94.01-1.49,4.96-8.55,9.91-17.11,14.83-25.68.26-.46.55-.6,1.07-.6,9.92.02,19.84.01,29.76.02.26,0,.56-.13.78.12-.1.11-.23.2-.31.32-1.14,1.96-2.3,3.91-3.39,5.89-.7,1.28-1.58,2.46-2.11,3.83-.69.87-1.16,1.88-1.72,2.84-3.25,5.61-6.49,11.22-9.73,16.84-.1.17-.17.36-.26.54-1.59,2.45-2.96,5.04-4.44,7.56-2.62,4.49-5.21,8.99-7.81,13.49-.46.79-.9,1.59-1.42,2.51.23-.09.3-.11.36-.15,3.82-2.21,7.65-4.41,11.47-6.62,2.9-1.68,5.79-3.38,8.68-5.08Z" style="fill:#363638;"></path>
  <path d="m75.37,59.61c2.83-1.66,5.66-3.32,8.5-4.96,3.65-2.12,7.31-4.22,10.96-6.33.32-.18.54-.34.89.03,3.49,3.66,7.01,7.29,10.52,10.94.06.06.11.15.25.36-1.58,0-3.04,0-4.49,0-.33,0-.66-.02-.99-.02-8.55,0-17.1,0-25.66,0Z" style="fill:#363638;"></path>
  <path d="m54.16,100.53c1.09-1.78,2.15-3.47,3.16-5.18.25-.42.5-.61,1.01-.61,2.27,0,2.27-.01,2.27,2.28,0,3.69,0,7.39,0,11.08,0,.31.14.74-.24.88-.47.18-1,.18-1.48-.01-.32-.13-.2-.49-.2-.75,0-3.52,0-7.03,0-10.55,0-.11.08-.24-.11-.38-1.01,1.54-2.02,3.06-3.03,4.59-.83,1.25-1.9,1.26-2.73.02-1-1.51-1.99-3.01-3.11-4.71-.02.48-.04.74-.05,1.01,0,3.32,0,6.63,0,9.95,0,.92-.03.89-1.02.95-.75.04-.95-.23-.94-.96.03-4.15.03-8.3,0-12.45,0-.74.26-.87.95-.96,1.48-.19,2.35.35,3,1.68.69,1.41,1.64,2.7,2.51,4.12Z" style="fill:#363638;"></path>
  <path d="m105.09,97.38c-1.03,1.57-2.08,3.13-3.1,4.71-.29.44-.63.64-1.18.67-.64.03-1.02-.21-1.35-.74-1.01-1.59-2.07-3.15-3.23-4.9,0,.68,0,1.15,0,1.61,0,3.19-.02,6.38.01,9.56,0,.76-.39.8-.95.79-.56,0-1.04.04-1.03-.79.03-4.25.02-8.5,0-12.75,0-.6.24-.72.8-.8,1.53-.22,2.52.27,3.21,1.73.65,1.39,1.59,2.64,2.39,3.95.28,0,.3-.25.4-.41.98-1.59,1.97-3.18,2.92-4.79.22-.36.47-.46.85-.47,2.33-.04,2.33-.05,2.33,2.28,0,3.69,0,7.39,0,11.08q0,.97-.97.97c-.93,0-.94-.02-.94-1,0-3.29,0-6.58,0-9.87v-.79c-.06-.01-.11-.02-.17-.04Z" style="fill:#363638;"></path>
  <path d="m71.84,101.88c0-1.24-.01-2.48,0-3.72.03-2.2,1.19-3.36,3.4-3.4,1.42-.03,2.84.02,4.25-.02.68-.02.78.31.79.89,0,.6-.14.89-.81.86-1.16-.04-2.33-.03-3.49,0-1.44.03-2.08.68-2.09,2.12-.02,2.2-.02,4.4,0,6.61.01,1.43.66,2.09,2.08,2.13.71.02,1.42-.02,2.13.01.5.02.66-.15.66-.65-.03-1.54.02-3.09-.03-4.63-.02-.72.24-.97.92-.88.17.02.35.01.53,0,.44-.02.65.17.65.63,0,2.2,0,4.4,0,6.61,0,.46-.21.64-.64.64-1.77,0-3.55.05-5.31-.04-1.88-.09-2.96-1.25-3.02-3.13-.05-1.34,0-2.68,0-4.02h0Z" style="fill:#363638;"></path>
  <path d="m14.18,101.95c0-1.26-.01-2.53,0-3.79.02-2.06,1.2-3.27,3.24-3.31,1.49-.03,2.98.02,4.48-.02.68-.02.71.35.71.87,0,.51-.03.89-.71.86-1.19-.04-2.38-.02-3.57,0-1.39.02-2.08.66-2.1,2.04-.03,2.28-.03,4.55,0,6.83.02,1.33.72,1.98,2.05,2.02.73.02,1.47-.02,2.2.01.48.02.61-.18.6-.63-.02-1.62.04-3.24-.03-4.85-.03-.84.33-.96,1.04-.94.64.02,1.11,0,1.08.9-.07,2.12-.04,4.25-.01,6.37,0,.6-.15.87-.81.86-1.62-.03-3.24,0-4.85-.02-2.08-.02-3.3-1.25-3.32-3.31-.02-1.29,0-2.58,0-3.87Z" style="fill:#363638;"></path>
  <path d="m122.08,109.07c-.81,0-1.62-.02-2.43,0-.7.02-.66-.43-.67-.91-.01-.49.06-.84.68-.83,1.32.02,2.63.02,3.95,0,1.18-.01,1.68-.38,1.84-1.28.26-1.46-.09-2.21-1.24-2.63-1.21-.45-2.42-.88-3.63-1.33-1.31-.49-1.92-1.36-1.94-2.77-.01-.58-.02-1.17.02-1.74.1-1.56,1.05-2.65,2.6-2.76,1.66-.12,3.34-.06,5-.07.67,0,.57.49.59.92.01.45-.03.82-.62.81-1.16,0-2.33,0-3.49,0-1.79.01-2.65,1.41-1.9,3.07.19.42.55.63.97.79,1.3.48,2.6.99,3.91,1.45,1.2.43,1.77,1.28,1.82,2.52.03.63.03,1.27,0,1.9-.09,1.61-1.04,2.65-2.64,2.8-.93.09-1.87.02-2.8.02,0,.02,0,.03,0,.05Z" style="fill:#363638;"></path>
  <path d="m39.96,101.05c.56,0,1.11-.02,1.67,0,.47.02.57-.12.43-.57-.48-1.6-.91-3.21-1.4-4.8-.2-.65-.03-.86.65-.85,1.14.03,1.14,0,1.47,1.12,1.2,4.07,2.4,8.14,3.6,12.22.26.9.2.9-.7.99-.9.09-1.3-.22-1.5-1.11-.35-1.55-.86-3.06-1.25-4.61-.13-.5-.31-.73-.86-.7-.73.05-1.47.05-2.2,0-.61-.04-.83.22-.97.78-.44,1.69-.93,3.36-1.42,5.03-.16.54-1.48.84-1.89.45-.18-.17-.14-.36-.08-.56.68-2.28,1.36-4.55,2.02-6.83.13-.46.4-.59.83-.58.53.02,1.06,0,1.59,0Z" style="fill:#363638;"></path>
  <path d="m86.47,101.05c.56,0,1.11-.01,1.67,0,.43.02.51-.12.39-.54-.48-1.6-.93-3.2-1.37-4.81-.23-.83-.19-.8.66-.89.87-.08,1.21.25,1.45,1.08,1.16,4.1,2.39,8.19,3.6,12.28.26.88.2.97-.72.96-1.26-.01-1.1.2-1.47-1.09-.44-1.55-.89-3.11-1.29-4.67-.13-.49-.35-.65-.84-.63-.76.04-1.52.04-2.27,0-.53-.03-.74.19-.88.69-.45,1.71-.95,3.4-1.45,5.1-.16.54-1.46.86-1.88.48-.21-.19-.14-.4-.07-.63.66-2.23,1.32-4.45,1.95-6.69.14-.5.41-.7.93-.67.53.03,1.06,0,1.59,0Z" style="fill:#363638;"></path>
  <path d="m31.7,102.48c.88,1.98,1.76,3.96,2.64,5.93.22.49.06.7-.46.74-1.4.11-1.41.11-1.96-1.19-.61-1.44-1.23-2.88-1.83-4.32-.25-.61-.66-.9-1.34-.88-.96.03-1.92-.02-2.88.02-.75.03-.63-.46-.64-.91,0-.44-.07-.86.62-.83,1.34.04,2.68.02,4.02.01,2-.02,3.03-1.89,2.01-3.63-.39-.67-1.04-.85-1.75-.86-1.39-.01-2.78-.03-4.17,0-.65.02-.75-.28-.74-.82.01-.53.01-.93.74-.91,1.67.04,3.34,0,5.01.02,2.05.04,3.21,1.24,3.26,3.3,0,.18,0,.35,0,.53,0,2.33-.42,2.96-2.53,3.8Z" style="fill:#363638;"></path>
  <path d="m113.22,109.07c-1.11,0-2.23-.02-3.34,0-.55.01-.77-.19-.76-.76.02-2.25.02-4.5,0-6.75,0-.46.16-.63.62-.63,2,.01,4,.02,5.99,0,.68,0,.7.38.7.88,0,.51-.03.89-.71.88-1.29-.03-2.58.02-3.87-.02-.51-.01-.71.09-.68.65.05,1.11.04,2.23,0,3.34-.02.53.14.7.68.69,1.57-.03,3.14.01,4.7-.02.63-.01.84.19.83.83,0,.61-.11.95-.83.92-1.11-.05-2.22-.01-3.34-.01Z" style="fill:#363638;"></path>
  <path d="m113.17,96.49c-1.14,0-2.27-.02-3.41,0-.53.01-.67-.23-.63-.69.04-.44-.19-1.05.59-1.05,2.35,0,4.7,0,7.05,0,.73,0,.57.54.6.97.03.47-.07.78-.65.77-1.19-.02-2.37,0-3.56,0,0,0,0,0,0,.01Z" style="fill:#363638;"></path>
</svg>
