<?xml version="1.0" encoding="UTF-8"?>
<svg xmlns="http://www.w3.org/2000/svg" id="Layer_1" viewBox="0 0 141.73 141.73">
  <g>
    <path d="m58.87,80.48c-.09.22-.26.39-.43.52s-.39.26-.61.3c-.22.09-.48.09-.74.09h-.95v1.56h-.82v-4.81h1.91c.26,0,.52.04.78.13.22.09.43.17.56.35.17.13.26.3.35.52.09.22.13.43.13.65,0,.26-.04.48-.17.69Zm-1-1.34c-.17-.13-.43-.22-.74-.22h-1v1.73h1c.3,0,.56-.09.78-.22.17-.17.26-.39.26-.65,0-.3-.09-.52-.3-.65Z" style="fill:#363638;"></path>
    <path d="m66.97,82.95h-.91l-.48-1.17h-2.25l-.48,1.17h-.87l2.12-4.85h.78l2.08,4.85Zm-2.51-3.81l-.82,1.91h1.65l-.82-1.91Z" style="fill:#363638;"></path>
    <path d="m73.59,82.95l-1.17-1.69h-1.04v1.69h-.82v-4.81h2.12c.26,0,.52.04.74.09.22.09.39.17.56.3.17.13.26.3.35.48.09.17.13.39.13.65,0,.22-.04.39-.09.52-.04.17-.13.3-.22.43s-.22.22-.35.3-.3.13-.48.22l1.3,1.82h-1.04Zm-.26-3.85c-.17-.13-.43-.22-.74-.22h-1.21v1.6h1.26c.3,0,.56-.09.74-.22s.26-.35.26-.61c-.04-.22-.13-.39-.3-.56Z" style="fill:#363638;"></path>
    <path d="m79.14,78.14v4.81h-.82v-4.81h.82Z" style="fill:#363638;"></path>
    <path d="m83.9,79.66c.04.09.09.13.17.17.09.04.22.13.35.17.13.04.35.09.56.17.26.04.48.13.65.22.17.09.35.17.48.3.13.13.22.26.3.39s.09.3.09.52-.04.43-.13.61-.22.35-.35.43c-.13.13-.35.22-.52.3-.22.04-.43.09-.69.09-.39,0-.74-.04-1.08-.17s-.65-.3-.95-.56l.52-.61c.22.22.48.35.69.48.22.09.52.17.82.17.26,0,.48-.04.61-.17.17-.13.22-.26.22-.43,0-.09,0-.17-.04-.22-.04-.09-.09-.13-.17-.17s-.17-.13-.35-.17-.3-.09-.56-.17c-.26-.04-.48-.13-.69-.22s-.35-.17-.52-.26c-.13-.13-.26-.26-.3-.39-.09-.17-.09-.35-.09-.56s.04-.39.13-.56c.09-.17.17-.3.35-.43.13-.13.3-.22.52-.3s.43-.09.65-.09c.35,0,.65.04.95.17.3.09.56.26.78.43l-.43.65c-.22-.17-.43-.3-.65-.35-.22-.09-.43-.13-.65-.13-.26,0-.43.04-.56.17-.13.13-.22.26-.22.39.09-.04.13.04.13.13Z" style="fill:#363638;"></path>
  </g>
  <path d="m27.43,60.82c-1.34-1.3-3.12-2.08-5.85-2.08h-7.41v.17c.13,0,.26.04.3.13s.09.22.09.35v13.25c0,.13-.04.26-.09.35-.04.04-.13.09-.3.13v.17h7.41c2.82,0,4.42-.74,5.72-1.91,1.39-1.34,2.17-3.25,2.17-5.37-.04-2.04-.74-3.9-2.04-5.2Zm-2.77,8.66c-.78.69-1.47,1.04-3.2,1.04h-3.64v-9.01h3.64c1.78,0,2.56.43,3.29,1.17.82.82,1.26,1.99,1.26,3.33.04,1.47-.48,2.64-1.34,3.46Z" style="fill:#363638;"></path>
  <path d="m109.11,58.91v-.17h-4.03v.17c.13,0,.26.04.3.13.04.09.09.22.09.35v13.25c0,.13-.04.26-.09.35-.04.09-.13.13-.3.13v.17h4.03v-.17c-.13,0-.26-.04-.3-.13-.04-.09-.09-.22-.09-.35v-13.25c0-.13.04-.26.09-.35.04-.04.17-.09.3-.13Z" style="fill:#363638;"></path>
  <path d="m82.43,60.34c-1-1.04-2.38-1.6-4.5-1.6h-8.66v.17c.13,0,.26.04.3.13.04.09.09.22.09.35v13.25c0,.13-.04.26-.09.35-.04.09-.13.13-.3.13v.17h4.03v-.17c-.13,0-.26-.04-.3-.13-.04-.09-.09-.22-.09-.35v-4.72h5.02c2.04,0,3.38-.52,4.29-1.39.87-.82,1.43-1.95,1.43-3.2,0-1.08-.43-2.12-1.21-2.99Zm-2.69,4.33c-.52.48-1.13.56-1.73.56h-5.11v-3.81h5.11c.61,0,1.26.09,1.78.61.35.35.56.78.56,1.3,0,.52-.22,1-.61,1.34Z" style="fill:#363638;"></path>
  <path d="m101.14,58.91v-.17h-4.07v.17c.13,0,.26.04.3.13.04.09.09.22.09.35v4.76h-7.02v-4.76c0-.13.04-.26.09-.35.04-.09.13-.13.3-.13v-.17h-4.07v.17c.13,0,.26.04.3.13.04.09.09.22.09.35v13.25c0,.13-.04.26-.09.35-.04.09-.13.13-.3.13v.17h4.07v-.17c-.13,0-.26-.04-.3-.13-.04-.09-.09-.22-.09-.35v-5.8h7.02v5.8c0,.13-.04.26-.09.35-.04.09-.13.13-.3.13v.17h4.07v-.17c-.13,0-.26-.04-.3-.13-.04-.09-.09-.22-.09-.35v-13.25c0-.13.04-.26.09-.35.04-.04.13-.09.3-.13Z" style="fill:#363638;"></path>
  <path d="m127.56,58.91v-.17h-4.07v.17c.13,0,.26.04.3.13.04.09.09.22.09.3v8.36h-.04l-7.62-9.01h-3.2v.17c.13,0,.26.04.3.13.04.09.09.22.09.35v13.25c0,.13-.04.26-.09.35-.04.09-.13.13-.3.13v.17h4.07v-.13c-.13,0-.26-.04-.3-.13-.04-.09-.09-.22-.09-.35v-8.36h.04l7.62,9.01h3.2v-.17c-.13,0-.26-.04-.3-.13s-.09-.22-.09-.35v-13.25c0-.13.04-.26.09-.35.04-.04.13-.09.3-.13Z" style="fill:#363638;"></path>
  <path d="m65.19,73.03s0-.04,0,0l-3.33-5.59c1.82-.78,3.03-2.21,3.03-4.07,0-1.17-.48-2.21-1.21-2.99-.95-1-2.34-1.56-4.46-1.56h-8.71v.17c.13,0,.26.04.3.13s.09.22.09.35v13.25c0,.13-.04.26-.09.35s-.13.13-.3.13v.17h4.03v-.26c-.13,0-.26-.04-.3-.13s-.09-.22-.09-.35v-4.72h4.42l2.86,5.02v.04s-.13.09-.26.13v.17h4.29v-.17c-.09,0-.22-.04-.26-.09Zm-5.67-7.8h-5.37v-3.81h5.11c.61,0,1.26.09,1.78.61.35.35.52.78.52,1.26.04,1.17-.91,1.95-2.04,1.95Z" style="fill:#363638;"></path>
  <path d="m47.7,73.03s-.09-.13-.13-.22l-6.58-13.82s.13-.09.26-.09v-.17h-3.59v.17c.13,0,.22.04.26.09l-6.54,13.77c-.04.09-.13.22-.17.26-.04.04-.17.09-.26.09v.17h4.07v-.17c-.13,0-.22-.04-.26-.13l-.04-.04,1.21-2.73h6.89l1.21,2.73s0,.04-.04.04c-.04.04-.13.09-.26.13v.17h4.2v-.17s-.17-.04-.22-.09Zm-10.65-5.33l2.25-5.15h.17l2.25,5.15h-4.68Z" style="fill:#363638;"></path>
</svg>
