<?xml version="1.0" encoding="UTF-8"?>
<svg xmlns="http://www.w3.org/2000/svg" id="Layer_1" viewBox="0 0 141.73 141.73">
  <rect x="6.15" y="58.09" width="129.43" height="25.51" style="fill:#646468;"></rect>
  <g>
    <polygon points="15.45 70.51 16.76 77.31 20.4 77.31 22.03 70.54 22.24 78.31 26.61 78.31 26.27 61.69 20.37 61.69 18.74 69.75 16.79 61.69 11.26 61.69 10.92 78.31 15.26 78.31 15.45 70.51" style="fill:#fff;"></polygon>
    <path d="m31.87,68.86c0-.45.08-.5.45-.5h1.16c.32,0,.45.05.45.5l-.03,5.48c0,.45-.11.47-.42.47h-1.18c-.32,0-.42-.03-.42-.47v-5.48Zm.42,9.4h1.18c3.26,0,4.71-.58,4.71-3.95v-5.45c0-2.74-.68-3.98-4.71-3.98h-1.18c-4.03,0-4.74,1.29-4.74,3.98v5.48c0,2.66.71,3.92,4.74,3.92" style="fill:#fff;"></path>
    <rect x="59.7" y="61.69" width="4.29" height="2.76" style="fill:#fff;"></rect>
    <rect x="59.7" y="64.99" width="4.29" height="13.16" style="fill:#fff;"></rect>
    <path d="m47.86,78.15h4.29v-9.61h1.55c.37,0,.47.05.47.58v9.03h4.29v-9.64c0-3.05-1.47-3.66-3.87-3.66h-1.24c-.18,0-.92.37-1.37,1.47-.13-.5-.34-1.45-.55-1.45-1.76,0-3.4.11-3.42.11h-.18l.03,13.16Z" style="fill:#fff;"></path>
    <path d="m69.47,68.54h1.55c.37,0,.47.05.47.58v9.03h4.29v-9.64c0-3.03-1.47-3.66-3.87-3.66h-1.24c-.18,0-.92.37-1.37,1.47-.13-.5-.34-1.45-.55-1.45-1.76,0-3.4.11-3.42.11h-.18v13.14h4.29l.03-9.58Z" style="fill:#fff;"></path>
    <path d="m96.4,78.25h1.03c4.13,0,5.16-.84,5.16-4.32v-1.5c0-2.69-1.13-3.21-2.87-3.79l-1.58-.53c-1.47-.5-2.32-.55-2.32-1.5v-1c0-.5.16-.55.58-.55h.95c.42,0,.58.03.58.55v.97l4.58,1.24v-2c0-3.48-1-4.32-5.16-4.32h-.95c-4.13,0-5.16.84-5.16,4.32v2c0,2.63,1.34,2.42,3.05,3.08l1.74.58c.13.05.26.11.37.13.74.29,1.58.34,1.58,1v1.53c0,.5-.16.55-.58.55h-1.03c-.42,0-.58-.05-.58-.55v-1.11l-4.58-1.45v2.34c.03,3.48,1.03,4.32,5.19,4.32" style="fill:#fff;"></path>
    <path d="m104.36,74.52c0,1.53.24,2.42.79,2.98.55.55,1.37.76,2.87.76.29,0,.58,0,.92-.03l1.82-.11v-3.53h-1.82c-.24,0-.26-.08-.26-.26v-6.5h1.87v-2.95h-1.87v-3.16l-4.32,1.5v1.63h-1.05v2.98h1.03v6.69h.03Z" style="fill:#fff;"></path>
    <path d="m115.83,73.49c0-.71.21-.76.45-.76h1.47v1.9h-1.47c-.37,0-.45-.05-.45-.61m-.39,4.24h.5c2.08,0,5.92-.34,5.95-.34l.18-.03v-9.03c0-2.47-.32-3.98-4.61-3.98h-1.16c-4.11.05-4.32,1.55-4.32,3.98v.55l4.05-.37v-.24c0-.42.03-.42.37-.42h.97c.32,0,.39,0,.39.55v.74h-2.66c-2.69,0-3.55.9-3.55,3.66v1.26c-.03,2.21.63,3.66,3.87,3.66" style="fill:#fff;"></path>
    <path d="m42.41,64.88c-1.76,0-2.95.11-2.95.11l-.18.03v13.14h4.29v-9.61h3.11l.21.03v-3.69h-2.84c-.26,0-.5.63-1,1.58-.16-.53-.45-1.58-.63-1.58" style="fill:#fff;"></path>
    <path d="m127.5,68.54h3.11l.21.03v-3.69h-2.84c-.26,0-.5.63-1,1.58-.18-.53-.45-1.55-.66-1.55-1.76,0-2.95.11-2.95.11l-.18.03v13.14h4.29v-9.64h.03Z" style="fill:#fff;"></path>
    <path d="m81.4,68.88c0-.45.08-.47.42-.47h1.32c.37,0,.45.03.45.47v1.21c0,.45-.08.5-.45.5h-1.32c-.32,0-.42-.03-.42-.5m-3.53,8.16c.08.03.26.05,2.05.05,1.66,0,4.45-.03,4.48-.03.08,0,.18,0,.24.05.08.08.05.24.05.42v.42c.87.29,2.53.71,3.48,1.03.05-.45.08-.92.08-1.32v-.11c0-3.16-.9-3.82-4.98-3.82,0,0-1.87.05-2.34.05s-.53-.05-.61-.18c-.08-.13-.08-.21-.05-.39,0-.05.05-.21.21-.26.18-.05.42-.03.58-.03.37.03.53,0,.76,0h1.32c4.05,0,4.74-1.21,4.74-3.95v-1.34c0-.42-.05-.84-.18-1.21l.84-.21v-2.55h-6.71c-4.16,0-4.71.79-4.71,3.98v1.34c0,1.21.11,2.16.66,2.82-.53.55-1.11,2.13-1.11,2.9,0,1.16,0,2,1.21,2.34" style="fill:#fff;"></path>
    <path d="m56.28,64.46h.58v-1.24c0-.21.03-.26.16-.26.11,0,.13.03.13.26v1.24h.58v-1.24c0-.21.03-.26.16-.26.11,0,.13.03.13.26v1.24h.58v-1.5c0-.18-.03-.34-.11-.45-.08-.11-.18-.16-.39-.16s-.37.05-.45.16c-.08-.13-.18-.16-.39-.16-.24,0-.37.05-.42.16l-.03-.13-.47.03v2.05h-.05Zm-.84,0c.53,0,.66-.29.66-.61,0-.34-.13-.5-.45-.66-.21-.11-.24-.13-.24-.21,0-.05.03-.08.13-.08.08,0,.24.03.34.05l.18-.53c-.21-.08-.39-.08-.55-.08-.5,0-.66.29-.66.66,0,.32.08.45.47.66.21.11.24.13.24.21,0,.05-.05.08-.11.08-.13,0-.34-.05-.45-.13l-.21.5c.11.08.34.13.63.13m-1.4-2.24h.58v-.53h-.58v.53Zm0,2.24h.58v-2.08h-.58v2.08Zm-.32,0h.11v-.55h-.03c-.13,0-.13-.03-.13-.16v-2.05h-.58v2.16c.03.47.18.61.63.61m-1.63-.5c-.13,0-.13-.08-.13-.21,0-.21.08-.26.29-.26v.26c.03.16-.03.21-.16.21m-.11.53c.24,0,.34-.05.42-.16.03.11.11.13.26.13h.24v-.55c-.11,0-.11-.03-.11-.11v-.84c0-.21-.03-.34-.11-.42-.11-.13-.26-.18-.53-.18-.37,0-.55.08-.68.13l.18.55c.11-.03.26-.08.42-.08.11,0,.13.03.13.13h0c-.58,0-.82.13-.82.71,0,.45.16.68.58.68m-1.34-2.26h.58v-.53h-.58v.53Zm0,2.24h.58v-2.08h-.58v2.08Zm-.61,0c.18,0,.29-.03.42-.05l-.16-.53c-.05.03-.13.03-.18.03-.16,0-.21,0-.21-.47s.05-.47.21-.47c.05,0,.11,0,.18.03l.16-.58c-.11-.03-.18-.05-.39-.05-.26,0-.42.08-.55.21-.16.18-.18.47-.18.84,0,.39.03.71.21.87.11.13.26.18.5.18m-1.61-.55c-.16,0-.18-.08-.18-.47s.03-.47.18-.47.16.08.16.47c0,.39-.03.47-.16.47m0,.55c.26,0,.42-.08.53-.21.18-.18.21-.5.21-.87,0-.34-.03-.66-.18-.84-.11-.13-.29-.21-.55-.21s-.45.08-.55.21c-.18.18-.21.5-.21.84,0,.37.03.68.21.87.11.13.29.21.55.21m-1.71,0c.63,0,.79-.37.79-.74,0-.42-.16-.61-.53-.87-.29-.21-.32-.26-.32-.37,0-.08.05-.16.21-.16s.34.03.42.08l.21-.58c-.18-.05-.37-.08-.63-.08-.61,0-.76.37-.76.76,0,.45.21.63.55.87.29.21.32.26.32.37s-.08.18-.24.18c-.18,0-.34-.05-.47-.11l-.24.53c.08.03.34.11.68.11m-2.24-.55c-.13,0-.16-.05-.16-.5,0-.42.03-.47.16-.47.16,0,.18.08.18.47,0,.42,0,.5-.18.5m-.21.55c.18,0,.39,0,.47-.16l.03.13.47-.03v-2.71h-.58v.76c-.08-.11-.24-.11-.39-.11s-.26.05-.34.13c-.16.16-.18.47-.18.92s.03.76.16.92c.11.08.21.13.37.13m-2.16,0h.58v-1.24c0-.21.03-.26.16-.26.11,0,.13.03.13.26v1.24h.58v-1.5c0-.18-.03-.34-.11-.45-.08-.11-.18-.16-.42-.16-.18,0-.34.05-.42.16l-.03-.13-.47.03v2.05h0Zm-1.03-.5c-.13,0-.13-.08-.13-.21,0-.21.08-.26.29-.26v.26c0,.16-.03.21-.16.21m-.13.53c.24,0,.34-.05.42-.16.03.11.11.13.26.13h.24v-.55c-.11,0-.11-.03-.11-.11v-.84c0-.21-.03-.34-.11-.42-.11-.13-.26-.18-.53-.18-.37,0-.55.08-.68.13l.18.55c.11-.03.26-.08.42-.08.11,0,.13.03.13.13h-.03c-.58,0-.82.13-.82.71.05.45.18.68.61.68m-1.92-1.58c.13,0,.16.05.16.34h-.34c0-.29.05-.34.18-.34m-.03,1.55c.29,0,.45-.03.68-.11l-.16-.5c-.11.05-.29.11-.45.11s-.21,0-.24-.26h.84c.03-.63,0-.95-.16-1.16-.11-.13-.26-.18-.5-.18-.26,0-.42.08-.55.21-.16.18-.18.42-.18.84,0,.39.05.71.21.9.11.11.29.16.5.16m-1.21,0c.18,0,.29-.03.42-.05l-.16-.53c-.05.03-.13.03-.18.03-.16,0-.21,0-.21-.47s.05-.47.21-.47c.05,0,.11,0,.18.03l.16-.58c-.11-.03-.18-.05-.39-.05-.26,0-.42.08-.55.21-.16.18-.18.47-.18.84,0,.39.03.71.21.87.13.13.29.18.5.18m-1.66-.5c-.13,0-.13-.08-.13-.21,0-.21.08-.26.29-.26v.26c0,.16-.03.21-.16.21m-.13.53c.24,0,.34-.05.42-.16.03.11.11.13.26.13h.24v-.55c-.11,0-.11-.03-.11-.11v-.84c0-.21-.03-.34-.11-.42-.11-.13-.26-.18-.53-.18-.37,0-.55.08-.68.13l.18.55c.11-.03.26-.08.42-.08.11,0,.13.03.13.13h-.03c-.58,0-.82.13-.82.71.05.45.18.68.61.68m-1.34-1.58c.13,0,.16.05.16.34h-.34c0-.29.05-.34.18-.34m-.03,1.55c.29,0,.45-.03.68-.11l-.16-.5c-.11.05-.29.11-.45.11s-.21,0-.24-.26h.84c.03-.63,0-.95-.16-1.16-.11-.13-.26-.18-.5-.18-.26,0-.42.08-.55.21-.16.18-.18.42-.18.84,0,.39.05.71.21.9.11.11.29.16.5.16m-1.87-1.37v-.76h.21c.18,0,.24.08.24.37s-.08.37-.24.37h-.21v.03Zm-.58,1.37h.58v-.79h.21c.63,0,.82-.32.82-.95s-.18-.95-.82-.95h-.79v2.69Zm-1.71,0h.58v-1.18c0-.18.13-.26.34-.26v-.61c-.18,0-.34.05-.42.16l-.03-.16-.47.03v2.03Zm-.87-.55c-.16,0-.18-.08-.18-.47s.03-.47.18-.47.16.08.16.47,0,.47-.16.47m0,.55c.26,0,.42-.08.53-.21.18-.18.21-.5.21-.87,0-.34-.03-.66-.18-.84-.11-.13-.29-.21-.55-.21s-.45.08-.55.21c-.18.18-.21.5-.21.84,0,.37.03.68.21.87.13.13.29.21.55.21m-2-1.53h.24v1.53h.58v-1.53h.34v-.55h-.34c0-.11.03-.13.18-.13h.16v-.55h-.18c-.5,0-.71.16-.71.61v.08h-.24l-.03.55h0Z" style="fill:#fff;"></path>
  </g>
</svg>
