<?xml version="1.0" encoding="UTF-8"?>
<svg xmlns="http://www.w3.org/2000/svg" id="Layer_1" viewBox="0 0 141.73 141.73">
  <path d="m70.87,79.38c-1.33-1.06-2.63-2.07-3.92-3.11-3.56-2.9-7.1-5.81-10.66-8.72-1.95-1.59-2.81-3.66-2.8-6.16.02-7.97.02-15.95,0-23.92,0-.65.21-.88.81-1.03,5.29-1.35,10.58-2.73,15.87-4.08.39-.1.85-.14,1.24-.04,5.38,1.37,10.76,2.78,16.14,4.16.51.13.68.32.68.85-.02,8.19,0,16.37-.02,24.56,0,2.09-.74,3.93-2.36,5.27-4.24,3.52-8.52,6.99-12.79,10.48-.71.58-1.44,1.14-2.2,1.74Zm-15.77-28.59c-.04.11-.08.17-.08.24,0,3.74,0,7.48,0,11.22,0,.5.23.62.69.62,2.7-.02,5.4,0,8.1,0q1.46,0,1.8-1.42c.64-2.68,2.54-4.25,5.19-4.29,2.69-.04,4.63,1.49,5.32,4.2.12.48.2.96.32,1.51h.78c2.84,0,5.68,0,8.52,0,1.01,0,1.02,0,1.02-1,0-3.48,0-6.96,0-10.44,0-.2-.03-.41-.05-.62h-5.37v3.57h-21.64v-3.58h-4.59Zm31.05,13.65c-.05-.09-.11-.18-.16-.28-.33.15-.64.33-.98.43-.21.06-.52.09-.68-.02-.61-.43-1.43-.42-2.08.02-.15.1-.48.13-.63.03-.81-.5-1.36-.5-2.18,0-.14.09-.45.09-.57,0-.75-.58-1.45-.58-2.2,0-.12.09-.44.09-.57,0-.75-.57-1.45-.58-2.2,0-.12.1-.43.09-.57,0-.82-.5-1.38-.5-2.18,0-.15.09-.48.08-.63-.03-.66-.45-1.47-.45-2.08-.03-.17.11-.55.1-.73-.02-.55-.38-1.47-.37-2.04.02-.17.11-.55.1-.72-.01-.55-.38-1.47-.37-2.04.02-.17.11-.55.1-.72-.01-.55-.38-1.48-.37-2.04.01-.17.12-.55.11-.72,0-.57-.39-1.47-.39-2.04,0-.17.12-.5.07-.73,0-.31-.08-.61-.24-1.08-.44.41,1.56,1.83,1.91,2.48,2.93.03.05.2-.02.27.03.2.14.39.32.58.48.26.21.52.42.77.63.21.17.41.34.61.51.23.2.46.56.7.57.46.02.58.17.7.58.07.23.45.49.7.51.41.03.62.12.65.55.03.45.24.68.73.59.46-.09.65.12.67.58.02.43.25.63.7.53.44-.1.68.08.68.55,0,.5.26.65.73.54.41-.09.65.1.64.52,0,.48.2.71.68.6.5-.12.69.08.7.58,0,.43.23.63.69.52.48-.12.67.08.72.59.02.2.38.39.61.52.12.07.32-.03.48,0,.47.09.72-.06.7-.57-.02-.48.23-.65.67-.54.48.12.71-.04.69-.55-.01-.46.23-.67.67-.56.5.13.72-.06.72-.54,0-.46.22-.66.66-.56.49.12.72-.08.72-.56,0-.48.23-.63.68-.54.47.09.7-.08.69-.59-.01-.42.23-.62.64-.52.49.12.71-.08.73-.54.02-.46.23-.58.68-.58.24,0,.62-.29.68-.51.1-.43.24-.57.69-.59.25,0,.5-.32.71-.53.13-.13.2-.5.28-.49.71.05.85-.53,1.25-.87.52-.45,1.07-1.06,1.61-1.3.85-.39,1.13-1.02,1.58-1.63Zm-4.21-27.96c-.77-.2-1.42-.33-2.04-.55-.52-.18-.86-.06-1.24.33-5.38,5.4-10.77,10.78-16.16,16.17-.16.16-.29.33-.54.6,1.02,0,1.89-.03,2.76,0,.49.02.83-.14,1.18-.49,5.14-5.16,10.3-10.31,15.46-15.46.16-.16.32-.34.58-.62Zm-15.3,16.37c.03.06.05.12.08.18.89,0,1.79.04,2.68-.02.36-.03.78-.19,1.03-.44,4.9-4.86,9.78-9.74,14.66-14.62.15-.15.28-.3.47-.52-.73-.2-1.4-.34-2.04-.56-.49-.16-.82-.05-1.18.31-4.33,4.36-8.68,8.7-13.03,13.04-.88.88-1.78,1.75-2.67,2.63Zm11.49-17.35c-.59-.16-1.24-.29-1.86-.51-.55-.2-.9-.03-1.29.37-4.39,4.41-8.78,8.81-13.2,13.18-.51.51-.76,1-.7,1.72.07.75.01,1.51.01,2.28,5.73-5.73,11.37-11.37,17.04-17.04Zm-3.5-.91c-.77-.21-1.43-.35-2.07-.56-.49-.17-.81-.05-1.18.32-4.79,4.81-9.59,9.6-14.39,14.39-.16.16-.29.33-.55.62,1.02,0,1.86-.03,2.71,0,.51.02.88-.13,1.25-.5,4.54-4.56,9.09-9.1,13.63-13.64.18-.18.35-.36.6-.63Zm-3.89-.95c-1.17.3-2.38.57-3.57.94-.47.14-.96.4-1.31.75-3.08,3.04-6.07,6.17-9.22,9.12-1.27,1.19-1.92,2.41-1.64,4.12.04.25.05.52.07.78,5.27-5.28,10.46-10.48,15.67-15.7Zm.64,19.39c.82,0,1.69.04,2.56-.02.38-.03.83-.19,1.1-.45,3.5-3.45,6.94-6.96,10.47-10.38.92-.89,1.46-1.77,1.26-3.07-.07-.46-.01-.94-.01-1.46-5.19,5.19-10.27,10.28-15.37,15.38Zm15.36-10.79c-3.62,3.62-7.2,7.2-10.74,10.73h3.98v-3.61c.84,0,1.6.03,2.35-.01.28-.02.62-.12.81-.3,1.13-1.08,2.23-2.19,3.32-3.3.14-.14.26-.36.27-.54.03-.99.01-1.98.01-2.95Zm-22.02-7.04c-1.4.36-2.7.68-3.99,1.05-.32.09-.65.28-.89.51-1.49,1.45-2.95,2.93-4.42,4.4-.15.15-.37.32-.37.49-.03,1.06-.02,2.13-.02,3.25,3.25-3.25,6.41-6.42,9.69-9.7Zm10.03,27.61c-.22-2.84-1.95-4.41-4.43-4.1-2,.25-3.56,2.21-3.25,4.1h7.68Zm-16.18-26.03c-1.14.3-2.16.56-3.18.84-.14.04-.35.17-.35.26-.03.8-.02,1.6-.02,2.45,1.21-1.21,2.33-2.33,3.55-3.55Zm25.59,12.57c.75,0,1.5.02,2.24-.02.11,0,.31-.22.32-.34.03-.74.01-1.48.01-2.23-.87.88-1.69,1.7-2.57,2.59Z" style="fill:#363638;"></path>
  <path d="m99.83,91.81c-1.08.7-2.13,1.37-3.22,2.08-.24-.3-.46-.6-.7-.88-.69-.79-1.57-1.02-2.57-.86-.74.12-1.28.54-1.45,1.28-.18.78-.07,1.56.68,2.01.89.53,1.84.96,2.77,1.42.87.43,1.77.81,2.6,1.3,2.51,1.49,3.57,3.77,3.07,6.53-.44,2.45-2.21,4.08-5.05,4.58-2.25.4-4.44.18-6.49-.91-1.36-.72-2.37-1.78-3.1-3.22,1.14-.66,2.26-1.31,3.39-1.96.42.47.78.94,1.19,1.35,1.23,1.24,2.75,1.41,4.34.98.82-.22,1.43-.75,1.55-1.66.11-.93-.28-1.62-1.1-2.04-.95-.48-1.92-.91-2.87-1.39-.95-.48-1.94-.91-2.8-1.52-3.01-2.17-3.28-6.63-.65-9.05,2.28-2.09,8.28-2.45,10.41,1.95Z" style="fill:#363638;"></path>
  <path d="m14.17,105.14c1.16-.67,2.27-1.31,3.36-1.94.54.57.97,1.14,1.51,1.59,1.28,1.08,2.76,1.16,4.28.64.77-.26,1.27-.84,1.33-1.68.06-.83-.27-1.5-1.02-1.88-1.1-.56-2.24-1.01-3.31-1.61-1.13-.63-2.35-1.21-3.25-2.09-1.78-1.73-2.06-3.96-1.23-6.24.84-2.3,2.72-3.32,5.05-3.52,2.67-.23,4.98.48,6.49,2.9.09.14.16.28.27.49-1.09.7-2.15,1.39-3.25,2.09-.22-.29-.4-.56-.61-.81-.73-.86-1.66-1.14-2.74-.91-.71.15-1.2.57-1.36,1.29-.17.77-.04,1.5.65,1.96.69.45,1.44.81,2.18,1.17,1.06.53,2.17.96,3.19,1.55,2.58,1.49,3.6,3.77,3.09,6.65-.42,2.36-2.24,4.01-5.06,4.49-2.4.41-4.72.14-6.85-1.14-1.18-.71-2.06-1.7-2.71-2.99Z" style="fill:#363638;"></path>
  <path d="m76.92,91.79c-1.12.72-2.18,1.4-3.26,2.1-.2-.27-.37-.51-.56-.75-.71-.87-1.62-1.19-2.72-.99-.77.14-1.29.59-1.46,1.36-.17.78,0,1.51.71,1.93.91.54,1.9.95,2.83,1.45,1.15.61,2.36,1.13,3.4,1.88,2.07,1.49,2.61,3.66,2.16,6.05-.42,2.24-1.91,3.61-4.05,4.22-2.35.67-4.68.56-6.94-.43-1.6-.7-2.79-1.84-3.62-3.47,1.13-.66,2.24-1.3,3.4-1.97.32.38.6.75.91,1.1,1.23,1.39,2.79,1.7,4.52,1.28.89-.22,1.54-.77,1.65-1.74.11-.92-.32-1.61-1.14-2.02-1.01-.51-2.05-.96-3.07-1.47-.8-.4-1.63-.78-2.37-1.27-2.21-1.48-3.13-4.02-2.44-6.59.62-2.3,2.61-3.87,5.25-4.06,2.58-.19,4.84.42,6.37,2.72.13.19.24.4.41.67Z" style="fill:#363638;"></path>
  <path d="m46.08,88.38c3.13,6.89,6.25,13.77,9.43,20.78-1.48,0-2.82.01-4.17-.02-.16,0-.38-.24-.47-.42-.29-.59-.52-1.2-.8-1.86-2.02.5-4,.94-5.95,1.5-2.39.69-4.8,1.02-7.41.73,3.02-6.92,6.03-13.82,9.04-20.72h.32Zm2.44,14.95c-.92-2.38-1.8-4.65-2.65-6.85-1.1,2.8-2.22,5.65-3.38,8.62,2.08-.61,4.04-1.19,6.03-1.78Z" style="fill:#363638;"></path>
  <path d="m108.27,88.62c1.53,0,2.93-.02,4.32.02.21,0,.48.27.59.48,1.68,3.17,3.67,6.19,4.86,9.6.02.06.08.11.17.22.09-.22.16-.4.25-.58,1.54-3.14,3.08-6.28,4.63-9.41.08-.15.31-.32.47-.32,1.29-.03,2.59-.01,4-.01-.16.33-.27.56-.39.78-2.18,4.09-4.37,8.17-6.53,12.27-.23.44-.35.98-.36,1.47-.04,1.96-.02,3.92-.02,5.95h-4.25c0-1.53-.07-3.04.02-4.55.08-1.33-.28-2.46-.94-3.61-2.21-3.85-4.34-7.76-6.5-11.64-.1-.18-.18-.37-.33-.68Z" style="fill:#363638;"></path>
  <path d="m79.85,68.66c-.33.24-.52.5-.69.48-.18-.02-.44-.29-.45-.47,0-.15.27-.43.45-.45.17-.02.37.22.69.44Z" style="fill:#363638;"></path>
  <path d="m77.75,68.27c-.23-.34-.47-.55-.44-.72.02-.18.3-.43.48-.44.15,0,.42.29.43.47.01.17-.23.36-.46.69Z" style="fill:#363638;"></path>
  <path d="m80.56,68.27c-.24-.32-.48-.51-.47-.68.01-.18.27-.47.42-.47.17,0,.45.25.48.43.03.17-.21.38-.43.72Z" style="fill:#363638;"></path>
  <path d="m74.32,68.65c-.33.24-.53.5-.7.48-.18-.02-.45-.29-.46-.46,0-.15.28-.43.46-.45.17-.02.37.22.7.44Z" style="fill:#363638;"></path>
  <path d="m68.81,70.88c-.35.22-.55.45-.72.43-.18-.03-.33-.29-.49-.45.17-.16.32-.42.5-.44.17-.02.36.23.7.47Z" style="fill:#363638;"></path>
  <path d="m74.32,66.48c-.34.22-.54.45-.71.43-.18-.03-.46-.3-.45-.45.01-.17.28-.44.46-.46.17-.02.36.24.7.49Z" style="fill:#363638;"></path>
  <path d="m79.11,65.76c.24.32.5.5.49.68,0,.17-.27.46-.43.47-.16,0-.45-.25-.48-.42-.02-.18.21-.39.42-.73Z" style="fill:#363638;"></path>
  <path d="m72.25,68.27c-.25-.33-.5-.52-.49-.69.01-.18.28-.45.46-.46.15-.01.43.27.46.44.02.17-.21.37-.43.71Z" style="fill:#363638;"></path>
  <path d="m58.38,66.08c-.22-.35-.46-.55-.43-.72.03-.18.3-.33.46-.49.16.17.42.32.44.51.02.17-.23.36-.47.7Z" style="fill:#363638;"></path>
  <path d="m70.86,75.97c-.23-.34-.46-.54-.44-.71.02-.18.29-.33.45-.49.16.16.43.31.46.49.02.16-.22.36-.46.71Z" style="fill:#363638;"></path>
  <path d="m69.49,68.27c-.24-.33-.49-.52-.47-.69.01-.18.28-.46.44-.46.17,0,.45.26.47.44.02.17-.22.38-.44.71Z" style="fill:#363638;"></path>
  <path d="m77.12,70.84c-.35.24-.54.46-.73.47-.15,0-.46-.28-.44-.39.03-.2.24-.48.41-.5.17-.03.39.21.76.43Z" style="fill:#363638;"></path>
  <path d="m70.18,65.34c-.33.24-.51.49-.68.48-.18-.01-.47-.27-.47-.43,0-.17.25-.45.43-.48.17-.03.38.21.73.42Z" style="fill:#363638;"></path>
  <path d="m59.08,66.49c.33-.25.53-.51.69-.49.18.02.34.29.51.45-.16.16-.3.43-.48.46-.16.03-.37-.2-.71-.42Z" style="fill:#363638;"></path>
  <path d="m70.9,70.14c.22.37.45.6.42.76-.04.17-.33.38-.52.4-.11.02-.39-.3-.38-.45,0-.19.24-.37.49-.71Z" style="fill:#363638;"></path>
  <path d="m69.53,73.45c.21.35.44.57.41.74-.03.17-.32.42-.48.41-.16,0-.42-.3-.42-.47,0-.17.24-.35.5-.68Z" style="fill:#363638;"></path>
  <path d="m75.71,69.77c-.33.22-.53.46-.7.44-.18-.02-.46-.29-.45-.45,0-.17.28-.44.45-.46.17-.02.37.23.7.47Z" style="fill:#363638;"></path>
  <path d="m84.01,65.37c-.36.23-.55.46-.74.45-.16,0-.46-.3-.44-.41.04-.2.26-.47.45-.5.16-.03.37.22.73.46Z" style="fill:#363638;"></path>
  <path d="m73.69,73.77c-.26-.31-.52-.49-.52-.67,0-.17.26-.46.43-.48.16-.02.45.24.48.41.03.17-.19.39-.39.73Z" style="fill:#363638;"></path>
  <path d="m65.3,71.58c-.22-.36-.43-.56-.42-.74.01-.16.31-.45.42-.42.2.05.47.27.49.45.02.16-.24.37-.49.71Z" style="fill:#363638;"></path>
  <path d="m66.04,66.5c-.36.21-.56.42-.75.41-.15,0-.44-.31-.41-.42.05-.2.28-.47.45-.49.18-.02.38.24.72.49Z" style="fill:#363638;"></path>
  <path d="m68.07,69.38c-.22-.34-.46-.54-.44-.72.02-.17.3-.44.47-.44.16,0,.43.29.44.46.01.18-.23.37-.46.7Z" style="fill:#363638;"></path>
  <path d="m72.22,71.23c.24.36.46.55.46.74,0,.16-.28.47-.39.45-.2-.04-.47-.25-.5-.43-.03-.16.2-.38.43-.76Z" style="fill:#363638;"></path>
  <path d="m63.26,68.62c-.33.26-.51.53-.68.51-.18-.01-.35-.28-.53-.43.16-.17.29-.44.47-.48.16-.03.38.19.73.39Z" style="fill:#363638;"></path>
  <path d="m67.42,71.93c-.33.25-.52.51-.69.5-.18-.01-.46-.27-.47-.44,0-.16.25-.44.43-.47.17-.03.38.2.73.41Z" style="fill:#363638;"></path>
  <path d="m75.71,67.55c-.33.24-.52.49-.7.47-.18-.02-.45-.29-.46-.45,0-.16.27-.44.45-.46.17-.02.38.22.71.44Z" style="fill:#363638;"></path>
  <path d="m67.41,67.57c-.34.23-.55.48-.71.45-.18-.03-.33-.3-.49-.46.17-.16.32-.42.5-.45.16-.02.36.22.7.46Z" style="fill:#363638;"></path>
  <path d="m77.09,66.49c-.34.21-.55.45-.71.42-.18-.03-.45-.31-.44-.46.01-.17.29-.44.47-.45.17-.02.36.24.69.49Z" style="fill:#363638;"></path>
  <path d="m68.79,66.49c-.34.21-.54.45-.71.42-.18-.03-.33-.3-.49-.46.17-.16.32-.43.5-.45.17-.02.36.24.69.49Z" style="fill:#363638;"></path>
  <path d="m62.56,67.17c-.24-.33-.5-.53-.48-.69.02-.18.29-.34.45-.51.16.16.43.31.46.5.03.16-.21.37-.44.7Z" style="fill:#363638;"></path>
  <path d="m68.75,69.75c.37-.23.58-.47.75-.44.18.04.39.31.42.51.02.11-.29.4-.45.4-.19,0-.37-.22-.72-.46Z" style="fill:#363638;"></path>
  <path d="m64.64,69.78c-.33.22-.54.45-.7.43-.18-.02-.46-.3-.45-.45,0-.17.28-.44.46-.46.17-.02.37.24.7.48Z" style="fill:#363638;"></path>
  <path d="m65.35,67.97c.23.35.47.56.44.72-.03.18-.31.32-.48.48-.15-.17-.41-.33-.43-.52-.02-.16.23-.35.47-.68Z" style="fill:#363638;"></path>
  <path d="m74.34,70.87c-.34.22-.55.46-.71.44-.18-.03-.33-.29-.5-.45.17-.16.32-.43.5-.45.17-.02.37.23.71.46Z" style="fill:#363638;"></path>
  <path d="m70.18,71.9c-.32.26-.5.52-.67.52-.18,0-.47-.26-.48-.42-.01-.16.24-.45.41-.48.17-.03.39.19.74.39Z" style="fill:#363638;"></path>
  <path d="m75.01,71.26c.23.34.48.54.46.71-.02.18-.3.33-.46.49-.16-.17-.43-.32-.45-.5-.02-.17.22-.37.45-.7Z" style="fill:#363638;"></path>
  <path d="m68.8,73.01c-.32.26-.51.53-.67.52-.18-.01-.35-.28-.52-.43.15-.17.29-.44.47-.48.16-.03.38.19.73.4Z" style="fill:#363638;"></path>
  <path d="m71.57,73.1c-.35.22-.56.46-.73.43-.17-.03-.42-.32-.42-.49,0-.15.3-.41.47-.42.17,0,.36.24.68.48Z" style="fill:#363638;"></path>
  <path d="m63.95,66.07c-.24-.33-.49-.53-.47-.69.02-.18.28-.34.44-.5.17.16.44.3.47.48.03.17-.21.37-.44.71Z" style="fill:#363638;"></path>
  <path d="m64.64,67.55c-.33.24-.53.49-.7.47-.18-.02-.45-.29-.46-.45,0-.16.27-.44.44-.46.17-.02.37.22.71.44Z" style="fill:#363638;"></path>
  <path d="m61.88,67.56c-.34.23-.54.48-.71.46-.18-.02-.45-.29-.45-.45,0-.16.27-.43.45-.45.17-.02.37.22.7.45Z" style="fill:#363638;"></path>
  <path d="m81.89,65.76c.24.32.49.51.48.69-.01.17-.28.46-.44.47-.16,0-.45-.26-.47-.43-.02-.17.21-.38.43-.72Z" style="fill:#363638;"></path>
  <path d="m75.73,65.35c-.35.24-.54.46-.73.47-.15,0-.46-.28-.44-.39.03-.2.25-.48.42-.51.17-.03.39.21.75.43Z" style="fill:#363638;"></path>
  <path d="m71.56,66.43c-.32.24-.51.49-.68.48-.18-.01-.47-.27-.47-.42,0-.17.25-.46.42-.48.17-.03.38.21.73.43Z" style="fill:#363638;"></path>
  <path d="m81.24,65.33c-.32.24-.5.5-.68.49-.17,0-.46-.27-.47-.43,0-.17.25-.45.42-.48.17-.03.38.21.73.42Z" style="fill:#363638;"></path>
  <path d="m72.98,74.14c-.36.24-.54.46-.73.46-.16,0-.47-.28-.45-.39.04-.2.24-.47.42-.51.16-.03.38.21.76.44Z" style="fill:#363638;"></path>
  <path d="m61.16,64.63c.23.36.44.56.44.75,0,.16-.29.46-.4.43-.2-.04-.47-.26-.49-.43-.03-.17.21-.38.45-.74Z" style="fill:#363638;"></path>
  <path d="m71.56,68.66c-.33.24-.53.49-.7.48-.17-.01-.44-.29-.45-.46,0-.15.27-.43.45-.45.17-.02.37.22.7.43Z" style="fill:#363638;"></path>
  <path d="m72.22,69.04c.24.35.46.53.46.72,0,.15-.28.46-.39.44-.2-.03-.48-.24-.51-.41-.03-.17.21-.39.44-.75Z" style="fill:#363638;"></path>
  <path d="m78.49,69.8c-.37.21-.57.42-.76.41-.16-.01-.45-.32-.42-.42.06-.2.28-.46.46-.48.16-.02.36.24.72.5Z" style="fill:#363638;"></path>
  <path d="m77.1,68.63c-.34.26-.54.52-.7.5-.17-.02-.4-.29-.45-.48-.03-.12.25-.42.4-.43.19-.01.39.2.75.4Z" style="fill:#363638;"></path>
  <path d="m72.27,64.64c.21.37.42.57.41.76,0,.15-.31.44-.43.41-.2-.05-.46-.28-.48-.45-.02-.17.24-.37.5-.72Z" style="fill:#363638;"></path>
  <path d="m78.48,65.41c-.37.21-.58.42-.76.4-.16-.01-.45-.32-.42-.43.05-.2.28-.45.47-.48.16-.02.36.24.71.5Z" style="fill:#363638;"></path>
  <path d="m66.66,66.09c-.22-.38-.46-.6-.42-.76.04-.18.32-.38.52-.41.11-.02.38.3.38.46,0,.19-.23.37-.48.71Z" style="fill:#363638;"></path>
  <path d="m67.42,69.78c-.36.22-.56.44-.74.43-.16,0-.44-.3-.42-.42.04-.19.26-.46.44-.49.16-.03.36.23.72.48Z" style="fill:#363638;"></path>
</svg>
