<?xml version="1.0" encoding="UTF-8"?>
<svg xmlns="http://www.w3.org/2000/svg" id="Layer_1" viewBox="0 0 141.73 141.73">
  <path d="m107.27,67.73c0-3.11,0-6.23,0-9.34,0-.57.2-.77.78-.77,5.28,0,10.56,0,15.84,0,.96,0,1.92,0,2.88,0,.58,0,.78.2.78.77,0,6.23,0,12.47,0,18.7,0,.58-.21.79-.79.79-6.23,0-12.46,0-18.7,0-.59,0-.79-.2-.79-.78,0-3.12,0-6.24,0-9.36h0Zm10.67,2.25c.04-.4.18-.78.29-1.16.6-1.97,1.52-3.8,2.54-5.58.11-.19.22-.39.32-.59.04-.09.06-.22-.06-.28-.11-.06-.18.02-.23.11-.08.12-.16.23-.24.35-1,1.43-1.73,3-2.44,4.59-.14.32-.27.65-.42,1-.29-.71-.82-1.08-1.48-1.3,0-.31,0-.62,0-.93,0-.12-.02-.18-.16-.17-.18.01-.37.01-.56,0-.14,0-.16.05-.16.17,0,.25,0,.5,0,.75-.23-.01-.46-.03-.69-.03-.13,0-.16-.03-.08-.15.2-.28.39-.56.59-.84.58-.85,1.14-1.71,1.25-2.77.06-.64-.18-1.3-.81-1.57-.41-.17-.82-.12-1.21.06-1.36.62-2.39,1.61-3.13,2.91-.03.04-.05.09-.06.14-.01.05-.02.11.03.15.05.04.11.02.16-.02.08-.07.14-.15.2-.24.56-.84,1.28-1.52,2.12-2.07.4-.27.83-.46,1.33-.42.4.03.66.25.76.63.07.3,0,.59-.08.87-.22.81-.71,1.48-1.19,2.15-.07.09-.11.21-.23.26-.03-.07,0-.12.01-.18.08-.35.18-.7.2-1.07,0-.15-.04-.27-.21-.29-.16-.03-.28.05-.33.2-.14.5-.27,1-.41,1.5-.29-.09-.59-.13-.9-.13-1.19,0-2.38,0-3.57,0-.17,0-.22.04-.22.22,0,1.43,0,2.87,0,4.3,0,.16.03.21.2.21.85,0,1.71,0,2.57,0,.01.12-.05.21-.09.32-.14.38-.28.76-.27,1.18,0,.09,0,.19.1.23.1.04.17-.05.22-.12.35-.5.63-1.03.85-1.6.21,0,.42,0,.62-.02.82-.05,1.22-.48,1.22-1.29,0-.06,0-.12,0-.18,0-.44-.07-.84-.56-1.05.25-.15.35-.36.4-.6.4.01.8-.03,1.2.06,0,.96,0,1.92,0,2.88,0,.15.04.2.19.2.41-.01.83,0,1.24,0-.03.26-.19.47-.34.66-.75.99-1.72,1.67-2.9,2.04-.86.27-1.73.5-2.64.36-.4-.06-.76-.19-1.02-.53-.29-.38-.31-.8-.26-1.25.02-.16.05-.32.06-.48,0-.07,0-.15-.07-.17-.08-.02-.11.06-.14.12-.06.14-.12.29-.16.44-.19.73-.13,1.42.45,1.97.56.54,1.27.63,1.99.6.71-.03,1.41-.21,2.08-.43,1.1-.37,2.04-.98,2.82-1.84.18-.2.32-.43.52-.68.02.37.16.65.31.91.31.54.81.63,1.28.23.42-.35.75-.78,1.01-1.26.25-.46.49-.93.73-1.4.07.12.14.25.21.37-.02.39-.01.77.16,1.13.2.42.51.56.94.4.55-.21.9-.64,1.18-1.14.11,0,.22-.01.33-.02.54-.02,1.08.03,1.62-.05.52-.08.9-.4.94-.92.1-1.23.02-2.46.04-3.69,0-.09-.05-.11-.13-.11-.18,0-.36.01-.53,0-.18-.02-.22.04-.22.22,0,.79,0,1.57,0,2.36-.01-.03-.04-.05-.04-.08-.05-.45-.1-.91-.14-1.37-.01-.16-.04-.3-.22-.34-.19-.04-.26.09-.33.23-.38.75-.73,1.52-1.14,2.26-.13.24-.31.45-.41.71-.3.03-.6.02-.9,0-.14,0-.28-.02-.39-.12.08-.57.18-1.14.3-1.7.13-.61.26-1.21.32-1.83.02-.21-.07-.4-.24-.43-.21-.04-.28.12-.33.28-.02.06-.03.13-.06.19-.05.09-.01.23-.15.27-.02-.21.09-.49-.05-.62-.14-.12-.41-.02-.62-.04-.16-.01-.2.04-.2.2,0,.73,0,1.45,0,2.18,0,.21.02.43-.02.64-.16.2-.24.45-.37.67-.12.21-.18.45-.36.62,0-.03-.01-.06,0-.09.04-.22-.05-.28-.27-.27-.49.02-.97,0-1.46,0Z" style="fill:#646468;"></path>
  <path d="m33.6,80.91c1.92-.5,3.84-.96,5.78-1.38,2.12-.46,4.24-.89,6.38-1.27,2.17-.39,4.35-.74,6.53-1.06,1.91-.28,3.83-.52,5.75-.74,1.91-.21,3.83-.4,5.75-.56,2.5-.21,5-.36,7.5-.47,3.43-.15,6.85-.19,10.28-.15,2.2.03,4.4.1,6.6.21.37.02.74,0,1.11.1.21.06.44.11.49.36.04.24-.12.42-.3.56-.25.2-.57.25-.88.28-.87.09-1.75.12-2.63.1-.02.08.06.08.09.1.09.07.2.13.19.25,0,.14-.13.19-.24.24-.29.13-.61.19-.92.24-1.64.24-3.29.26-4.94.28-1.47.02-2.93,0-4.4-.02-.07,0-.13,0-.2,0,.11.44.03.58-.4.73-.45.16-.92.18-1.38.21-.65.03-1.29,0-1.94-.04-2.23-.1-4.46-.01-6.69.07-1.66.07-3.33.17-4.99.29-1.52.11-3.04.23-4.56.38-1.5.15-3,.29-4.5.46-1.56.17-3.11.36-4.67.57-1.8.23-3.59.47-5.39.73-1.49.21-2.98.45-4.47.68-.65.1-1.29.21-1.94.31-.39-.46-.69-.98-1.02-1.49Z" style="fill:#646468;"></path>
  <path d="m33.6,80.91c.33.5.63,1.03,1.02,1.49.28.4.56.8.83,1.21.15.21.29.43.39.67.1.25.03.36-.24.38-.24.02-.46-.05-.67-.14-.69-.27-1.31-.67-1.91-1.08-.3-.2-.6-.41-.89-.62-.44-.38-.88-.77-1.33-1.15-.66-.66-1.32-1.31-1.93-2.01-2.22-2.56-3.99-5.4-5.26-8.54-.14-.36-.06-.57.3-.73.15-.07.31-.11.47-.14.16-.03.31-.06.5-.09-.14-.08-.26-.13-.37-.2-.16-.1-.15-.22.03-.29.21-.09.45-.1.68-.11,1.13-.05,2.26-.14,3.35-.45.69-.2,1.34-.48,1.83-1.04.58-.65.66-1.38.24-2.14-.37-.67-.91-1.2-1.57-1.57-2.23-1.28-4.6-2.16-7.15-2.54-2.21-.33-4.41-.32-6.59.29-.31.09-.62.07-.92-.04-.22-.08-.28-.22-.19-.44.07-.18.18-.33.31-.46,1.29-1.22,2.71-2.22,4.45-2.68.61-.16,1.22-.17,1.85-.02.46.11.96.1,1.44.16,2.78.38,5.37,1.25,7.66,2.9,1.24.89,2.28,1.98,2.93,3.38.43.92.59,1.89.3,2.88-.28.94-.93,1.59-1.75,2.08-.89.53-1.88.76-2.91.8-.31.01-.62,0-.92,0-.05.09.01.12.04.16.12.18.24.36.32.56.65,1.65,1.61,3.13,2.53,4.64.97,1.6,2,3.16,3.02,4.73.04.06.09.12.13.18Z" style="fill:#363638;"></path>
  <path d="m52.99,72.67c-.3.37-.67.67-1.07.92-.8.5-1.65.91-2.58,1.1-.34.07-.68.1-1.02.05-.91-.13-1.5-.74-1.69-1.73-.25-1.31-.07-2.58.31-3.84.41-1.34,1.03-2.55,2.04-3.55.32-.31.67-.58,1.06-.81.76-.46,1.52-.43,2.28,0,.78.43,1.27.95,1.81,1.92.06-.49.12-.95.17-1.41.18-1.61.31-3.22.39-4.84.09-1.79.12-3.58.06-5.37,0-.28-.06-.56,0-.84.07-.31.26-.41.54-.26.17.09.33.21.46.35.99,1.05,1.81,2.22,2.26,3.61.28.87.35,1.73-.02,2.61-.13.3-.08.67-.14,1.01-.23,1.54-.63,3.03-1.07,4.52-.81,2.76-1.77,5.48-2.8,8.17-.15.39-.31.77-.55,1.11-.21.29-.42.28-.6-.03-.17-.29-.17-.61-.16-.93.01-.52.14-1.01.3-1.5.03-.08.12-.16.02-.25,0,.02.02.03.03.05,0,0,0-.01.01-.02-.01-.01-.03-.02-.04-.03Zm.76-3.47s-.03,0-.04,0c-.04.02-.08.03-.12.05-.58.25-1.1.16-1.56-.27-.24-.23-.42-.5-.56-.8-.08-.19-.09-.39.09-.52.16-.11.16-.24.12-.41-.06-.2-.06-.46-.27-.53-.21-.06-.37.14-.52.29-.43.42-.76.91-1.02,1.45-.46.95-.79,1.94-.69,3.02.07.8.36,1.19,1.34,1.19.49,0,.91-.24,1.3-.52.67-.48,1.19-1.09,1.68-1.74.03-.04.06-.09.07-.14.07-.35.13-.71.2-1.07Z" style="fill:#363638;"></path>
  <path d="m14.84,83.12c0-.56.21-1.34.44-2.12,1.28-4.35,3.45-8.29,5.57-12.26.8-1.49,1.62-2.97,2.51-4.4.16-.26.34-.52.57-.74.28-.27.43-.23.54.14.14.48.05.94-.1,1.4-.2.58-.49,1.11-.73,1.67-.98,2.39-1.78,4.83-2.54,7.3-1.11,3.6-2.1,7.24-3.02,10.9-.14.54-.12,1.11-.13,1.66,0,.27,0,.55-.06.82-.07.31-.36.4-.61.19-.2-.17-.28-.42-.36-.66-.01-.03-.02-.07-.03-.11-.05-.26-.17-.42-.41-.59-.51-.37-.97-.83-1.31-1.37-.25-.4-.35-.95-.34-1.85Z" style="fill:#363638;"></path>
  <path d="m40.67,67.88c.12-.33.22-.64.33-.94.11-.28.24-.56.45-.79.27-.3.55-.29.82,0,0,0,.01.01.02.02.34.39.4.43.86.62.61.25.72.65.36,1.19-.17.26-.21.57-.29.86-.33,1.18-.7,2.36-.99,3.55-.08.35-.11.71-.09,1.06.02.3.17.35.41.18.6-.41,1.22-.79,1.89-1.08.12-.05.24-.09.36-.12.15-.03.22.04.21.2-.02.2-.13.36-.25.51-.3.39-.69.68-1.06.98-.24.19-.41.44-.4.76,0,.21-.04.41-.2.55-.68.58-1.47.92-2.38.88-.48-.02-.78-.33-.93-.78-.08-.25-.13-.5-.15-.76-.1,0-.12.08-.16.13-.77.9-1.67,1.6-2.85,1.88-.33.08-.67.14-1.01.16-.67.04-1.17-.26-1.54-.8-.45-.67-.5-1.42-.42-2.18.14-1.38.73-2.6,1.45-3.76.63-1.03,1.39-1.97,2.2-2.86.33-.36.72-.63,1.23-.72,1.01-.17,1.83.3,2.14,1.26Zm-3.33,7.11s.1,0,.16-.01c1.04-.16,2.14-1.01,2.21-2.3,0-.05.01-.1.02-.15.14-1.08.4-2.14.63-3.21.02-.08.06-.17.02-.24-.21-.29-.28-.64-.44-.94-.14-.26-.25-.28-.45-.06-1.27,1.33-2.17,2.87-2.7,4.62-.16.54-.28,1.1-.2,1.67.06.42.3.63.76.63Z" style="fill:#363638;"></path>
  <path d="m67.78,66.86c-.58.65-1.13,1.29-1.7,1.92-1.05,1.15-2.1,2.31-3.32,3.29-.58.46-1.18.9-1.87,1.19-.26.11-.53.19-.82.19-.29,0-.52-.11-.69-.37-.39-.64-.58-1.33-.65-2.06-.18-1.76,0-3.5.44-5.21.09-.34.24-.67.47-.95.34-.42.75-.52,1.25-.3.12.05.25.08.38.11.79.22,1.14.77.97,1.57-.08.37-.15.76-.31,1.11-.07.16-.14.29-.33.37-.17.07-.23.26-.3.43-.2.48-.28.98-.36,1.49-.1.63,0,1.26-.04,1.89-.02.29.13.38.4.25.5-.24.91-.61,1.33-.96.89-.73,1.59-1.64,2.33-2.51.9-1.06,1.77-2.14,2.51-3.32.16-.25.3-.51.41-.79.07-.17.16-.34.29-.47.21-.21.43-.22.65-.02.1.08.19.17.24.29.23.48.62.85.94,1.26.81,1.01,1.55,2.07,2.01,3.29.11.28.18.56.24.86.11.54-.02,1.03-.29,1.49-.57.98-1.46,1.53-2.51,1.87-.91.29-1.85.37-2.8.35-.25,0-.54-.06-.63-.34-.08-.25.17-.39.33-.53.09-.08.19-.14.3-.19,1.49-.65,2.14-1.95,1.75-3.54-.14-.56-.36-1.1-.65-1.63Z" style="fill:#363638;"></path>
  <path d="m98.97,67.26c-.65.79-1.21,1.58-1.6,2.48-.38.87-.81,1.7-1.43,2.42-.3.35-.66.65-1.07.86-.66.34-1.16.15-1.42-.55-.21-.58-.27-1.2-.26-1.82,0-1.25.23-2.48.54-3.69.14-.56.28-1.12.56-1.64.14-.26.3-.5.52-.69.33-.28.74-.32,1.12-.11.07.04.14.08.22.1.8.27,1.12.77,1,1.6-.06.41-.2.81-.4,1.17-.08.14-.17.29-.38.25-.07,0-.11.06-.16.11-.18.18-.28.41-.33.65-.08.34-.13.69-.08,1.04,0,.06.02.12.08.14.07.02.11-.03.15-.07.13-.14.22-.31.31-.49.43-.84.9-1.66,1.49-2.39.23-.29.51-.54.82-.75.55-.36.95-.25,1.25.33.77,1.49,1.54,2.98,2.48,4.37.23.34.48.65.81.92.41.33.77.72,1.07,1.16.14.19.25.4.33.63.15.47,0,.81-.45,1.03-.4.19-.84.22-1.28.25-.16.01-.31,0-.47,0-.5.04-.87-.19-1.17-.57-.2-.26-.36-.55-.47-.85-.43-1.16-.94-2.29-1.3-3.47-.24-.77-.47-1.55-.48-2.42Z" style="fill:#363638;"></path>
  <path d="m84.72,72.67c-1.32-.01-1.96-.83-1.7-2.02.16-.74.48-1.43.82-2.11.8-1.62,1.75-3.15,2.74-4.65.17-.26.38-.48.64-.65.3-.19.6-.29.94-.09.11.06.23.01.35,0,.21,0,.44-.06.57.15.13.21.02.43-.1.6-.47.68-.91,1.39-1.26,2.14-.56,1.21-1.08,2.44-1.39,3.74-.04.17-.08.33-.05.51.04.27.2.39.47.34.42-.08.78-.28,1.1-.56.23-.2.41-.44.72-.55.14-.05.11-.23.09-.36-.05-.43-.16-.84-.28-1.26-.11-.4-.29-.78-.31-1.2,0-.24.01-.47.15-.68.21-.31.53-.36.82-.11.24.21.39.49.51.77.36.82.59,1.68.76,2.55.04.21.03.43-.03.64-.1.3-.3.52-.62.54-.42.02-.73.23-1.03.47-.45.35-.85.77-1.36,1.04-.84.44-1.73.68-2.54.74Z" style="fill:#363638;"></path>
  <path d="m76.55,66.4c-.72.56-1.41,1.1-2.1,1.64-.16.13-.32.33-.54.22-.21-.1-.17-.35-.17-.54,0-.28.07-.54.17-.8.07-.17.18-.3.34-.4.83-.55,1.55-1.22,2.07-2.08.16-.26.27-.54.38-.82.26-.67.73-1.14,1.41-1.4.3-.11.52-.06.65.11.15.2.12.48-.07.72-.08.1-.17.21-.28.29-.45.36-.53.82-.39,1.34.17.66.49,1.21,1.07,1.61.7.5,1.31,1.1,1.72,1.87.41.75.39,1.5-.03,2.25-.54.94-1.37,1.5-2.37,1.85-.97.34-1.99.42-3.01.4-.32,0-.55-.15-.59-.35-.04-.23.1-.47.4-.61.23-.11.46-.19.68-.32,1.21-.73,1.68-1.94,1.29-3.41-.07-.26-.15-.51-.25-.76-.11-.27-.24-.52-.37-.81Z" style="fill:#363638;"></path>
  <path d="m92.78,75.74c1.52.06,2.91.16,4.3.3.28.03.56.08.82.2.42.2.5.57.18.92-.22.24-.5.38-.79.48-1.09.35-2.2.47-3.34.28-.18-.03-.35-.08-.5-.18-.14-.09-.25-.2-.26-.37-.02-.24-.18-.34-.38-.4-.39-.11-.79-.1-1.19-.12-.2-.01-.4-.03-.59-.09-.26-.09-.32-.23-.21-.48.15-.34.42-.5.78-.55.44-.07.87.03,1.19.01Z" style="fill:#646468;"></path>
  <path d="m64.75,59.49c-.02.44-.22.88-.67,1.19-.48.34-.96.67-1.51.89-.47.19-.63.08-.54-.41.12-.65.19-1.3.28-1.96.05-.37.23-.69.53-.93.49-.4,1.14-.35,1.56.12.25.28.36.62.36,1.1Z" style="fill:#363638;"></path>
  <path d="m30.8,81.66c.44.38.88.77,1.33,1.15-1.41.25-2.82.49-4.23.74-.26.04-.52.05-.78.02-.27-.03-.32-.16-.17-.39.22-.33.54-.51.92-.63.98-.29,1.96-.6,2.94-.89Z" style="fill:#646468;"></path>
  <path d="m111.65,70.75c-.86,0-1.71,0-2.57,0-.17,0-.2-.05-.2-.21,0-1.43,0-2.87,0-4.3,0-.18.05-.22.22-.22,1.19,0,2.38,0,3.57,0,.31,0,.61.04.9.13.36.21.55.53.57.95,0,.17,0,.34,0,.51-.05.24-.15.45-.4.6.49.22.57.61.56,1.05,0,.06,0,.12,0,.18,0,.81-.4,1.24-1.22,1.29-.21.01-.41.01-.62.02-.27,0-.54,0-.81,0Zm1.17-.77c.38,0,.57-.08.6-.31.04-.22.04-.44,0-.66-.02-.09-.05-.17-.15-.2-.23-.13-.48-.11-.72-.1-.88,0-1.75,0-2.63,0-.11,0-.16.03-.16.15,0,.34,0,.68,0,1.02,0,.08.02.12.11.12.73,0,1.45,0,2.18-.01.26,0,.51,0,.77,0Zm.43-2.81c.03-.21-.09-.31-.26-.35-.11-.03-.24-.03-.35-.03-.8,0-1.6,0-2.4,0-.47,0-.47,0-.47.46,0,.22-.07.52.04.64.13.15.43.05.66.05.82,0,1.63,0,2.45-.01.29-.06.36-.15.36-.43,0-.11,0-.22-.02-.33Z" style="fill:#fefefe;"></path>
  <path d="m121.47,69.9c.11.1.25.12.39.12.3.02.6.03.9,0,.25.03.51.01.76.01.37,0,.75.05,1.12-.04.27-.04.39-.13.4-.35.01-.34,0-.69,0-1.03,0-.79.01-1.57,0-2.36,0-.18.05-.24.22-.22.18.02.36,0,.53,0,.08,0,.13.01.13.11-.02,1.23.06,2.46-.04,3.69-.04.52-.42.84-.94.92-.54.08-1.08.03-1.62.05-.11,0-.22.01-.33.02-.33-.04-.66-.01-.99-.01-.18-.01-.35-.03-.53-.04-.28-.04-.54-.15-.76-.33-.07-.12-.14-.25-.21-.37-.11-.33-.03-.68-.09-1.01.05-.21.02-.43.02-.64,0-.73,0-1.45,0-2.18,0-.16.04-.21.2-.2.21.02.49-.09.62.04.14.13.02.41.05.62,0,.96,0,1.92,0,2.88,0,.13.02.27.16.34Z" style="fill:#fefefe;"></path>
  <path d="m120.41,69.05c.06.33-.02.68.09,1.01-.24.47-.48.94-.73,1.4-.26.48-.59.91-1.01,1.26-.47.4-.97.31-1.28-.23-.15-.27-.29-.55-.31-.91-.2.25-.34.48-.52.68-.78.86-1.72,1.47-2.82,1.84-.68.23-1.37.41-2.08.43-.72.03-1.43-.06-1.99-.6-.58-.56-.64-1.24-.45-1.97.04-.15.1-.29.16-.44.02-.06.06-.14.14-.12.07.02.08.11.07.17-.01.16-.04.32-.06.48-.05.44-.03.87.26,1.25.26.33.62.47,1.02.53.91.14,1.78-.09,2.64-.36,1.18-.37,2.15-1.06,2.9-2.04.15-.2.3-.4.34-.66.34,0,.69,0,1.03,0-.02.31-.02.62.08.92.14.41.43.48.74.19.25-.24.44-.52.63-.8.07-.1.17-.17.15-.31.22.04.3-.06.26-.28,0-.04,0-.09,0-.13.18-.17.24-.42.36-.62.13-.22.2-.47.37-.67Z" style="fill:#878787;"></path>
  <path d="m114.14,67.62c0-.17,0-.34,0-.51-.01-.42-.2-.74-.57-.95.13-.5.26-1,.41-1.5.04-.15.16-.23.33-.2.16.03.22.14.21.29-.02.36-.12.72-.2,1.07-.01.06-.04.11-.01.18.13-.04.17-.16.23-.26.49-.67.97-1.34,1.19-2.15.08-.28.15-.57.08-.87-.09-.39-.35-.6-.76-.63-.5-.04-.93.16-1.33.42-.84.55-1.56,1.23-2.12,2.07-.06.09-.12.17-.2.24-.05.04-.11.06-.16.02-.05-.03-.04-.1-.03-.15.01-.05.03-.1.06-.14.74-1.29,1.76-2.29,3.13-2.91.39-.17.8-.23,1.21-.06.62.26.87.92.81,1.57-.1,1.06-.67,1.92-1.25,2.77-.19.28-.39.56-.59.84-.08.12-.05.15.08.15.23,0,.46.02.69.03,0,.24,0,.48,0,.72-.4-.08-.8-.04-1.2-.06Z" style="fill:#878787;"></path>
  <path d="m115.34,67.67c0-.24,0-.48,0-.72,0-.25.01-.5,0-.75,0-.12.02-.18.16-.17.18.01.37.01.56,0,.13,0,.16.05.16.17,0,.31,0,.62,0,.93,0,.26-.04.53.02.79-.07.66-.01,1.33-.03,1.99,0,.09.07.08.12.08.25,0,.5,0,.76,0,.28,0,.57,0,.85,0,.49,0,.97.02,1.46,0,.22,0,.31.05.27.27,0,.03,0,.06,0,.09,0,.04-.01.09,0,.13.04.22-.04.31-.26.28-.53,0-1.07,0-1.6,0-.34,0-.69,0-1.03,0-.41,0-.83-.01-1.24,0-.16,0-.19-.04-.19-.2,0-.96,0-1.92,0-2.88Z" style="fill:#fefefe;"></path>
  <path d="m117.95,69.98c-.28,0-.57,0-.85,0,.03-.15.05-.3.08-.46.14-.72-.26-1.4-.93-1.61-.06-.26-.02-.53-.02-.79.66.22,1.19.59,1.48,1.3.15-.36.28-.68.42-1,.71-1.59,1.44-3.16,2.44-4.59.08-.12.16-.23.24-.35.06-.08.12-.17.23-.11.11.06.1.19.06.28-.1.2-.21.39-.32.59-1.02,1.78-1.94,3.61-2.54,5.58-.12.38-.25.76-.29,1.16Z" style="fill:#878787;"></path>
  <path d="m125.04,68.6c0,.34,0,.69,0,1.03,0,.22-.13.31-.4.35-.14-.56-.2-1.14-.25-1.76-.16.19-.21.38-.29.56-.2.41-.39.83-.58,1.24-.25,0-.51.02-.76-.01.1-.26.28-.47.41-.71.41-.74.77-1.5,1.14-2.26.07-.14.14-.27.33-.23.18.04.21.18.22.34.04.46.09.91.14,1.37,0,.03.03.05.04.08Z" style="fill:#878787;"></path>
  <path d="m120.72,70.43c.22.18.48.29.76.33-.01.14,0,.29.16.34.12.04.33-.14.37-.3.33,0,.66-.02.99.01-.28.5-.63.94-1.18,1.14-.44.16-.75.02-.94-.4-.17-.36-.18-.74-.16-1.13Z" style="fill:#878787;"></path>
  <path d="m121.47,69.9c-.14-.07-.16-.21-.16-.34,0-.96,0-1.92,0-2.88.14-.04.1-.18.15-.27.03-.06.04-.13.06-.19.06-.16.12-.32.33-.28.16.03.26.22.24.43-.06.62-.19,1.22-.32,1.83-.12.56-.22,1.13-.3,1.7Z" style="fill:#878787;"></path>
  <path d="m111.65,70.75c.27,0,.54,0,.81,0-.22.57-.5,1.1-.85,1.6-.05.07-.11.15-.22.12-.1-.04-.1-.14-.1-.23-.02-.42.13-.8.27-1.18.04-.1.1-.2.09-.32Z" style="fill:#878787;"></path>
  <path d="m52.99,72.67s.03.02.04.03c0,0,0,.01-.01.02,0-.02-.02-.03-.03-.05,0,0,0,0,0,0Z" style="fill:#fefefe;"></path>
  <path d="m112.9,67.92c-.82,0-1.63.01-2.45.01-.23,0-.53.1-.66-.05-.11-.13-.04-.42-.04-.64,0-.46,0-.46.47-.46.8,0,1.6,0,2.4,0,.12,0,.24,0,.35.03.18.04.3.14.26.35-.07,0-.08.06-.1.1-.09.22-.17.43-.25.65Z" style="fill:#646468;"></path>
  <path d="m112.05,69.97c-.73,0-1.45,0-2.18.01-.09,0-.11-.03-.11-.12,0-.34,0-.68,0-1.02,0-.12.04-.15.16-.15.88,0,1.75,0,2.63,0-.02.06-.03.11-.05.17-.14.37-.34.71-.43,1.1Z" style="fill:#646468;"></path>
  <path d="m112.05,69.97c.09-.39.3-.73.43-1.1.02-.05.04-.11.05-.17.25,0,.49-.03.72.1-.02.06-.03.11-.05.17-.12.34-.3.66-.4,1.01-.26,0-.51,0-.77,0Z" style="fill:#878787;"></path>
  <path d="m112.81,69.98c.1-.35.27-.67.4-1.01.02-.05.03-.11.05-.17.1.03.13.11.15.2.04.22.04.44,0,.66-.04.23-.23.32-.6.31Z" style="fill:#646468;"></path>
  <path d="m112.9,67.92c.08-.22.16-.44.25-.65.02-.04.03-.1.1-.1,0,.11.02.22.02.33,0,.28-.07.36-.36.43Z" style="fill:#5757bc;"></path>
  <path d="m123.52,70.03c.19-.42.38-.83.58-1.24.08-.17.13-.37.29-.56.04.62.1,1.2.25,1.76-.37.09-.75.03-1.12.04Z" style="fill:#646468;"></path>
  <path d="m122,70.8c-.04.15-.24.33-.37.3-.17-.05-.17-.19-.16-.34.18.01.35.03.53.04Z" style="fill:#646468;"></path>
  <path d="m117.82,70.75c.53,0,1.07,0,1.6,0,.02.14-.08.22-.15.31-.19.28-.38.57-.63.8-.31.3-.6.23-.74-.19-.1-.3-.1-.61-.08-.92Z" style="fill:#646468;"></path>
  <path d="m116.24,67.91c.67.21,1.06.88.93,1.61-.03.15-.05.3-.08.46-.25,0-.5,0-.76,0-.06,0-.13,0-.12-.08.02-.66-.04-1.33.03-1.99Z" style="fill:#646468;"></path>
</svg>
