<?xml version="1.0" encoding="UTF-8"?>
<svg xmlns="http://www.w3.org/2000/svg" id="Layer_1" viewBox="0 0 141.73 141.73">
  <path d="m69.24,74.26l-3.06-1.79-.22.35c-.68,1.09-1.64,1.63-2.82,1.63-2.02,0-3.53-1.52-3.53-3.51s1.53-3.51,3.53-3.51c1.2,0,2.08.52,2.82,1.63l.22.35,3.06-1.79-.27-.38c-1.48-2.12-3.36-3.13-5.85-3.13-4.68,0-7.19,3.53-7.19,6.85s2.52,6.85,7.19,6.85c2.38,0,4.62-1.2,5.85-3.15l.27-.41Z" style="fill:#363638;"></path>
  <path d="m69.08,77.77h4.21l1.26-3.1h6.32l1.26,3.1h4.24l-7.55-18.13h-3.77l1.01,2.42-6.97,15.71Zm8.67-10.98l1.7,4.27h-3.45l1.75-4.27Z" style="fill:#363638;"></path>
  <path d="m88.11,77.8h3.69v-8.15h2.41v-3.42h-2.41v-1.6c0-.71.46-1.44,1.34-1.44.46,0,.77.08,1.04.19l.41.16,1.53-3.34-.44-.19c-.68-.27-1.64-.38-2.32-.38-1.67,0-3.06.54-3.99,1.58-.82.9-1.29,2.15-1.29,3.53v1.47h-1.64v3.42h1.64l.03,8.18Z" style="fill:#363638;"></path>
  <path d="m38.51,59.53v18.23h4.02v-10.43l3.91,2.88,3.88-2.88v10.43h4.02l.03-18.23-7.93,5.95-7.93-5.95Z" style="fill:#363638;"></path>
  <path d="m102.57,64.15c-4.65,0-7.16,3.51-7.16,6.82s2.52,6.82,7.16,6.82c2.13-.03,4.13-.98,5.69-2.74l-3.01-1.63c-.77.79-1.72,1.2-2.76,1.2-1.53,0-2.87-1.01-3.23-2.34h10.06v-.9c0-4.97-3.97-7.23-6.75-7.23Zm-3.23,5.14c.49-1.25,1.53-1.96,2.87-1.96s2.43.71,2.98,1.98l-5.85-.03Z" style="fill:#363638;"></path>
  <path d="m117.7,64.15c-4.65,0-7.16,3.51-7.16,6.82s2.52,6.82,7.16,6.82c2.13-.03,4.13-.98,5.69-2.74l-3.01-1.63c-.77.79-1.72,1.2-2.76,1.2-1.53,0-2.87-1.01-3.23-2.34h10.06v-.9c0-4.97-3.94-7.23-6.75-7.23Zm-3.23,5.14c.49-1.25,1.53-1.98,2.87-1.96,1.37,0,2.43.71,2.98,1.98l-5.85-.03Z" style="fill:#363638;"></path>
  <path d="m20.6,64.07l-9.74-4.56v18.15l9.73,4.57,9.74-4.57v-18.15l-9.74,4.56Zm0,4.46h0s0,0,0,0l5.71-2.68v9.24l-5.72,2.69-5.72-2.69v-9.24l5.71,2.68h0s0,0,0,0Z" style="fill:#363638; fill-rule:evenodd;"></path>
  <path d="m126.8,64.3v.53h-.88v2.72h-.66v-2.72h-.88v-.53h2.42Z" style="fill:#363638;"></path>
  <path d="m130.87,64.3v3.25h-.66v-2.11l-.88,2.11h-.5l-.89-2.11v2.11h-.66v-3.25h.75l1.05,2.41,1.05-2.41h.75Z" style="fill:#363638;"></path>
</svg>
