<?xml version="1.0" encoding="UTF-8"?>
<svg xmlns="http://www.w3.org/2000/svg" id="Layer_1" viewBox="0 0 141.73 141.73">
  <path id="Path_138" d="m70.16,84.86c-2.19,0-3.96,1.77-3.96,3.96s1.77,3.96,3.96,3.96c2.15.08,3.96-1.6,4.04-3.76,0,0,0,0,0,0v-.2c.06-2.13-1.62-3.9-3.74-3.96-.1,0-.2,0-.3,0Zm2.27,3.96c0,1.26-1.02,2.27-2.27,2.27s-2.27-1.02-2.27-2.27,1.02-2.27,2.27-2.27h0c1.19-.07,2.21.84,2.27,2.03,0,.08,0,.16,0,.25Z" style="fill:#363638;"></path>
  <rect id="Rectangle_72" x="84.13" y="85.1" width="1.68" height="7.41" style="fill:#363638;"></rect>
  <rect id="Rectangle_73" x="87.41" y="81.35" width="1.68" height="11.16" style="fill:#363638;"></rect>
  <path id="Path_139" d="m94.23,84.86c-2.27,0-3.78,1.59-3.78,3.96-.13,2.03,1.4,3.79,3.44,3.93,0,0,0,0,0,0,.14,0,.29,0,.43,0,1.34.02,2.6-.65,3.34-1.77l.03-.06-1.18-1.12-.06.06c-.48.75-1.3,1.22-2.19,1.24-1.13.04-2.09-.85-2.13-1.98v-.03h5.64v-.32c0-2.39-1.36-3.9-3.55-3.9Zm-.09,1.56c1.06,0,1.74.53,1.83,1.45h-3.72c.15-.9.98-1.54,1.9-1.45h0Z" style="fill:#363638;"></path>
  <path id="Path_140" d="m79.37,84.86c-.96-.05-1.87.4-2.42,1.18v-4.7h-1.68v11.16h1.68v-.95c.55.78,1.47,1.23,2.42,1.18,2.13,0,3.6-1.63,3.6-3.96s-1.48-3.93-3.6-3.93Zm1.83,3.96c-.06,1.19-1.08,2.1-2.27,2.04-1.19-.06-2.1-1.08-2.04-2.27.06-1.15,1.01-2.04,2.16-2.04,1.27-.03,2.16.89,2.16,2.27h0Z" style="fill:#363638;"></path>
  <path id="Path_141" d="m61.39,81.35l-2.63,6.67-2.6-6.61-.03-.06h-1.44l-2.72,11.16h1.92l1.77-7.74,2.42,6.02v.03h1.33l2.42-6.05,1.8,7.74h1.92l-2.72-11.16h-1.45Z" style="fill:#363638;"></path>
  <rect id="Rectangle_74" x="83.95" y="81.49" width="2.04" height="2.04" style="fill:#363638;"></rect>
  <path id="Path_142" d="m19.9,48.95h-5.08v28.35h16.12v-4.84h-11.04v-23.51Z" style="fill:#363638;"></path>
  <path id="Path_143" d="m92.78,59.52h-.03c-1.57-3.16-4.83-5.12-8.36-5.02-1.96-.03-3.89.52-5.55,1.56-3.37,2.07-5.35,5.85-5.35,10.1-.02,2.05.48,4.07,1.45,5.88,1.81,3.56,5.48,5.8,9.48,5.79,3.5.14,6.76-1.76,8.36-4.87h.03v4.28h4.99v-22.09h-4.99v4.37h-.03Zm-.71,6.68c.01,1.22-.27,2.43-.83,3.51-1.89,3.21-6.02,4.29-9.24,2.42-2.01-1.18-3.13-3.34-3.13-5.94-.02-1.23.26-2.45.83-3.54,1.13-2.1,3.35-3.38,5.73-3.31,1.21-.02,2.4.27,3.46.86,2.06,1.28,3.28,3.57,3.19,6h0Z" style="fill:#363638;"></path>
  <path id="Path_144" d="m57.67,76.3h0c4.74,2.71,10.72,1.83,14.47-2.13l.06-.06-3.34-3.4-.06.06c-1.32,1.49-3.24,2.31-5.23,2.25-2.38,0-4.57-1.28-5.73-3.36-.61-1.07-.93-2.29-.92-3.52,0-1.23.31-2.44.92-3.51,1.15-2.09,3.35-3.38,5.73-3.37,1.99-.06,3.9.76,5.23,2.24l.06.06,3.34-3.43-.06-.06c-4.44-4.74-11.88-4.99-16.62-.56-4.74,4.44-4.99,11.88-.56,16.62.79.85,1.71,1.57,2.71,2.15Z" style="fill:#363638;"></path>
  <path id="Path_145" d="m40.45,67.11l-5.43-11.9-.03-.06h-5.64l8.27,18.07-4.76,10.39h5.61l13.08-28.38.06-.12h-5.67l-5.49,11.99Z" style="fill:#363638;"></path>
  <path id="Path_146" d="m126.92,68.6c-.04-1.77-.84-3.43-2.21-4.55-1.42-1.05-3.22-1.41-4.93-1.01-.12.03-.35.09-.41,0-.04-.13-.04-.28,0-.41.59-2.75-.41-5.08-2.8-6.41-1.75-1-3.9-.99-5.64.03-1.7.92-2.78,2.67-2.84,4.6l.02,13.52h13c1.55.05,3.04-.57,4.1-1.7,1.08-1.08,1.7-2.54,1.72-4.07Z" style="fill:#646468;"></path>
  <path id="Path_147" d="m107.43,60.56c-1.38.9-2.23,2.43-2.27,4.08v12.61h12.55c1.66-.07,3.17-.94,4.07-2.33h-14.29v-14.35h-.06Z" style="fill:#111;"></path>
</svg>
