<?xml version="1.0" encoding="UTF-8"?>
<svg xmlns="http://www.w3.org/2000/svg" id="Layer_1" viewBox="0 0 141.73 141.73">
  <path id="path3081" d="m9.92,61.94v5.96h24.22v-5.96H9.92Zm0,11.88v5.96h24.22v-5.96H9.92Z" style="fill:#bbbcbe;"></path>
  <path id="path3087" d="m47.35,61.94c-1.89,0-3.18.46-4.05,1.14-1.02.78-1.46,1.83-1.46,2.87,0,.9.29,1.69.73,2.32.7.99,2.71,2.07,4.19,2.82,1.4.7,2.73,1.27,3.51,2.19.51.6.77,1.22.77,2.19,0,1.09-.48,1.92-1.23,2.5-.75.58-1.8.91-2.91.91-2.56,0-3.91-.76-4.69-3.73l-.87.23c.32,1.06.6,2.1.82,3.6,1.4.51,3.1.82,4.51.82,2.15,0,3.77-.63,4.78-1.55.92-.82,1.37-1.93,1.37-3.19,0-1.19-.54-2.29-1.05-2.87-1.04-1.19-2.44-1.76-4.33-2.73-1.52-.77-2.47-1.31-3.1-1.91-.46-.44-.82-1.23-.82-1.91,0-.75.28-1.38.87-1.87.68-.58,1.66-.91,2.87-.91,2.86,0,3.36.88,3.87,3.37l.87-.23c-.22-1.09-.45-2.38-.59-3.37-1.24-.48-2.5-.68-4.05-.68Zm34.6.32v.73c1.81,0,1.96.12,1.96,1.87v12.07c0,1.72-.15,1.82-1.96,1.82v.68h7.88c2.52,0,3.93-.58,4.87-1.5.97-.92,1.37-2.11,1.37-3.32,0-1.33-.68-2.28-1.55-2.96-1.04-.8-2.43-1.23-4.01-1.27v-.05c1.52-.22,2.55-.71,3.28-1.37.9-.8,1.18-1.86,1.18-2.78,0-1.23-.63-2.19-1.55-2.82-1.31-.87-2.74-1.09-4.96-1.09h-6.51Zm-10.06.41c-1.07,0-1.88.4-2.46.96-.8.82-1.18,1.94-1.18,3.41v1.5h-1.78v.77h1.78v7.88c0,1.48-.13,1.64-1.82,1.64v.59h5.42v-.59c-1.82,0-1.91-.14-1.91-1.59v-7.92h3.05v-.77h-3.05v-1.41c0-1.72.29-2.61.77-3.19.34-.36.7-.55,1.18-.55.75,0,1.05.51,1.32,1.05.27.53.52,1.05,1.09,1.05.44,0,.68-.24.68-.73,0-.44-.35-1.04-1.05-1.5-.49-.32-1.06-.59-2.05-.59Zm51.63,0c-.89.56-1.73.83-2.91,1v.5c1.31,0,1.46.19,1.46,1.59v11.47c0,1.4-.05,1.59-1.46,1.59v.59h4.51v-.59c-1.33,0-1.37-.19-1.37-1.59v-2.55l1.32-1.37,3.96,6.1h2.78v-.59c-.72.02-1.29-.06-1.82-.91l-3.69-5.6,2.55-2.46c.56-.53.94-.7,1.64-.73v-.59h-3.6v.59c1.16,0,1.02.4.36,1l-3.46,3.37h-.05v-10.7l-.23-.14h0Zm-37.11.55h2.32c1.7,0,2.78.35,3.46.91.53.44.91,1.41.91,2.23,0,1.16-.39,2.01-1.09,2.6-.87.73-2.25,1.05-3.92,1.05h-2.41v-5.96c0-.65.1-.82.73-.82Zm-9.52,2.28c-.31,2.54-1.34,3.13-2.87,3.28v.55h1.82v7.92c0,1.89,1.13,2.46,2.37,2.46.99,0,1.74-.31,2.37-.87l-.36-.55c-.49.36-.94.59-1.5.59-.85,0-1.18-.6-1.18-1.73v-7.83h2.55v-.77h-2.55v-3.05s-.64,0-.64,0Zm-17.03,2.78c-1.55,0-2.7.45-3.64,1.32-.97.94-1.46,2.46-1.46,4.37,0,2.2.56,3.66,1.5,4.55.97.85,2.15,1.18,3.6,1.18,1.52,0,2.68-.36,3.64-1.23.92-.9,1.5-2.33,1.5-4.51,0-1.91-.56-3.38-1.5-4.33-.94-.9-2.02-1.37-3.64-1.37Zm42.21,0c-1.28,0-2.1.32-2.73.68-.78.46-1.27,1.1-1.27,1.68,0,.37.22.73.68.73.51,0,.74-.25.87-.59.22-.53.41-.94.73-1.18.44-.34.91-.55,1.64-.55.8,0,1.37.24,1.73.73.32.41.41,1.13.41,1.68v1.05l-1.41.32c-1.55.34-2.77.85-3.6,1.41-1.06.7-1.5,1.57-1.5,2.69,0,.92.38,1.59.96,2.05.63.51,1.46.73,2.23.73,1.6,0,2.55-.54,3.37-1.32h.09c.22.8.75,1.23,1.59,1.23.63,0,1.05-.13,1.46-.32l-.14-.59c-.19.12-.4.18-.64.18-.48,0-.73-.46-.73-1.55v-5.69c0-1.06-.19-1.71-.82-2.41-.61-.68-1.46-.96-2.91-.96h0Zm8.92,0c-.8.58-1.62.83-2.69,1v.55c1.28-.02,1.41.15,1.41,1.55v5.87c0,1.45-.11,1.59-1.41,1.59v.59h4.23v-.59c-1.14,0-1.18-.14-1.18-1.59v-5.83c.97-1.33,2.08-2.28,3.1-2.28.65,0,1.09.19,1.41.5.46.49.55,1.24.55,2.19v5.42c0,1.45-.07,1.59-1.23,1.59v.59h4.1v-.59c-1.09,0-1.18-.19-1.18-1.55v-5.55c0-1.28-.31-2.15-.87-2.69-.53-.51-1.28-.77-2.32-.77-1.33,0-2.58.77-3.55,2h-.05l-.09-1.87-.23-.14h0Zm-51.18.77c1.02,0,1.86.32,2.41,1,.65.85,1,2.05,1,3.92,0,1.96-.44,3.19-1.05,3.96-.56.63-1.31,1.05-2.32,1.05s-1.81-.42-2.37-1.05c-.6-.78-1-2-1-3.96s.35-3.07,1-3.92c.58-.68,1.36-1,2.32-1Zm25.86,1.87h3.01c1.98,0,3.34.35,4.19,1,.87.65,1.32,1.58,1.32,2.64,0,1.26-.38,2.17-.96,2.78-.82.85-1.92,1.18-3.64,1.18h-3.01c-.75,0-.91-.17-.91-1.18v-6.42Zm18.44,2.32v4.28c-.61.6-1.41,1.27-2.6,1.27-.72,0-1.27-.25-1.64-.59-.36-.36-.5-.87-.5-1.5,0-1.11.65-1.77,1.59-2.28.89-.56,2.1-.89,3.14-1.18h0Z" style="fill:#212121;"></path>
  <rect x="9.92" y="67.88" width="24.22" height="5.96" style="fill:#fff;"></rect>
</svg>
