<?xml version="1.0" encoding="UTF-8"?>
<svg xmlns="http://www.w3.org/2000/svg" id="Layer_1" viewBox="0 0 141.73 141.73">
  <g>
    <path d="m65.3,100.37s-.04.04-.06.07c-.54.98-1.38,1.55-2.46,1.79-1.13.25-2.26.24-3.34-.2-1.3-.52-2.02-1.51-2.2-2.89-.03-.26-.04-.52-.04-.78,0-1.31,0-2.61,0-3.92,0-.11,0-.21.02-.31.08-.34.29-.55.63-.63.41-.09.8,0,1.19.1.1.03.12.08.12.17,0,.07,0,.13,0,.2,0,1.44,0,2.88,0,4.32,0,.21.02.42.06.63.15.73.57,1.25,1.29,1.5.59.21,1.19.21,1.78.02.83-.27,1.27-.86,1.36-1.72.04-.4.03-.81.03-1.21,0-1.01,0-2.02,0-3.03,0-.11,0-.23.02-.34.06-.34.27-.55.59-.63.43-.11.84-.02,1.25.1.08.02.1.08.1.15,0,.07,0,.13,0,.2,0,.85-.01,1.69,0,2.54.02,1.17.38,2.21,1.24,3.03.7.66,1.54,1.03,2.49,1.17.55.08,1.11.14,1.67.11.27-.01.54-.05.8-.11.16-.04.31-.1.45-.18.61-.36.61-1.14,0-1.5-.3-.18-.65-.23-.99-.28-.66-.08-1.32-.15-1.97-.23-.5-.07-.98-.21-1.42-.45-.8-.44-1.29-1.08-1.31-2.02-.03-1.01.37-1.79,1.25-2.3.52-.3,1.09-.41,1.67-.48.79-.09,1.57-.1,2.36,0,.53.07,1.06.19,1.56.4.22.09.43.21.61.37.32.3.38.66.17,1.04-.09.17-.22.31-.37.44-.07.06-.13.06-.2,0-1.09-.73-2.32-.87-3.59-.81-.37.02-.72.1-1.04.3-.27.17-.45.41-.45.75,0,.25.1.45.29.6.21.17.46.26.74.3.92.13,1.84.26,2.77.4.33.05.66.14.97.27,1.27.53,1.77,1.61,1.38,2.93-.23.78-.75,1.3-1.47,1.65-.52.26-1.08.39-1.66.43-1.29.09-2.57,0-3.81-.43-.91-.32-1.73-.78-2.39-1.5-.02-.02-.04-.03-.07-.05Z" style="fill:#363638;"></path>
    <path d="m36.73,100.56c0,.57,0,1.09,0,1.62,0,.09-.03.13-.13.15-.73.1-1.45.13-2.18-.05-1.34-.33-2-1.37-2.09-2.55-.03-.35-.01-.71-.01-1.07,0-1.09,0-2.17,0-3.26,0-.32.06-.31-.31-.31-.94,0-1.88,0-2.83,0-1.11,0-1.97.47-2.52,1.44-.92,1.64.09,3.74,1.94,4.04.46.07.92.03,1.38-.01.17-.02.34-.04.51-.06.07.06.04.13.04.19,0,.46,0,.92,0,1.38,0,.08.02.17-.12.19-1.27.2-2.51.19-3.69-.38-1.33-.64-2.1-1.74-2.4-3.16-.41-1.94.64-3.84,1.98-4.68.73-.45,1.52-.68,2.38-.68,1.1,0,2.19,0,3.29,0,.06,0,.12,0,.17,0,.14.01.18-.05.18-.19,0-.48,0-.96,0-1.44,0-.1,0-.19,0-.29,0-.1.04-.13.14-.13.57,0,1.13,0,1.7,0,.13,0,.13.07.13.17,0,.52,0,1.04,0,1.56,0,.35-.05.32.32.33.62,0,1.23,0,1.85,0,.29,0,.26-.01.26.27,0,.41,0,.83,0,1.24,0,.23,0,.23-.24.23-.63,0-1.27,0-1.9,0-.32,0-.28-.01-.28.28,0,1.34.01,2.67,0,4.01,0,.6.27,1.17,1.17,1.26.41.04.82,0,1.26-.09Z" style="fill:#363638;"></path>
    <path d="m49.28,101.15v2.71c0,.34,0,.67,0,1.01,0,.54-.28.85-.81.91-.36.04-.71-.04-1.05-.14-.09-.03-.12-.08-.12-.17,0-.05,0-.1,0-.14,0-2.44,0-4.88,0-7.32,0-.63.1-1.24.31-1.84.55-1.57,1.66-2.5,3.28-2.83,1.02-.21,2.03-.19,3,.22,1.5.63,2.39,1.77,2.68,3.36.22,1.2.05,2.36-.6,3.41-.73,1.19-1.82,1.83-3.2,2-.71.09-1.4.02-2.07-.23-.47-.18-.88-.46-1.23-.83-.04-.05-.09-.09-.13-.14-.02,0-.04.01-.06.02Zm2.58-.49c1.05-.03,1.82-.45,2.32-1.3.38-.63.48-1.32.38-2.05-.16-1.15-.96-2.2-2.36-2.33-1.1-.1-2.14.4-2.62,1.44-.41.88-.44,1.79-.04,2.67.46,1.01,1.27,1.52,2.32,1.57Z" style="fill:#363638;"></path>
    <path d="m46.73,97.44c0,2.73-1.65,4.59-4.07,4.89-1.05.13-2.06.01-2.99-.5-1.65-.9-2.48-2.31-2.44-4.19.05-2.19,1.54-3.92,3.71-4.33,1.41-.27,2.74-.04,3.92.8,1.24.88,1.85,2.12,1.87,3.32Zm-4.77,3.21c.97,0,1.83-.49,2.31-1.33.35-.61.45-1.27.37-1.97-.13-1.03-.81-2.21-2.35-2.38-1.1-.12-2.22.36-2.74,1.53-.25.57-.31,1.16-.23,1.77.17,1.36,1.3,2.37,2.65,2.37Z" style="fill:#363638;"></path>
    <path d="m18.98,102.38c-2.1.01-3.86-1.16-4.53-2.99-.91-2.5.38-5.47,3.45-6.07,1.49-.29,2.88-.02,4.08.92,1.33,1.05,1.85,2.45,1.67,4.12-.19,1.71-1.39,3.52-3.82,3.94-.3.05-.61.09-.85.08Zm2.64-4.58c.02-1.24-.69-2.66-2.38-2.83-1.1-.12-2.19.37-2.71,1.49-.3.64-.36,1.31-.22,2,.35,1.82,2.35,2.77,3.94,1.85.95-.55,1.35-1.43,1.38-2.5Z" style="fill:#363638;"></path>
    <path d="m118.14,100.23c-.06,0-.07.06-.09.1-.87,1.44-2.18,2.03-3.82,1.92-1.89-.13-3.41-1.38-3.87-3.22-.46-1.84-.03-3.46,1.44-4.71,1.47-1.26,3.75-1.32,5.24-.19.84.63,1.31,1.49,1.53,2.5.08.36.12.72.12,1.09,0,1.66,0,3.32-.01,4.99,0,.48-.05.96-.15,1.43-.26,1.28-1.04,2.13-2.25,2.5-1.81.54-3.48.22-4.91-1.07-.19-.17-.36-.37-.51-.58-.06-.08-.07-.13.02-.19.04-.02.08-.06.12-.09.19-.14.17-.19.34.04.66.89,1.58,1.38,2.66,1.57.67.12,1.34.1,2-.11,1.17-.37,1.87-1.16,2.06-2.38.08-.49.11-.99.11-1.49,0-.65,0-1.31,0-1.96,0-.04.02-.09-.03-.13Zm-3.64,1.55c1.51.02,2.75-.77,3.32-2.17.37-.89.43-1.82.25-2.77-.15-.79-.47-1.51-1.06-2.07-1.03-.98-2.26-1.18-3.59-.78-1.96.6-3.04,2.63-2.62,4.67.34,1.65,1.71,3.04,3.69,3.11Z" style="fill:#363638;"></path>
    <path d="m103.55,100.39c.14.09.24.22.37.35-.26.33-.57.61-.92.82-1.46.87-2.97.96-4.52.27-.86-.39-1.49-1.05-1.87-1.92-.66-1.53-.64-3.07.16-4.55.82-1.52,2.41-2.21,3.99-1.98,1.78.25,2.82,1.34,3.32,3.02.1.35.15.71.17,1.08,0,.11-.03.16-.14.15-.07,0-.13,0-.2,0-2.31,0-4.61,0-6.92,0-.3,0-.31-.08-.3.31.01.66.15,1.3.45,1.89.6,1.18,1.58,1.82,2.9,1.95,1.03.1,1.98-.12,2.83-.74.25-.18.46-.4.68-.63Zm.11-3.26c-.11-1.95-1.75-3.43-3.63-3.31-.93.06-1.73.41-2.35,1.12-.54.62-.83,1.36-.93,2.19h6.91Z" style="fill:#363638;"></path>
    <path d="m85.47,97.61h-7.55c-.04.58.05,1.13.22,1.66.47,1.45,1.64,2.37,3.17,2.49,1.33.1,2.48-.29,3.39-1.3.02-.02.04-.04.06-.05.08-.01.11.05.14.09.28.29.32.19-.01.52-.81.8-1.8,1.18-2.92,1.25-.62.04-1.23-.04-1.82-.24-1.08-.38-1.88-1.09-2.33-2.14-.64-1.48-.62-2.98.11-4.42.82-1.62,2.44-2.29,4.05-2.09,1.68.21,2.97,1.44,3.37,3.18.08.34.14.68.12,1.07Zm-7.49-.5h6.9c-.1-1.44-1.18-3.29-3.44-3.3-1.83-.01-3.38,1.46-3.46,3.3Z" style="fill:#363638;"></path>
    <path d="m119.51,93.54c.39-.1.58.02.76.37,1.09,2.09,2.2,4.17,3.31,6.26.04.08.09.17.14.26.09-.08.12-.18.16-.27.99-2.1,1.99-4.19,2.98-6.29.2-.42.07-.33.55-.34.05,0,.1,0,.14,0,.04.1-.02.16-.05.22-2.01,4.25-4.01,8.5-6.02,12.75-.08.17-.17.24-.34.22-.09-.01-.19,0-.29,0-.02-.14.06-.23.11-.33.78-1.67,1.56-3.33,2.36-4.99.11-.22.11-.39,0-.61-1.23-2.31-2.44-4.63-3.65-6.95-.04-.08-.08-.17-.14-.28Z" style="fill:#363638;"></path>
    <path d="m87.25,99.26c0-.83,0-1.65,0-2.48,0-.32.06-.63.15-.94.41-1.4,1.38-2.17,2.77-2.45.7-.14,1.4-.07,2.07.2,1.3.52,2,1.5,2.17,2.87.04.34.05.69.05,1.04,0,1.41,0,2.82,0,4.24,0,.07,0,.13,0,.2,0,.1-.05.14-.14.13,0,0-.02,0-.03,0-.44,0-.36.03-.36-.34,0-1.51,0-3.02,0-4.52,0-.4-.04-.8-.15-1.2-.39-1.46-1.59-2.03-2.5-2.16-.59-.08-1.15,0-1.69.23-.99.43-1.56,1.18-1.75,2.23-.07.36-.07.73-.07,1.09,0,1.44,0,2.88,0,4.32,0,.07,0,.13,0,.2,0,.11-.05.16-.16.15-.04,0-.08,0-.12,0-.25,0-.25,0-.25-.25,0-.86,0-1.71,0-2.57,0,0,0,0,.01,0Z" style="fill:#363638;"></path>
    <path d="m109.69,93.33s.02.07.02.1q.02.36-.35.4c-1.58.16-2.67,1.28-2.78,2.87-.02.24-.02.48-.02.72,0,1.44,0,2.88,0,4.32,0,.07,0,.13,0,.2,0,.08-.03.13-.11.13-.02,0-.04,0-.06,0-.42,0-.35.03-.35-.32,0-1.52,0-3.03,0-4.55,0-.51.04-1.02.2-1.5.44-1.32,1.4-2.04,2.73-2.31.17-.03.34-.06.51-.06.07,0,.13,0,.19,0Z" style="fill:#363638;"></path>
  </g>
  <g>
    <path d="m75.26,80.61c-.25.81-.46,1.59-.74,2.34-.37,1.01-.86,1.95-1.77,2.62-1.52,1.11-4.13.99-5.44-.82-.68-.94-1.04-2-1.29-3.12-.06-.25-.11-.51-.16-.75-.24-.08-.33.11-.46.21-1.5,1.2-3.14,2.15-5.03,2.54-2.07.43-4.08.26-5.99-.69-.29-.15-.58-.32-.82-.53-.47-.42-.5-.83-.09-1.31.28-.32.64-.53,1-.73.56-.3,1.13-.58,1.67-.9.73-.44,1.26-1.06,1.63-1.82-.21-.15-.35.02-.5.07-1.64.65-3.31.91-5.06.61-.41-.07-.81-.2-1.17-.41-.61-.37-.78-.92-.49-1.57.13-.29.31-.52.54-.73.36-.32.72-.63,1.08-.95,1.31-1.17,1.6-2.57.95-4.41-.31-.87-.84-1.63-1.32-2.4-.75-1.2-1.52-2.39-2.18-3.65-.94-1.81-1.62-3.72-1.91-5.74-.21-1.43-.22-2.86-.08-4.31.17-1.79.5-3.54,1.05-5.24,2.14-6.6,6.56-10.87,13.2-12.87,1.61-.48,3.26-.78,4.93-.95,1.63-.17,3.26-.27,4.9-.21,3.6.14,7.12.66,10.46,2.06,4.33,1.82,7.64,4.77,9.77,8.97,1.16,2.27,1.86,4.7,2.12,7.24.25,2.36.23,4.7-.43,7.01-.53,1.86-1.38,3.58-2.33,5.25-.72,1.27-1.47,2.53-2.22,3.78-.45.76-.78,1.57-1.01,2.41-.24.88.11,1.72.66,2.44.32.42.73.75,1.12,1.1.27.25.57.48.8.77.72.91.51,1.76-.56,2.19-1.04.41-2.13.44-3.22.31-1.17-.14-2.3-.44-3.34-1-.14.19-.02.28.04.38.52.89,1.23,1.58,2.17,2.02.34.16.66.33.99.51.27.15.54.3.78.48.83.64.83,1.23-.03,1.81-1.17.79-2.5,1.13-3.89,1.22-3.01.19-5.53-.97-7.79-2.84-.16-.13-.27-.35-.55-.39Zm-8.07-19.46c0-3.03-2.48-5.48-5.52-5.46-2.87.02-5.45,2.32-5.44,5.49.01,3.24,2.59,5.5,5.5,5.48,3.42-.02,5.54-2.87,5.46-5.51Zm16.75.04c-.06-2.86-2.24-5.06-5.03-5.07-2.92,0-5.09,2.2-5.1,5.04-.01,2.81,2.15,5.04,5.01,5.07,2.9.03,5.05-2.25,5.12-5.05Zm-14.07,10.96c.93-.05,1.79-.31,2.46-1.02.29-.31.5-.66.51-1.1.02-.59-.22-.77-.75-.54-.28.12-.53.3-.81.41-1.11.45-2.19.63-3.13-.36-.16-.17-.36-.25-.59-.16-.26.1-.36.3-.37.56-.04.59.22,1.06.64,1.44.57.53,1.28.73,2.06.77Zm15.96-19.93s-.02-.14-.08-.2c-.46-.49-1-.84-1.67-.96-.3-.05-.55.17-.62.47-.06.28.08.6.38.68.5.13,1.01.25,1.5.43.26.1.49-.11.48-.42Zm-28.11,0c0-.36-.36-.68-.71-.58-.62.17-1.14.53-1.56,1.02-.09.1-.1.24-.02.37.08.12.2.19.34.13.47-.21.97-.22,1.46-.33.31-.07.5-.33.49-.6Z" style="fill:#646468;"></path>
    <path d="m67.2,61.16c.08,2.64-2.04,5.49-5.46,5.51-2.91.02-5.49-2.24-5.5-5.48-.01-3.17,2.56-5.46,5.44-5.49,3.05-.03,5.51,2.42,5.52,5.46Zm-7.51-2.11c.22.07.39.11.55.19.42.2.59.67.43,1.1-.13.34-.39.53-.74.56-.38.04-.67-.14-.85-.48-.06-.11-.07-.27-.23-.28-.22-.02-.22.2-.26.32-.55,1.41-.49,2.76.48,3.99,1.38,1.76,4.14,2.17,5.98.13.83-.91,1.09-2.03.86-3.23-.27-1.42-1.11-2.4-2.46-2.9-1.32-.49-2.56-.26-3.74.6Z" style="fill:#fff;"></path>
    <path d="m83.95,61.2c-.07,2.8-2.21,5.07-5.12,5.05-2.86-.03-5.03-2.26-5.01-5.07.01-2.84,2.19-5.05,5.1-5.04,2.79,0,4.97,2.21,5.03,5.07Zm-8-1.6c-1.16,1.14-1.39,3.62.21,5.19,1.5,1.46,3.84,1.46,5.38.01,1.35-1.28,1.66-3.54.28-5.2-1.38-1.66-3.78-1.78-5.1-.69.75.14,1.09.45,1.06.98-.03.45-.41.82-.85.84-.54.02-.85-.32-.98-1.13Z" style="fill:#fff;"></path>
    <path d="m69.88,72.16c-.78-.04-1.48-.24-2.06-.77-.42-.39-.67-.85-.64-1.44.02-.26.11-.46.37-.56.24-.09.43,0,.59.16.95.99,2.03.81,3.13.36.28-.11.54-.29.81-.41.53-.23.77-.05.75.54-.02.44-.22.79-.51,1.1-.67.71-1.53.97-2.46,1.02Z" style="fill:#fff;"></path>
    <path d="m85.83,52.23c0,.31-.22.52-.48.42-.49-.19-1-.3-1.5-.43-.29-.08-.44-.4-.38-.68.07-.29.31-.52.62-.47.66.12,1.21.47,1.67.96.05.06.06.16.08.2Z" style="fill:#fff;"></path>
    <path d="m57.73,52.23c0,.27-.19.54-.49.6-.49.11-.99.12-1.46.33-.13.06-.26,0-.34-.13-.08-.12-.07-.26.02-.37.42-.49.94-.85,1.56-1.02.35-.1.7.23.71.58Z" style="fill:#fff;"></path>
    <path d="m59.69,59.04c1.18-.86,2.41-1.09,3.74-.6,1.35.5,2.19,1.48,2.46,2.9.23,1.2-.03,2.32-.86,3.23-1.84,2.03-4.59,1.62-5.98-.13-.97-1.23-1.03-2.58-.48-3.99.04-.11.04-.33.26-.32.16.01.17.17.23.28.18.35.47.52.85.48.35-.03.61-.22.74-.56.17-.43,0-.9-.43-1.1-.15-.07-.32-.11-.55-.19Z" style="fill:#363638;"></path>
    <path d="m75.95,59.6c.13.81.45,1.16.98,1.13.45-.02.83-.39.85-.84.03-.53-.31-.85-1.06-.98,1.31-1.1,3.72-.97,5.1.69,1.38,1.66,1.07,3.93-.28,5.2-1.53,1.45-3.88,1.45-5.38-.01-1.6-1.57-1.37-4.04-.21-5.19Z" style="fill:#363638;"></path>
  </g>
</svg>
