<?xml version="1.0" encoding="UTF-8"?>
<svg xmlns="http://www.w3.org/2000/svg" id="Layer_1" viewBox="0 0 141.73 141.73">
  <rect x="14.93" y="60.39" width="111.87" height="20.96" style="fill:#fff;"></rect>
  <path d="m115.39,74.94c-2.01,0-2.88-1.64-2.88-4.02s.85-4.16,2.88-4.16,2.86,1.78,2.86,4.16-.82,4.02-2.86,4.02m0,4.16c4.64,0,7.69-3.28,7.69-8.2s-3.08-8.26-7.69-8.26-7.69,3.37-7.69,8.26c0,4.89,3.08,8.2,7.69,8.2m-19.23-9.16v-3.08h.99c1.56,0,2.26.48,2.26,1.56,0,1.02-.76,1.53-2.21,1.53h-1.05Zm-5.01,8.74h4.98v-5.37h.99c1.44,0,1.84.48,2.09,2.8.2,1.44.25,1.89.48,2.57h5.06c-.31-1.02-.4-1.56-.51-2.29l-.23-1.53c-.28-2.18-1.1-2.97-2.77-3.42,1.78-.48,3-1.98,3-3.93,0-1.44-.54-2.6-1.53-3.42-.93-.79-2.06-1.07-4.1-1.07h-7.47v15.67h0Zm-13.32-11.74h.34c2.46,0,3.79,1.05,3.79,3.9s-1.22,3.9-3.79,3.9h-.31l-.03-7.81h0Zm-4.98,11.74h5.29c5.63,0,8.85-2.29,8.85-7.86,0-5.91-3.22-7.78-8.85-7.78h-5.29v15.64h0Zm-13.94-15.64h-4.5v15.64h4.55v-3.76c0-2.49-.11-4.27-.11-4.27h.03s2.57,4.36,4.69,8.06h4.5v-15.67h-4.55v3.62c0,2.35.06,4.04.06,4.04h-.03l-4.64-7.66Zm-17.87,9.25c.54-1.92.96-3.37,1.36-4.84h.03c.37,1.44.82,2.91,1.39,4.84h-2.77Zm9.62,6.39l-5.34-15.64h-5.6l-5.43,15.64h4.89l.74-2.6h4.98l.74,2.6h5.03Zm-18.86-10.77c-.28-3.48-2.52-5.29-6.59-5.29-4.13.03-6.33,2.04-6.33,4.92,0,2.55,1.24,4.1,4.84,5.06l1.75.48c1.07.28,1.7.57,1.7,1.24s-.62,1.13-1.61,1.13-1.67-.57-1.81-1.87h-5.12c.23,3.48,2.4,5.49,6.67,5.49s6.7-2.04,6.7-5.15c0-2.6-1.39-3.9-4.98-4.98l-.82-.25c-1.67-.48-2.43-.62-2.43-1.44,0-.59.48-1.05,1.36-1.05,1.1,0,1.64.54,1.84,1.7h4.84Z" style="fill:#363638;"></path>
</svg>
